G04 EAGLE Gerber RS-274X export*
G75*
%MOMM*%
%FSLAX34Y34*%
%LPD*%
%INSilkscreen Bottom*%
%IPPOS*%
%AMOC8*
5,1,8,0,0,1.08239X$1,22.5*%
G01*
%ADD10C,0.152400*%
%ADD11C,0.127000*%
%ADD12C,0.101600*%
%ADD13R,0.950000X0.500100*%
%ADD14R,0.500100X0.950000*%
%ADD15R,0.406400X0.863600*%
%ADD16R,1.016000X1.524000*%
%ADD17R,0.863600X0.406400*%


D10*
X1225160Y1047030D02*
X1225160Y1074970D01*
X1204840Y1047030D02*
X1204842Y1046930D01*
X1204848Y1046831D01*
X1204858Y1046731D01*
X1204871Y1046633D01*
X1204889Y1046534D01*
X1204910Y1046437D01*
X1204935Y1046341D01*
X1204964Y1046245D01*
X1204997Y1046151D01*
X1205033Y1046058D01*
X1205073Y1045967D01*
X1205117Y1045877D01*
X1205164Y1045789D01*
X1205214Y1045703D01*
X1205268Y1045619D01*
X1205325Y1045537D01*
X1205385Y1045458D01*
X1205449Y1045380D01*
X1205515Y1045306D01*
X1205584Y1045234D01*
X1205656Y1045165D01*
X1205730Y1045099D01*
X1205808Y1045035D01*
X1205887Y1044975D01*
X1205969Y1044918D01*
X1206053Y1044864D01*
X1206139Y1044814D01*
X1206227Y1044767D01*
X1206317Y1044723D01*
X1206408Y1044683D01*
X1206501Y1044647D01*
X1206595Y1044614D01*
X1206691Y1044585D01*
X1206787Y1044560D01*
X1206884Y1044539D01*
X1206983Y1044521D01*
X1207081Y1044508D01*
X1207181Y1044498D01*
X1207280Y1044492D01*
X1207380Y1044490D01*
X1204840Y1074970D02*
X1204842Y1075070D01*
X1204848Y1075169D01*
X1204858Y1075269D01*
X1204871Y1075367D01*
X1204889Y1075466D01*
X1204910Y1075563D01*
X1204935Y1075659D01*
X1204964Y1075755D01*
X1204997Y1075849D01*
X1205033Y1075942D01*
X1205073Y1076033D01*
X1205117Y1076123D01*
X1205164Y1076211D01*
X1205214Y1076297D01*
X1205268Y1076381D01*
X1205325Y1076463D01*
X1205385Y1076542D01*
X1205449Y1076620D01*
X1205515Y1076694D01*
X1205584Y1076766D01*
X1205656Y1076835D01*
X1205730Y1076901D01*
X1205808Y1076965D01*
X1205887Y1077025D01*
X1205969Y1077082D01*
X1206053Y1077136D01*
X1206139Y1077186D01*
X1206227Y1077233D01*
X1206317Y1077277D01*
X1206408Y1077317D01*
X1206501Y1077353D01*
X1206595Y1077386D01*
X1206691Y1077415D01*
X1206787Y1077440D01*
X1206884Y1077461D01*
X1206983Y1077479D01*
X1207081Y1077492D01*
X1207181Y1077502D01*
X1207280Y1077508D01*
X1207380Y1077510D01*
X1222620Y1077510D02*
X1222720Y1077508D01*
X1222819Y1077502D01*
X1222919Y1077492D01*
X1223017Y1077479D01*
X1223116Y1077461D01*
X1223213Y1077440D01*
X1223309Y1077415D01*
X1223405Y1077386D01*
X1223499Y1077353D01*
X1223592Y1077317D01*
X1223683Y1077277D01*
X1223773Y1077233D01*
X1223861Y1077186D01*
X1223947Y1077136D01*
X1224031Y1077082D01*
X1224113Y1077025D01*
X1224192Y1076965D01*
X1224270Y1076901D01*
X1224344Y1076835D01*
X1224416Y1076766D01*
X1224485Y1076694D01*
X1224551Y1076620D01*
X1224615Y1076542D01*
X1224675Y1076463D01*
X1224732Y1076381D01*
X1224786Y1076297D01*
X1224836Y1076211D01*
X1224883Y1076123D01*
X1224927Y1076033D01*
X1224967Y1075942D01*
X1225003Y1075849D01*
X1225036Y1075755D01*
X1225065Y1075659D01*
X1225090Y1075563D01*
X1225111Y1075466D01*
X1225129Y1075367D01*
X1225142Y1075269D01*
X1225152Y1075169D01*
X1225158Y1075070D01*
X1225160Y1074970D01*
X1225160Y1047030D02*
X1225158Y1046930D01*
X1225152Y1046831D01*
X1225142Y1046731D01*
X1225129Y1046633D01*
X1225111Y1046534D01*
X1225090Y1046437D01*
X1225065Y1046341D01*
X1225036Y1046245D01*
X1225003Y1046151D01*
X1224967Y1046058D01*
X1224927Y1045967D01*
X1224883Y1045877D01*
X1224836Y1045789D01*
X1224786Y1045703D01*
X1224732Y1045619D01*
X1224675Y1045537D01*
X1224615Y1045458D01*
X1224551Y1045380D01*
X1224485Y1045306D01*
X1224416Y1045234D01*
X1224344Y1045165D01*
X1224270Y1045099D01*
X1224192Y1045035D01*
X1224113Y1044975D01*
X1224031Y1044918D01*
X1223947Y1044864D01*
X1223861Y1044814D01*
X1223773Y1044767D01*
X1223683Y1044723D01*
X1223592Y1044683D01*
X1223499Y1044647D01*
X1223405Y1044614D01*
X1223309Y1044585D01*
X1223213Y1044560D01*
X1223116Y1044539D01*
X1223017Y1044521D01*
X1222919Y1044508D01*
X1222819Y1044498D01*
X1222720Y1044492D01*
X1222620Y1044490D01*
X1207380Y1044490D01*
X1207380Y1077510D02*
X1222620Y1077510D01*
X1204840Y1074970D02*
X1204840Y1047030D01*
X1215000Y1045760D02*
X1215000Y1050840D01*
X1215000Y1071160D02*
X1215000Y1076240D01*
D11*
X1221956Y1064174D02*
X1215000Y1063541D01*
X1215000Y1063541D01*
X1208044Y1064174D01*
X1208061Y1064344D01*
X1208083Y1064514D01*
X1208109Y1064682D01*
X1208139Y1064851D01*
X1208173Y1065018D01*
X1208211Y1065185D01*
X1208254Y1065350D01*
X1208300Y1065515D01*
X1208350Y1065678D01*
X1208404Y1065840D01*
X1208463Y1066001D01*
X1208525Y1066160D01*
X1208591Y1066317D01*
X1208661Y1066473D01*
X1208734Y1066627D01*
X1208812Y1066780D01*
X1208893Y1066930D01*
X1208978Y1067078D01*
X1209066Y1067225D01*
X1209158Y1067369D01*
X1209253Y1067510D01*
X1209352Y1067650D01*
X1209454Y1067787D01*
X1209560Y1067921D01*
X1209669Y1068053D01*
X1209781Y1068182D01*
X1209896Y1068308D01*
X1210014Y1068432D01*
X1210135Y1068552D01*
X1210259Y1068670D01*
X1210386Y1068784D01*
X1210515Y1068895D01*
X1210648Y1069003D01*
X1210783Y1069108D01*
X1210920Y1069210D01*
X1211060Y1069308D01*
X1211202Y1069402D01*
X1211347Y1069494D01*
X1211494Y1069581D01*
X1211642Y1069665D01*
X1211793Y1069745D01*
X1211946Y1069822D01*
X1212100Y1069895D01*
X1212257Y1069964D01*
X1212415Y1070029D01*
X1212574Y1070090D01*
X1212735Y1070148D01*
X1212897Y1070201D01*
X1213061Y1070250D01*
X1213226Y1070296D01*
X1213391Y1070337D01*
X1213558Y1070375D01*
X1213726Y1070408D01*
X1213894Y1070437D01*
X1214063Y1070462D01*
X1214233Y1070483D01*
X1214403Y1070499D01*
X1214573Y1070512D01*
X1214744Y1070520D01*
X1214915Y1070524D01*
X1215085Y1070524D01*
X1215256Y1070520D01*
X1215427Y1070512D01*
X1215597Y1070499D01*
X1215767Y1070483D01*
X1215937Y1070462D01*
X1216106Y1070437D01*
X1216274Y1070408D01*
X1216442Y1070375D01*
X1216609Y1070337D01*
X1216774Y1070296D01*
X1216939Y1070250D01*
X1217103Y1070201D01*
X1217265Y1070148D01*
X1217426Y1070090D01*
X1217585Y1070029D01*
X1217743Y1069964D01*
X1217900Y1069895D01*
X1218054Y1069822D01*
X1218207Y1069745D01*
X1218358Y1069665D01*
X1218506Y1069581D01*
X1218653Y1069494D01*
X1218798Y1069402D01*
X1218940Y1069308D01*
X1219080Y1069210D01*
X1219217Y1069108D01*
X1219352Y1069003D01*
X1219485Y1068895D01*
X1219614Y1068784D01*
X1219741Y1068670D01*
X1219865Y1068552D01*
X1219986Y1068432D01*
X1220104Y1068308D01*
X1220219Y1068182D01*
X1220331Y1068053D01*
X1220440Y1067921D01*
X1220546Y1067787D01*
X1220648Y1067650D01*
X1220747Y1067510D01*
X1220842Y1067369D01*
X1220934Y1067225D01*
X1221022Y1067078D01*
X1221107Y1066930D01*
X1221188Y1066780D01*
X1221266Y1066627D01*
X1221339Y1066473D01*
X1221409Y1066317D01*
X1221475Y1066160D01*
X1221537Y1066001D01*
X1221596Y1065840D01*
X1221650Y1065678D01*
X1221700Y1065515D01*
X1221746Y1065350D01*
X1221789Y1065185D01*
X1221827Y1065018D01*
X1221861Y1064851D01*
X1221891Y1064682D01*
X1221917Y1064514D01*
X1221939Y1064344D01*
X1221956Y1064174D01*
X1220744Y1064174D01*
X1220726Y1064323D01*
X1220703Y1064472D01*
X1220677Y1064621D01*
X1220647Y1064769D01*
X1220613Y1064915D01*
X1220575Y1065061D01*
X1220534Y1065206D01*
X1220488Y1065350D01*
X1220439Y1065493D01*
X1220386Y1065634D01*
X1220330Y1065774D01*
X1220270Y1065912D01*
X1220206Y1066049D01*
X1220139Y1066184D01*
X1220068Y1066317D01*
X1219994Y1066448D01*
X1219917Y1066577D01*
X1219836Y1066704D01*
X1219751Y1066829D01*
X1219664Y1066952D01*
X1219573Y1067073D01*
X1219480Y1067191D01*
X1219383Y1067307D01*
X1219283Y1067420D01*
X1219181Y1067530D01*
X1219075Y1067638D01*
X1218967Y1067743D01*
X1218856Y1067845D01*
X1218742Y1067944D01*
X1218626Y1068040D01*
X1218507Y1068133D01*
X1218386Y1068223D01*
X1218263Y1068310D01*
X1218138Y1068393D01*
X1218010Y1068473D01*
X1217880Y1068550D01*
X1217749Y1068624D01*
X1217615Y1068693D01*
X1217480Y1068760D01*
X1217343Y1068823D01*
X1217204Y1068882D01*
X1217064Y1068938D01*
X1216923Y1068990D01*
X1216780Y1069038D01*
X1216636Y1069083D01*
X1216491Y1069123D01*
X1216344Y1069160D01*
X1216197Y1069194D01*
X1216049Y1069223D01*
X1215901Y1069248D01*
X1215752Y1069270D01*
X1215602Y1069288D01*
X1215452Y1069301D01*
X1215301Y1069311D01*
X1215151Y1069317D01*
X1215000Y1069319D01*
X1214849Y1069317D01*
X1214699Y1069311D01*
X1214548Y1069301D01*
X1214398Y1069288D01*
X1214248Y1069270D01*
X1214099Y1069248D01*
X1213951Y1069223D01*
X1213803Y1069194D01*
X1213656Y1069160D01*
X1213509Y1069123D01*
X1213364Y1069083D01*
X1213220Y1069038D01*
X1213077Y1068990D01*
X1212936Y1068938D01*
X1212796Y1068882D01*
X1212657Y1068823D01*
X1212520Y1068760D01*
X1212385Y1068693D01*
X1212251Y1068624D01*
X1212120Y1068550D01*
X1211990Y1068473D01*
X1211862Y1068393D01*
X1211737Y1068310D01*
X1211614Y1068223D01*
X1211493Y1068133D01*
X1211374Y1068040D01*
X1211258Y1067944D01*
X1211144Y1067845D01*
X1211033Y1067743D01*
X1210925Y1067638D01*
X1210819Y1067530D01*
X1210717Y1067420D01*
X1210617Y1067307D01*
X1210520Y1067191D01*
X1210427Y1067073D01*
X1210336Y1066952D01*
X1210249Y1066829D01*
X1210164Y1066704D01*
X1210083Y1066577D01*
X1210006Y1066448D01*
X1209932Y1066317D01*
X1209861Y1066184D01*
X1209794Y1066049D01*
X1209730Y1065912D01*
X1209670Y1065774D01*
X1209614Y1065634D01*
X1209561Y1065493D01*
X1209512Y1065350D01*
X1209466Y1065206D01*
X1209425Y1065061D01*
X1209387Y1064915D01*
X1209353Y1064769D01*
X1209323Y1064621D01*
X1209297Y1064472D01*
X1209274Y1064323D01*
X1209256Y1064174D01*
X1210471Y1064173D01*
X1210491Y1064305D01*
X1210516Y1064436D01*
X1210544Y1064567D01*
X1210576Y1064697D01*
X1210611Y1064826D01*
X1210651Y1064953D01*
X1210694Y1065080D01*
X1210741Y1065205D01*
X1210791Y1065329D01*
X1210845Y1065451D01*
X1210903Y1065571D01*
X1210964Y1065690D01*
X1211029Y1065807D01*
X1211097Y1065922D01*
X1211168Y1066035D01*
X1211242Y1066146D01*
X1211320Y1066255D01*
X1211401Y1066361D01*
X1211485Y1066465D01*
X1211572Y1066567D01*
X1211662Y1066666D01*
X1211755Y1066762D01*
X1211850Y1066855D01*
X1211948Y1066946D01*
X1212049Y1067034D01*
X1212153Y1067118D01*
X1212258Y1067200D01*
X1212366Y1067279D01*
X1212477Y1067354D01*
X1212589Y1067426D01*
X1212704Y1067495D01*
X1212820Y1067560D01*
X1212939Y1067622D01*
X1213059Y1067681D01*
X1213181Y1067736D01*
X1213304Y1067787D01*
X1213429Y1067835D01*
X1213555Y1067879D01*
X1213683Y1067919D01*
X1213811Y1067956D01*
X1213941Y1067989D01*
X1214071Y1068018D01*
X1214202Y1068043D01*
X1214334Y1068064D01*
X1214467Y1068082D01*
X1214600Y1068095D01*
X1214733Y1068105D01*
X1214866Y1068111D01*
X1215000Y1068113D01*
X1215134Y1068111D01*
X1215267Y1068105D01*
X1215400Y1068095D01*
X1215533Y1068082D01*
X1215666Y1068064D01*
X1215798Y1068043D01*
X1215929Y1068018D01*
X1216059Y1067989D01*
X1216189Y1067956D01*
X1216317Y1067919D01*
X1216445Y1067879D01*
X1216571Y1067835D01*
X1216696Y1067787D01*
X1216819Y1067736D01*
X1216941Y1067681D01*
X1217061Y1067622D01*
X1217180Y1067560D01*
X1217296Y1067495D01*
X1217411Y1067426D01*
X1217523Y1067354D01*
X1217634Y1067279D01*
X1217742Y1067200D01*
X1217847Y1067118D01*
X1217951Y1067034D01*
X1218052Y1066946D01*
X1218150Y1066855D01*
X1218245Y1066762D01*
X1218338Y1066666D01*
X1218428Y1066567D01*
X1218515Y1066465D01*
X1218599Y1066361D01*
X1218680Y1066255D01*
X1218758Y1066146D01*
X1218832Y1066035D01*
X1218903Y1065922D01*
X1218971Y1065807D01*
X1219036Y1065690D01*
X1219097Y1065571D01*
X1219155Y1065451D01*
X1219209Y1065329D01*
X1219259Y1065205D01*
X1219306Y1065080D01*
X1219349Y1064953D01*
X1219389Y1064826D01*
X1219424Y1064697D01*
X1219456Y1064567D01*
X1219484Y1064436D01*
X1219509Y1064305D01*
X1219529Y1064173D01*
X1218307Y1064171D01*
X1218284Y1064284D01*
X1218257Y1064395D01*
X1218225Y1064506D01*
X1218191Y1064615D01*
X1218152Y1064724D01*
X1218110Y1064831D01*
X1218064Y1064936D01*
X1218015Y1065040D01*
X1217962Y1065142D01*
X1217905Y1065242D01*
X1217846Y1065340D01*
X1217782Y1065436D01*
X1217716Y1065530D01*
X1217647Y1065621D01*
X1217574Y1065710D01*
X1217499Y1065797D01*
X1217420Y1065881D01*
X1217339Y1065962D01*
X1217255Y1066041D01*
X1217168Y1066116D01*
X1217079Y1066189D01*
X1216987Y1066258D01*
X1216893Y1066324D01*
X1216797Y1066387D01*
X1216699Y1066447D01*
X1216599Y1066503D01*
X1216497Y1066556D01*
X1216393Y1066605D01*
X1216288Y1066651D01*
X1216181Y1066693D01*
X1216073Y1066732D01*
X1215963Y1066766D01*
X1215852Y1066797D01*
X1215741Y1066824D01*
X1215628Y1066848D01*
X1215515Y1066867D01*
X1215401Y1066883D01*
X1215287Y1066895D01*
X1215172Y1066903D01*
X1215057Y1066907D01*
X1214943Y1066907D01*
X1214828Y1066903D01*
X1214713Y1066895D01*
X1214599Y1066883D01*
X1214485Y1066867D01*
X1214372Y1066848D01*
X1214259Y1066824D01*
X1214148Y1066797D01*
X1214037Y1066766D01*
X1213927Y1066732D01*
X1213819Y1066693D01*
X1213712Y1066651D01*
X1213607Y1066605D01*
X1213503Y1066556D01*
X1213401Y1066503D01*
X1213301Y1066447D01*
X1213203Y1066387D01*
X1213107Y1066324D01*
X1213013Y1066258D01*
X1212921Y1066189D01*
X1212832Y1066116D01*
X1212745Y1066041D01*
X1212661Y1065962D01*
X1212580Y1065881D01*
X1212501Y1065797D01*
X1212426Y1065710D01*
X1212353Y1065621D01*
X1212284Y1065530D01*
X1212218Y1065436D01*
X1212154Y1065340D01*
X1212095Y1065242D01*
X1212038Y1065142D01*
X1211985Y1065040D01*
X1211936Y1064936D01*
X1211890Y1064831D01*
X1211848Y1064724D01*
X1211809Y1064615D01*
X1211775Y1064506D01*
X1211743Y1064395D01*
X1211716Y1064284D01*
X1211693Y1064171D01*
X1212932Y1064166D01*
X1212960Y1064253D01*
X1212992Y1064340D01*
X1213028Y1064424D01*
X1213068Y1064507D01*
X1213110Y1064589D01*
X1213157Y1064668D01*
X1213207Y1064746D01*
X1213259Y1064821D01*
X1213316Y1064894D01*
X1213375Y1064964D01*
X1213437Y1065032D01*
X1213502Y1065097D01*
X1213569Y1065160D01*
X1213639Y1065219D01*
X1213712Y1065275D01*
X1213787Y1065329D01*
X1213864Y1065379D01*
X1213944Y1065425D01*
X1214025Y1065468D01*
X1214108Y1065508D01*
X1214192Y1065544D01*
X1214278Y1065577D01*
X1214366Y1065606D01*
X1214454Y1065631D01*
X1214544Y1065652D01*
X1214634Y1065670D01*
X1214725Y1065683D01*
X1214816Y1065693D01*
X1214908Y1065699D01*
X1215000Y1065701D01*
X1215092Y1065699D01*
X1215184Y1065693D01*
X1215275Y1065683D01*
X1215366Y1065670D01*
X1215456Y1065652D01*
X1215546Y1065631D01*
X1215634Y1065606D01*
X1215722Y1065577D01*
X1215808Y1065544D01*
X1215892Y1065508D01*
X1215975Y1065468D01*
X1216056Y1065425D01*
X1216136Y1065379D01*
X1216213Y1065329D01*
X1216288Y1065275D01*
X1216361Y1065219D01*
X1216431Y1065160D01*
X1216498Y1065097D01*
X1216563Y1065032D01*
X1216625Y1064964D01*
X1216684Y1064894D01*
X1216741Y1064821D01*
X1216793Y1064746D01*
X1216843Y1064668D01*
X1216890Y1064589D01*
X1216932Y1064507D01*
X1216972Y1064424D01*
X1217008Y1064340D01*
X1217040Y1064253D01*
X1217068Y1064166D01*
X1215752Y1064129D01*
X1215713Y1064175D01*
X1215672Y1064218D01*
X1215629Y1064259D01*
X1215582Y1064297D01*
X1215534Y1064332D01*
X1215484Y1064363D01*
X1215431Y1064392D01*
X1215377Y1064417D01*
X1215322Y1064439D01*
X1215265Y1064458D01*
X1215207Y1064472D01*
X1215149Y1064483D01*
X1215089Y1064491D01*
X1215030Y1064495D01*
X1214970Y1064495D01*
X1214911Y1064491D01*
X1214851Y1064483D01*
X1214793Y1064472D01*
X1214735Y1064458D01*
X1214678Y1064439D01*
X1214623Y1064417D01*
X1214569Y1064392D01*
X1214516Y1064363D01*
X1214466Y1064332D01*
X1214418Y1064297D01*
X1214371Y1064259D01*
X1214328Y1064218D01*
X1214287Y1064175D01*
X1214248Y1064129D01*
X1208044Y1057826D02*
X1215000Y1058459D01*
X1215000Y1058459D01*
X1221956Y1057826D01*
X1221939Y1057656D01*
X1221917Y1057486D01*
X1221891Y1057318D01*
X1221861Y1057149D01*
X1221827Y1056982D01*
X1221789Y1056815D01*
X1221746Y1056650D01*
X1221700Y1056485D01*
X1221650Y1056322D01*
X1221596Y1056160D01*
X1221537Y1055999D01*
X1221475Y1055840D01*
X1221409Y1055683D01*
X1221339Y1055527D01*
X1221266Y1055373D01*
X1221188Y1055220D01*
X1221107Y1055070D01*
X1221022Y1054922D01*
X1220934Y1054775D01*
X1220842Y1054631D01*
X1220747Y1054490D01*
X1220648Y1054350D01*
X1220546Y1054213D01*
X1220440Y1054079D01*
X1220331Y1053947D01*
X1220219Y1053818D01*
X1220104Y1053692D01*
X1219986Y1053568D01*
X1219865Y1053448D01*
X1219741Y1053330D01*
X1219614Y1053216D01*
X1219485Y1053105D01*
X1219352Y1052997D01*
X1219217Y1052892D01*
X1219080Y1052790D01*
X1218940Y1052692D01*
X1218798Y1052598D01*
X1218653Y1052506D01*
X1218506Y1052419D01*
X1218358Y1052335D01*
X1218207Y1052255D01*
X1218054Y1052178D01*
X1217900Y1052105D01*
X1217743Y1052036D01*
X1217585Y1051971D01*
X1217426Y1051910D01*
X1217265Y1051852D01*
X1217103Y1051799D01*
X1216939Y1051750D01*
X1216774Y1051704D01*
X1216609Y1051663D01*
X1216442Y1051625D01*
X1216274Y1051592D01*
X1216106Y1051563D01*
X1215937Y1051538D01*
X1215767Y1051517D01*
X1215597Y1051501D01*
X1215427Y1051488D01*
X1215256Y1051480D01*
X1215085Y1051476D01*
X1214915Y1051476D01*
X1214744Y1051480D01*
X1214573Y1051488D01*
X1214403Y1051501D01*
X1214233Y1051517D01*
X1214063Y1051538D01*
X1213894Y1051563D01*
X1213726Y1051592D01*
X1213558Y1051625D01*
X1213391Y1051663D01*
X1213226Y1051704D01*
X1213061Y1051750D01*
X1212897Y1051799D01*
X1212735Y1051852D01*
X1212574Y1051910D01*
X1212415Y1051971D01*
X1212257Y1052036D01*
X1212100Y1052105D01*
X1211946Y1052178D01*
X1211793Y1052255D01*
X1211642Y1052335D01*
X1211494Y1052419D01*
X1211347Y1052506D01*
X1211202Y1052598D01*
X1211060Y1052692D01*
X1210920Y1052790D01*
X1210783Y1052892D01*
X1210648Y1052997D01*
X1210515Y1053105D01*
X1210386Y1053216D01*
X1210259Y1053330D01*
X1210135Y1053448D01*
X1210014Y1053568D01*
X1209896Y1053692D01*
X1209781Y1053818D01*
X1209669Y1053947D01*
X1209560Y1054079D01*
X1209454Y1054213D01*
X1209352Y1054350D01*
X1209253Y1054490D01*
X1209158Y1054631D01*
X1209066Y1054775D01*
X1208978Y1054922D01*
X1208893Y1055070D01*
X1208812Y1055220D01*
X1208734Y1055373D01*
X1208661Y1055527D01*
X1208591Y1055683D01*
X1208525Y1055840D01*
X1208463Y1055999D01*
X1208404Y1056160D01*
X1208350Y1056322D01*
X1208300Y1056485D01*
X1208254Y1056650D01*
X1208211Y1056815D01*
X1208173Y1056982D01*
X1208139Y1057149D01*
X1208109Y1057318D01*
X1208083Y1057486D01*
X1208061Y1057656D01*
X1208044Y1057826D01*
X1209256Y1057826D01*
X1209274Y1057677D01*
X1209297Y1057528D01*
X1209323Y1057379D01*
X1209353Y1057231D01*
X1209387Y1057085D01*
X1209425Y1056939D01*
X1209466Y1056794D01*
X1209512Y1056650D01*
X1209561Y1056507D01*
X1209614Y1056366D01*
X1209670Y1056226D01*
X1209730Y1056088D01*
X1209794Y1055951D01*
X1209861Y1055816D01*
X1209932Y1055683D01*
X1210006Y1055552D01*
X1210083Y1055423D01*
X1210164Y1055296D01*
X1210249Y1055171D01*
X1210336Y1055048D01*
X1210427Y1054927D01*
X1210520Y1054809D01*
X1210617Y1054693D01*
X1210717Y1054580D01*
X1210819Y1054470D01*
X1210925Y1054362D01*
X1211033Y1054257D01*
X1211144Y1054155D01*
X1211258Y1054056D01*
X1211374Y1053960D01*
X1211493Y1053867D01*
X1211614Y1053777D01*
X1211737Y1053690D01*
X1211862Y1053607D01*
X1211990Y1053527D01*
X1212120Y1053450D01*
X1212251Y1053376D01*
X1212385Y1053307D01*
X1212520Y1053240D01*
X1212657Y1053177D01*
X1212796Y1053118D01*
X1212936Y1053062D01*
X1213077Y1053010D01*
X1213220Y1052962D01*
X1213364Y1052917D01*
X1213509Y1052877D01*
X1213656Y1052840D01*
X1213803Y1052806D01*
X1213951Y1052777D01*
X1214099Y1052752D01*
X1214248Y1052730D01*
X1214398Y1052712D01*
X1214548Y1052699D01*
X1214699Y1052689D01*
X1214849Y1052683D01*
X1215000Y1052681D01*
X1215151Y1052683D01*
X1215301Y1052689D01*
X1215452Y1052699D01*
X1215602Y1052712D01*
X1215752Y1052730D01*
X1215901Y1052752D01*
X1216049Y1052777D01*
X1216197Y1052806D01*
X1216344Y1052840D01*
X1216491Y1052877D01*
X1216636Y1052917D01*
X1216780Y1052962D01*
X1216923Y1053010D01*
X1217064Y1053062D01*
X1217204Y1053118D01*
X1217343Y1053177D01*
X1217480Y1053240D01*
X1217615Y1053307D01*
X1217749Y1053376D01*
X1217880Y1053450D01*
X1218010Y1053527D01*
X1218138Y1053607D01*
X1218263Y1053690D01*
X1218386Y1053777D01*
X1218507Y1053867D01*
X1218626Y1053960D01*
X1218742Y1054056D01*
X1218856Y1054155D01*
X1218967Y1054257D01*
X1219075Y1054362D01*
X1219181Y1054470D01*
X1219283Y1054580D01*
X1219383Y1054693D01*
X1219480Y1054809D01*
X1219573Y1054927D01*
X1219664Y1055048D01*
X1219751Y1055171D01*
X1219836Y1055296D01*
X1219917Y1055423D01*
X1219994Y1055552D01*
X1220068Y1055683D01*
X1220139Y1055816D01*
X1220206Y1055951D01*
X1220270Y1056088D01*
X1220330Y1056226D01*
X1220386Y1056366D01*
X1220439Y1056507D01*
X1220488Y1056650D01*
X1220534Y1056794D01*
X1220575Y1056939D01*
X1220613Y1057085D01*
X1220647Y1057231D01*
X1220677Y1057379D01*
X1220703Y1057528D01*
X1220726Y1057677D01*
X1220744Y1057826D01*
X1219529Y1057827D01*
X1219509Y1057695D01*
X1219484Y1057564D01*
X1219456Y1057433D01*
X1219424Y1057303D01*
X1219389Y1057174D01*
X1219349Y1057047D01*
X1219306Y1056920D01*
X1219259Y1056795D01*
X1219209Y1056671D01*
X1219155Y1056549D01*
X1219097Y1056429D01*
X1219036Y1056310D01*
X1218971Y1056193D01*
X1218903Y1056078D01*
X1218832Y1055965D01*
X1218758Y1055854D01*
X1218680Y1055745D01*
X1218599Y1055639D01*
X1218515Y1055535D01*
X1218428Y1055433D01*
X1218338Y1055334D01*
X1218245Y1055238D01*
X1218150Y1055145D01*
X1218052Y1055054D01*
X1217951Y1054966D01*
X1217847Y1054882D01*
X1217742Y1054800D01*
X1217634Y1054721D01*
X1217523Y1054646D01*
X1217411Y1054574D01*
X1217296Y1054505D01*
X1217180Y1054440D01*
X1217061Y1054378D01*
X1216941Y1054319D01*
X1216819Y1054264D01*
X1216696Y1054213D01*
X1216571Y1054165D01*
X1216445Y1054121D01*
X1216317Y1054081D01*
X1216189Y1054044D01*
X1216059Y1054011D01*
X1215929Y1053982D01*
X1215798Y1053957D01*
X1215666Y1053936D01*
X1215533Y1053918D01*
X1215400Y1053905D01*
X1215267Y1053895D01*
X1215134Y1053889D01*
X1215000Y1053887D01*
X1214866Y1053889D01*
X1214733Y1053895D01*
X1214600Y1053905D01*
X1214467Y1053918D01*
X1214334Y1053936D01*
X1214202Y1053957D01*
X1214071Y1053982D01*
X1213941Y1054011D01*
X1213811Y1054044D01*
X1213683Y1054081D01*
X1213555Y1054121D01*
X1213429Y1054165D01*
X1213304Y1054213D01*
X1213181Y1054264D01*
X1213059Y1054319D01*
X1212939Y1054378D01*
X1212820Y1054440D01*
X1212704Y1054505D01*
X1212589Y1054574D01*
X1212477Y1054646D01*
X1212366Y1054721D01*
X1212258Y1054800D01*
X1212153Y1054882D01*
X1212049Y1054966D01*
X1211948Y1055054D01*
X1211850Y1055145D01*
X1211755Y1055238D01*
X1211662Y1055334D01*
X1211572Y1055433D01*
X1211485Y1055535D01*
X1211401Y1055639D01*
X1211320Y1055745D01*
X1211242Y1055854D01*
X1211168Y1055965D01*
X1211097Y1056078D01*
X1211029Y1056193D01*
X1210964Y1056310D01*
X1210903Y1056429D01*
X1210845Y1056549D01*
X1210791Y1056671D01*
X1210741Y1056795D01*
X1210694Y1056920D01*
X1210651Y1057047D01*
X1210611Y1057174D01*
X1210576Y1057303D01*
X1210544Y1057433D01*
X1210516Y1057564D01*
X1210491Y1057695D01*
X1210471Y1057827D01*
X1211693Y1057829D01*
X1211716Y1057716D01*
X1211743Y1057605D01*
X1211775Y1057494D01*
X1211809Y1057385D01*
X1211848Y1057276D01*
X1211890Y1057169D01*
X1211936Y1057064D01*
X1211985Y1056960D01*
X1212038Y1056858D01*
X1212095Y1056758D01*
X1212154Y1056660D01*
X1212218Y1056564D01*
X1212284Y1056470D01*
X1212353Y1056379D01*
X1212426Y1056290D01*
X1212501Y1056203D01*
X1212580Y1056119D01*
X1212661Y1056038D01*
X1212745Y1055959D01*
X1212832Y1055884D01*
X1212921Y1055811D01*
X1213013Y1055742D01*
X1213107Y1055676D01*
X1213203Y1055613D01*
X1213301Y1055553D01*
X1213401Y1055497D01*
X1213503Y1055444D01*
X1213607Y1055395D01*
X1213712Y1055349D01*
X1213819Y1055307D01*
X1213927Y1055268D01*
X1214037Y1055234D01*
X1214148Y1055203D01*
X1214259Y1055176D01*
X1214372Y1055152D01*
X1214485Y1055133D01*
X1214599Y1055117D01*
X1214713Y1055105D01*
X1214828Y1055097D01*
X1214943Y1055093D01*
X1215057Y1055093D01*
X1215172Y1055097D01*
X1215287Y1055105D01*
X1215401Y1055117D01*
X1215515Y1055133D01*
X1215628Y1055152D01*
X1215741Y1055176D01*
X1215852Y1055203D01*
X1215963Y1055234D01*
X1216073Y1055268D01*
X1216181Y1055307D01*
X1216288Y1055349D01*
X1216393Y1055395D01*
X1216497Y1055444D01*
X1216599Y1055497D01*
X1216699Y1055553D01*
X1216797Y1055613D01*
X1216893Y1055676D01*
X1216987Y1055742D01*
X1217079Y1055811D01*
X1217168Y1055884D01*
X1217255Y1055959D01*
X1217339Y1056038D01*
X1217420Y1056119D01*
X1217499Y1056203D01*
X1217574Y1056290D01*
X1217647Y1056379D01*
X1217716Y1056470D01*
X1217782Y1056564D01*
X1217846Y1056660D01*
X1217905Y1056758D01*
X1217962Y1056858D01*
X1218015Y1056960D01*
X1218064Y1057064D01*
X1218110Y1057169D01*
X1218152Y1057276D01*
X1218191Y1057385D01*
X1218225Y1057494D01*
X1218257Y1057605D01*
X1218284Y1057716D01*
X1218307Y1057829D01*
X1217068Y1057834D01*
X1217040Y1057747D01*
X1217008Y1057660D01*
X1216972Y1057576D01*
X1216932Y1057493D01*
X1216890Y1057411D01*
X1216843Y1057332D01*
X1216793Y1057254D01*
X1216741Y1057179D01*
X1216684Y1057106D01*
X1216625Y1057036D01*
X1216563Y1056968D01*
X1216498Y1056903D01*
X1216431Y1056840D01*
X1216361Y1056781D01*
X1216288Y1056725D01*
X1216213Y1056671D01*
X1216136Y1056621D01*
X1216056Y1056575D01*
X1215975Y1056532D01*
X1215892Y1056492D01*
X1215808Y1056456D01*
X1215722Y1056423D01*
X1215634Y1056394D01*
X1215546Y1056369D01*
X1215456Y1056348D01*
X1215366Y1056330D01*
X1215275Y1056317D01*
X1215184Y1056307D01*
X1215092Y1056301D01*
X1215000Y1056299D01*
X1214908Y1056301D01*
X1214816Y1056307D01*
X1214725Y1056317D01*
X1214634Y1056330D01*
X1214544Y1056348D01*
X1214454Y1056369D01*
X1214366Y1056394D01*
X1214278Y1056423D01*
X1214192Y1056456D01*
X1214108Y1056492D01*
X1214025Y1056532D01*
X1213944Y1056575D01*
X1213864Y1056621D01*
X1213787Y1056671D01*
X1213712Y1056725D01*
X1213639Y1056781D01*
X1213569Y1056840D01*
X1213502Y1056903D01*
X1213437Y1056968D01*
X1213375Y1057036D01*
X1213316Y1057106D01*
X1213259Y1057179D01*
X1213207Y1057254D01*
X1213157Y1057332D01*
X1213110Y1057411D01*
X1213068Y1057493D01*
X1213028Y1057576D01*
X1212992Y1057660D01*
X1212960Y1057747D01*
X1212932Y1057834D01*
X1214248Y1057871D01*
X1214287Y1057825D01*
X1214328Y1057782D01*
X1214371Y1057741D01*
X1214418Y1057703D01*
X1214466Y1057668D01*
X1214516Y1057637D01*
X1214569Y1057608D01*
X1214623Y1057583D01*
X1214678Y1057561D01*
X1214735Y1057542D01*
X1214793Y1057528D01*
X1214851Y1057517D01*
X1214911Y1057509D01*
X1214970Y1057505D01*
X1215030Y1057505D01*
X1215089Y1057509D01*
X1215149Y1057517D01*
X1215207Y1057528D01*
X1215265Y1057542D01*
X1215322Y1057561D01*
X1215377Y1057583D01*
X1215431Y1057608D01*
X1215484Y1057637D01*
X1215534Y1057668D01*
X1215582Y1057703D01*
X1215629Y1057741D01*
X1215672Y1057782D01*
X1215713Y1057825D01*
X1215752Y1057871D01*
D10*
X1212840Y1194030D02*
X1212840Y1221970D01*
X1230620Y1224510D02*
X1230720Y1224508D01*
X1230819Y1224502D01*
X1230919Y1224492D01*
X1231017Y1224479D01*
X1231116Y1224461D01*
X1231213Y1224440D01*
X1231309Y1224415D01*
X1231405Y1224386D01*
X1231499Y1224353D01*
X1231592Y1224317D01*
X1231683Y1224277D01*
X1231773Y1224233D01*
X1231861Y1224186D01*
X1231947Y1224136D01*
X1232031Y1224082D01*
X1232113Y1224025D01*
X1232192Y1223965D01*
X1232270Y1223901D01*
X1232344Y1223835D01*
X1232416Y1223766D01*
X1232485Y1223694D01*
X1232551Y1223620D01*
X1232615Y1223542D01*
X1232675Y1223463D01*
X1232732Y1223381D01*
X1232786Y1223297D01*
X1232836Y1223211D01*
X1232883Y1223123D01*
X1232927Y1223033D01*
X1232967Y1222942D01*
X1233003Y1222849D01*
X1233036Y1222755D01*
X1233065Y1222659D01*
X1233090Y1222563D01*
X1233111Y1222466D01*
X1233129Y1222367D01*
X1233142Y1222269D01*
X1233152Y1222169D01*
X1233158Y1222070D01*
X1233160Y1221970D01*
X1233160Y1194030D02*
X1233158Y1193930D01*
X1233152Y1193831D01*
X1233142Y1193731D01*
X1233129Y1193633D01*
X1233111Y1193534D01*
X1233090Y1193437D01*
X1233065Y1193341D01*
X1233036Y1193245D01*
X1233003Y1193151D01*
X1232967Y1193058D01*
X1232927Y1192967D01*
X1232883Y1192877D01*
X1232836Y1192789D01*
X1232786Y1192703D01*
X1232732Y1192619D01*
X1232675Y1192537D01*
X1232615Y1192458D01*
X1232551Y1192380D01*
X1232485Y1192306D01*
X1232416Y1192234D01*
X1232344Y1192165D01*
X1232270Y1192099D01*
X1232192Y1192035D01*
X1232113Y1191975D01*
X1232031Y1191918D01*
X1231947Y1191864D01*
X1231861Y1191814D01*
X1231773Y1191767D01*
X1231683Y1191723D01*
X1231592Y1191683D01*
X1231499Y1191647D01*
X1231405Y1191614D01*
X1231309Y1191585D01*
X1231213Y1191560D01*
X1231116Y1191539D01*
X1231017Y1191521D01*
X1230919Y1191508D01*
X1230819Y1191498D01*
X1230720Y1191492D01*
X1230620Y1191490D01*
X1215380Y1191490D02*
X1215280Y1191492D01*
X1215181Y1191498D01*
X1215081Y1191508D01*
X1214983Y1191521D01*
X1214884Y1191539D01*
X1214787Y1191560D01*
X1214691Y1191585D01*
X1214595Y1191614D01*
X1214501Y1191647D01*
X1214408Y1191683D01*
X1214317Y1191723D01*
X1214227Y1191767D01*
X1214139Y1191814D01*
X1214053Y1191864D01*
X1213969Y1191918D01*
X1213887Y1191975D01*
X1213808Y1192035D01*
X1213730Y1192099D01*
X1213656Y1192165D01*
X1213584Y1192234D01*
X1213515Y1192306D01*
X1213449Y1192380D01*
X1213385Y1192458D01*
X1213325Y1192537D01*
X1213268Y1192619D01*
X1213214Y1192703D01*
X1213164Y1192789D01*
X1213117Y1192877D01*
X1213073Y1192967D01*
X1213033Y1193058D01*
X1212997Y1193151D01*
X1212964Y1193245D01*
X1212935Y1193341D01*
X1212910Y1193437D01*
X1212889Y1193534D01*
X1212871Y1193633D01*
X1212858Y1193731D01*
X1212848Y1193831D01*
X1212842Y1193930D01*
X1212840Y1194030D01*
X1212840Y1221970D02*
X1212842Y1222070D01*
X1212848Y1222169D01*
X1212858Y1222269D01*
X1212871Y1222367D01*
X1212889Y1222466D01*
X1212910Y1222563D01*
X1212935Y1222659D01*
X1212964Y1222755D01*
X1212997Y1222849D01*
X1213033Y1222942D01*
X1213073Y1223033D01*
X1213117Y1223123D01*
X1213164Y1223211D01*
X1213214Y1223297D01*
X1213268Y1223381D01*
X1213325Y1223463D01*
X1213385Y1223542D01*
X1213449Y1223620D01*
X1213515Y1223694D01*
X1213584Y1223766D01*
X1213656Y1223835D01*
X1213730Y1223901D01*
X1213808Y1223965D01*
X1213887Y1224025D01*
X1213969Y1224082D01*
X1214053Y1224136D01*
X1214139Y1224186D01*
X1214227Y1224233D01*
X1214317Y1224277D01*
X1214408Y1224317D01*
X1214501Y1224353D01*
X1214595Y1224386D01*
X1214691Y1224415D01*
X1214787Y1224440D01*
X1214884Y1224461D01*
X1214983Y1224479D01*
X1215081Y1224492D01*
X1215181Y1224502D01*
X1215280Y1224508D01*
X1215380Y1224510D01*
X1230620Y1224510D01*
X1230620Y1191490D02*
X1215380Y1191490D01*
X1233160Y1194030D02*
X1233160Y1221970D01*
X1223000Y1223240D02*
X1223000Y1218160D01*
X1223000Y1197840D02*
X1223000Y1192760D01*
D11*
X1216044Y1204826D02*
X1223000Y1205459D01*
X1223000Y1205459D01*
X1229956Y1204826D01*
X1229939Y1204656D01*
X1229917Y1204486D01*
X1229891Y1204318D01*
X1229861Y1204149D01*
X1229827Y1203982D01*
X1229789Y1203815D01*
X1229746Y1203650D01*
X1229700Y1203485D01*
X1229650Y1203322D01*
X1229596Y1203160D01*
X1229537Y1202999D01*
X1229475Y1202840D01*
X1229409Y1202683D01*
X1229339Y1202527D01*
X1229266Y1202373D01*
X1229188Y1202220D01*
X1229107Y1202070D01*
X1229022Y1201922D01*
X1228934Y1201775D01*
X1228842Y1201631D01*
X1228747Y1201490D01*
X1228648Y1201350D01*
X1228546Y1201213D01*
X1228440Y1201079D01*
X1228331Y1200947D01*
X1228219Y1200818D01*
X1228104Y1200692D01*
X1227986Y1200568D01*
X1227865Y1200448D01*
X1227741Y1200330D01*
X1227614Y1200216D01*
X1227485Y1200105D01*
X1227352Y1199997D01*
X1227217Y1199892D01*
X1227080Y1199790D01*
X1226940Y1199692D01*
X1226798Y1199598D01*
X1226653Y1199506D01*
X1226506Y1199419D01*
X1226358Y1199335D01*
X1226207Y1199255D01*
X1226054Y1199178D01*
X1225900Y1199105D01*
X1225743Y1199036D01*
X1225585Y1198971D01*
X1225426Y1198910D01*
X1225265Y1198852D01*
X1225103Y1198799D01*
X1224939Y1198750D01*
X1224774Y1198704D01*
X1224609Y1198663D01*
X1224442Y1198625D01*
X1224274Y1198592D01*
X1224106Y1198563D01*
X1223937Y1198538D01*
X1223767Y1198517D01*
X1223597Y1198501D01*
X1223427Y1198488D01*
X1223256Y1198480D01*
X1223085Y1198476D01*
X1222915Y1198476D01*
X1222744Y1198480D01*
X1222573Y1198488D01*
X1222403Y1198501D01*
X1222233Y1198517D01*
X1222063Y1198538D01*
X1221894Y1198563D01*
X1221726Y1198592D01*
X1221558Y1198625D01*
X1221391Y1198663D01*
X1221226Y1198704D01*
X1221061Y1198750D01*
X1220897Y1198799D01*
X1220735Y1198852D01*
X1220574Y1198910D01*
X1220415Y1198971D01*
X1220257Y1199036D01*
X1220100Y1199105D01*
X1219946Y1199178D01*
X1219793Y1199255D01*
X1219642Y1199335D01*
X1219494Y1199419D01*
X1219347Y1199506D01*
X1219202Y1199598D01*
X1219060Y1199692D01*
X1218920Y1199790D01*
X1218783Y1199892D01*
X1218648Y1199997D01*
X1218515Y1200105D01*
X1218386Y1200216D01*
X1218259Y1200330D01*
X1218135Y1200448D01*
X1218014Y1200568D01*
X1217896Y1200692D01*
X1217781Y1200818D01*
X1217669Y1200947D01*
X1217560Y1201079D01*
X1217454Y1201213D01*
X1217352Y1201350D01*
X1217253Y1201490D01*
X1217158Y1201631D01*
X1217066Y1201775D01*
X1216978Y1201922D01*
X1216893Y1202070D01*
X1216812Y1202220D01*
X1216734Y1202373D01*
X1216661Y1202527D01*
X1216591Y1202683D01*
X1216525Y1202840D01*
X1216463Y1202999D01*
X1216404Y1203160D01*
X1216350Y1203322D01*
X1216300Y1203485D01*
X1216254Y1203650D01*
X1216211Y1203815D01*
X1216173Y1203982D01*
X1216139Y1204149D01*
X1216109Y1204318D01*
X1216083Y1204486D01*
X1216061Y1204656D01*
X1216044Y1204826D01*
X1217256Y1204826D01*
X1217274Y1204677D01*
X1217297Y1204528D01*
X1217323Y1204379D01*
X1217353Y1204231D01*
X1217387Y1204085D01*
X1217425Y1203939D01*
X1217466Y1203794D01*
X1217512Y1203650D01*
X1217561Y1203507D01*
X1217614Y1203366D01*
X1217670Y1203226D01*
X1217730Y1203088D01*
X1217794Y1202951D01*
X1217861Y1202816D01*
X1217932Y1202683D01*
X1218006Y1202552D01*
X1218083Y1202423D01*
X1218164Y1202296D01*
X1218249Y1202171D01*
X1218336Y1202048D01*
X1218427Y1201927D01*
X1218520Y1201809D01*
X1218617Y1201693D01*
X1218717Y1201580D01*
X1218819Y1201470D01*
X1218925Y1201362D01*
X1219033Y1201257D01*
X1219144Y1201155D01*
X1219258Y1201056D01*
X1219374Y1200960D01*
X1219493Y1200867D01*
X1219614Y1200777D01*
X1219737Y1200690D01*
X1219862Y1200607D01*
X1219990Y1200527D01*
X1220120Y1200450D01*
X1220251Y1200376D01*
X1220385Y1200307D01*
X1220520Y1200240D01*
X1220657Y1200177D01*
X1220796Y1200118D01*
X1220936Y1200062D01*
X1221077Y1200010D01*
X1221220Y1199962D01*
X1221364Y1199917D01*
X1221509Y1199877D01*
X1221656Y1199840D01*
X1221803Y1199806D01*
X1221951Y1199777D01*
X1222099Y1199752D01*
X1222248Y1199730D01*
X1222398Y1199712D01*
X1222548Y1199699D01*
X1222699Y1199689D01*
X1222849Y1199683D01*
X1223000Y1199681D01*
X1223151Y1199683D01*
X1223301Y1199689D01*
X1223452Y1199699D01*
X1223602Y1199712D01*
X1223752Y1199730D01*
X1223901Y1199752D01*
X1224049Y1199777D01*
X1224197Y1199806D01*
X1224344Y1199840D01*
X1224491Y1199877D01*
X1224636Y1199917D01*
X1224780Y1199962D01*
X1224923Y1200010D01*
X1225064Y1200062D01*
X1225204Y1200118D01*
X1225343Y1200177D01*
X1225480Y1200240D01*
X1225615Y1200307D01*
X1225749Y1200376D01*
X1225880Y1200450D01*
X1226010Y1200527D01*
X1226138Y1200607D01*
X1226263Y1200690D01*
X1226386Y1200777D01*
X1226507Y1200867D01*
X1226626Y1200960D01*
X1226742Y1201056D01*
X1226856Y1201155D01*
X1226967Y1201257D01*
X1227075Y1201362D01*
X1227181Y1201470D01*
X1227283Y1201580D01*
X1227383Y1201693D01*
X1227480Y1201809D01*
X1227573Y1201927D01*
X1227664Y1202048D01*
X1227751Y1202171D01*
X1227836Y1202296D01*
X1227917Y1202423D01*
X1227994Y1202552D01*
X1228068Y1202683D01*
X1228139Y1202816D01*
X1228206Y1202951D01*
X1228270Y1203088D01*
X1228330Y1203226D01*
X1228386Y1203366D01*
X1228439Y1203507D01*
X1228488Y1203650D01*
X1228534Y1203794D01*
X1228575Y1203939D01*
X1228613Y1204085D01*
X1228647Y1204231D01*
X1228677Y1204379D01*
X1228703Y1204528D01*
X1228726Y1204677D01*
X1228744Y1204826D01*
X1227529Y1204827D01*
X1227509Y1204695D01*
X1227484Y1204564D01*
X1227456Y1204433D01*
X1227424Y1204303D01*
X1227389Y1204174D01*
X1227349Y1204047D01*
X1227306Y1203920D01*
X1227259Y1203795D01*
X1227209Y1203671D01*
X1227155Y1203549D01*
X1227097Y1203429D01*
X1227036Y1203310D01*
X1226971Y1203193D01*
X1226903Y1203078D01*
X1226832Y1202965D01*
X1226758Y1202854D01*
X1226680Y1202745D01*
X1226599Y1202639D01*
X1226515Y1202535D01*
X1226428Y1202433D01*
X1226338Y1202334D01*
X1226245Y1202238D01*
X1226150Y1202145D01*
X1226052Y1202054D01*
X1225951Y1201966D01*
X1225847Y1201882D01*
X1225742Y1201800D01*
X1225634Y1201721D01*
X1225523Y1201646D01*
X1225411Y1201574D01*
X1225296Y1201505D01*
X1225180Y1201440D01*
X1225061Y1201378D01*
X1224941Y1201319D01*
X1224819Y1201264D01*
X1224696Y1201213D01*
X1224571Y1201165D01*
X1224445Y1201121D01*
X1224317Y1201081D01*
X1224189Y1201044D01*
X1224059Y1201011D01*
X1223929Y1200982D01*
X1223798Y1200957D01*
X1223666Y1200936D01*
X1223533Y1200918D01*
X1223400Y1200905D01*
X1223267Y1200895D01*
X1223134Y1200889D01*
X1223000Y1200887D01*
X1222866Y1200889D01*
X1222733Y1200895D01*
X1222600Y1200905D01*
X1222467Y1200918D01*
X1222334Y1200936D01*
X1222202Y1200957D01*
X1222071Y1200982D01*
X1221941Y1201011D01*
X1221811Y1201044D01*
X1221683Y1201081D01*
X1221555Y1201121D01*
X1221429Y1201165D01*
X1221304Y1201213D01*
X1221181Y1201264D01*
X1221059Y1201319D01*
X1220939Y1201378D01*
X1220820Y1201440D01*
X1220704Y1201505D01*
X1220589Y1201574D01*
X1220477Y1201646D01*
X1220366Y1201721D01*
X1220258Y1201800D01*
X1220153Y1201882D01*
X1220049Y1201966D01*
X1219948Y1202054D01*
X1219850Y1202145D01*
X1219755Y1202238D01*
X1219662Y1202334D01*
X1219572Y1202433D01*
X1219485Y1202535D01*
X1219401Y1202639D01*
X1219320Y1202745D01*
X1219242Y1202854D01*
X1219168Y1202965D01*
X1219097Y1203078D01*
X1219029Y1203193D01*
X1218964Y1203310D01*
X1218903Y1203429D01*
X1218845Y1203549D01*
X1218791Y1203671D01*
X1218741Y1203795D01*
X1218694Y1203920D01*
X1218651Y1204047D01*
X1218611Y1204174D01*
X1218576Y1204303D01*
X1218544Y1204433D01*
X1218516Y1204564D01*
X1218491Y1204695D01*
X1218471Y1204827D01*
X1219693Y1204829D01*
X1219716Y1204716D01*
X1219743Y1204605D01*
X1219775Y1204494D01*
X1219809Y1204385D01*
X1219848Y1204276D01*
X1219890Y1204169D01*
X1219936Y1204064D01*
X1219985Y1203960D01*
X1220038Y1203858D01*
X1220095Y1203758D01*
X1220154Y1203660D01*
X1220218Y1203564D01*
X1220284Y1203470D01*
X1220353Y1203379D01*
X1220426Y1203290D01*
X1220501Y1203203D01*
X1220580Y1203119D01*
X1220661Y1203038D01*
X1220745Y1202959D01*
X1220832Y1202884D01*
X1220921Y1202811D01*
X1221013Y1202742D01*
X1221107Y1202676D01*
X1221203Y1202613D01*
X1221301Y1202553D01*
X1221401Y1202497D01*
X1221503Y1202444D01*
X1221607Y1202395D01*
X1221712Y1202349D01*
X1221819Y1202307D01*
X1221927Y1202268D01*
X1222037Y1202234D01*
X1222148Y1202203D01*
X1222259Y1202176D01*
X1222372Y1202152D01*
X1222485Y1202133D01*
X1222599Y1202117D01*
X1222713Y1202105D01*
X1222828Y1202097D01*
X1222943Y1202093D01*
X1223057Y1202093D01*
X1223172Y1202097D01*
X1223287Y1202105D01*
X1223401Y1202117D01*
X1223515Y1202133D01*
X1223628Y1202152D01*
X1223741Y1202176D01*
X1223852Y1202203D01*
X1223963Y1202234D01*
X1224073Y1202268D01*
X1224181Y1202307D01*
X1224288Y1202349D01*
X1224393Y1202395D01*
X1224497Y1202444D01*
X1224599Y1202497D01*
X1224699Y1202553D01*
X1224797Y1202613D01*
X1224893Y1202676D01*
X1224987Y1202742D01*
X1225079Y1202811D01*
X1225168Y1202884D01*
X1225255Y1202959D01*
X1225339Y1203038D01*
X1225420Y1203119D01*
X1225499Y1203203D01*
X1225574Y1203290D01*
X1225647Y1203379D01*
X1225716Y1203470D01*
X1225782Y1203564D01*
X1225846Y1203660D01*
X1225905Y1203758D01*
X1225962Y1203858D01*
X1226015Y1203960D01*
X1226064Y1204064D01*
X1226110Y1204169D01*
X1226152Y1204276D01*
X1226191Y1204385D01*
X1226225Y1204494D01*
X1226257Y1204605D01*
X1226284Y1204716D01*
X1226307Y1204829D01*
X1225068Y1204834D01*
X1225040Y1204747D01*
X1225008Y1204660D01*
X1224972Y1204576D01*
X1224932Y1204493D01*
X1224890Y1204411D01*
X1224843Y1204332D01*
X1224793Y1204254D01*
X1224741Y1204179D01*
X1224684Y1204106D01*
X1224625Y1204036D01*
X1224563Y1203968D01*
X1224498Y1203903D01*
X1224431Y1203840D01*
X1224361Y1203781D01*
X1224288Y1203725D01*
X1224213Y1203671D01*
X1224136Y1203621D01*
X1224056Y1203575D01*
X1223975Y1203532D01*
X1223892Y1203492D01*
X1223808Y1203456D01*
X1223722Y1203423D01*
X1223634Y1203394D01*
X1223546Y1203369D01*
X1223456Y1203348D01*
X1223366Y1203330D01*
X1223275Y1203317D01*
X1223184Y1203307D01*
X1223092Y1203301D01*
X1223000Y1203299D01*
X1222908Y1203301D01*
X1222816Y1203307D01*
X1222725Y1203317D01*
X1222634Y1203330D01*
X1222544Y1203348D01*
X1222454Y1203369D01*
X1222366Y1203394D01*
X1222278Y1203423D01*
X1222192Y1203456D01*
X1222108Y1203492D01*
X1222025Y1203532D01*
X1221944Y1203575D01*
X1221864Y1203621D01*
X1221787Y1203671D01*
X1221712Y1203725D01*
X1221639Y1203781D01*
X1221569Y1203840D01*
X1221502Y1203903D01*
X1221437Y1203968D01*
X1221375Y1204036D01*
X1221316Y1204106D01*
X1221259Y1204179D01*
X1221207Y1204254D01*
X1221157Y1204332D01*
X1221110Y1204411D01*
X1221068Y1204493D01*
X1221028Y1204576D01*
X1220992Y1204660D01*
X1220960Y1204747D01*
X1220932Y1204834D01*
X1222248Y1204871D01*
X1222287Y1204825D01*
X1222328Y1204782D01*
X1222371Y1204741D01*
X1222418Y1204703D01*
X1222466Y1204668D01*
X1222516Y1204637D01*
X1222569Y1204608D01*
X1222623Y1204583D01*
X1222678Y1204561D01*
X1222735Y1204542D01*
X1222793Y1204528D01*
X1222851Y1204517D01*
X1222911Y1204509D01*
X1222970Y1204505D01*
X1223030Y1204505D01*
X1223089Y1204509D01*
X1223149Y1204517D01*
X1223207Y1204528D01*
X1223265Y1204542D01*
X1223322Y1204561D01*
X1223377Y1204583D01*
X1223431Y1204608D01*
X1223484Y1204637D01*
X1223534Y1204668D01*
X1223582Y1204703D01*
X1223629Y1204741D01*
X1223672Y1204782D01*
X1223713Y1204825D01*
X1223752Y1204871D01*
X1229956Y1211174D02*
X1223000Y1210541D01*
X1223000Y1210541D01*
X1216044Y1211174D01*
X1216061Y1211344D01*
X1216083Y1211514D01*
X1216109Y1211682D01*
X1216139Y1211851D01*
X1216173Y1212018D01*
X1216211Y1212185D01*
X1216254Y1212350D01*
X1216300Y1212515D01*
X1216350Y1212678D01*
X1216404Y1212840D01*
X1216463Y1213001D01*
X1216525Y1213160D01*
X1216591Y1213317D01*
X1216661Y1213473D01*
X1216734Y1213627D01*
X1216812Y1213780D01*
X1216893Y1213930D01*
X1216978Y1214078D01*
X1217066Y1214225D01*
X1217158Y1214369D01*
X1217253Y1214510D01*
X1217352Y1214650D01*
X1217454Y1214787D01*
X1217560Y1214921D01*
X1217669Y1215053D01*
X1217781Y1215182D01*
X1217896Y1215308D01*
X1218014Y1215432D01*
X1218135Y1215552D01*
X1218259Y1215670D01*
X1218386Y1215784D01*
X1218515Y1215895D01*
X1218648Y1216003D01*
X1218783Y1216108D01*
X1218920Y1216210D01*
X1219060Y1216308D01*
X1219202Y1216402D01*
X1219347Y1216494D01*
X1219494Y1216581D01*
X1219642Y1216665D01*
X1219793Y1216745D01*
X1219946Y1216822D01*
X1220100Y1216895D01*
X1220257Y1216964D01*
X1220415Y1217029D01*
X1220574Y1217090D01*
X1220735Y1217148D01*
X1220897Y1217201D01*
X1221061Y1217250D01*
X1221226Y1217296D01*
X1221391Y1217337D01*
X1221558Y1217375D01*
X1221726Y1217408D01*
X1221894Y1217437D01*
X1222063Y1217462D01*
X1222233Y1217483D01*
X1222403Y1217499D01*
X1222573Y1217512D01*
X1222744Y1217520D01*
X1222915Y1217524D01*
X1223085Y1217524D01*
X1223256Y1217520D01*
X1223427Y1217512D01*
X1223597Y1217499D01*
X1223767Y1217483D01*
X1223937Y1217462D01*
X1224106Y1217437D01*
X1224274Y1217408D01*
X1224442Y1217375D01*
X1224609Y1217337D01*
X1224774Y1217296D01*
X1224939Y1217250D01*
X1225103Y1217201D01*
X1225265Y1217148D01*
X1225426Y1217090D01*
X1225585Y1217029D01*
X1225743Y1216964D01*
X1225900Y1216895D01*
X1226054Y1216822D01*
X1226207Y1216745D01*
X1226358Y1216665D01*
X1226506Y1216581D01*
X1226653Y1216494D01*
X1226798Y1216402D01*
X1226940Y1216308D01*
X1227080Y1216210D01*
X1227217Y1216108D01*
X1227352Y1216003D01*
X1227485Y1215895D01*
X1227614Y1215784D01*
X1227741Y1215670D01*
X1227865Y1215552D01*
X1227986Y1215432D01*
X1228104Y1215308D01*
X1228219Y1215182D01*
X1228331Y1215053D01*
X1228440Y1214921D01*
X1228546Y1214787D01*
X1228648Y1214650D01*
X1228747Y1214510D01*
X1228842Y1214369D01*
X1228934Y1214225D01*
X1229022Y1214078D01*
X1229107Y1213930D01*
X1229188Y1213780D01*
X1229266Y1213627D01*
X1229339Y1213473D01*
X1229409Y1213317D01*
X1229475Y1213160D01*
X1229537Y1213001D01*
X1229596Y1212840D01*
X1229650Y1212678D01*
X1229700Y1212515D01*
X1229746Y1212350D01*
X1229789Y1212185D01*
X1229827Y1212018D01*
X1229861Y1211851D01*
X1229891Y1211682D01*
X1229917Y1211514D01*
X1229939Y1211344D01*
X1229956Y1211174D01*
X1228744Y1211174D01*
X1228726Y1211323D01*
X1228703Y1211472D01*
X1228677Y1211621D01*
X1228647Y1211769D01*
X1228613Y1211915D01*
X1228575Y1212061D01*
X1228534Y1212206D01*
X1228488Y1212350D01*
X1228439Y1212493D01*
X1228386Y1212634D01*
X1228330Y1212774D01*
X1228270Y1212912D01*
X1228206Y1213049D01*
X1228139Y1213184D01*
X1228068Y1213317D01*
X1227994Y1213448D01*
X1227917Y1213577D01*
X1227836Y1213704D01*
X1227751Y1213829D01*
X1227664Y1213952D01*
X1227573Y1214073D01*
X1227480Y1214191D01*
X1227383Y1214307D01*
X1227283Y1214420D01*
X1227181Y1214530D01*
X1227075Y1214638D01*
X1226967Y1214743D01*
X1226856Y1214845D01*
X1226742Y1214944D01*
X1226626Y1215040D01*
X1226507Y1215133D01*
X1226386Y1215223D01*
X1226263Y1215310D01*
X1226138Y1215393D01*
X1226010Y1215473D01*
X1225880Y1215550D01*
X1225749Y1215624D01*
X1225615Y1215693D01*
X1225480Y1215760D01*
X1225343Y1215823D01*
X1225204Y1215882D01*
X1225064Y1215938D01*
X1224923Y1215990D01*
X1224780Y1216038D01*
X1224636Y1216083D01*
X1224491Y1216123D01*
X1224344Y1216160D01*
X1224197Y1216194D01*
X1224049Y1216223D01*
X1223901Y1216248D01*
X1223752Y1216270D01*
X1223602Y1216288D01*
X1223452Y1216301D01*
X1223301Y1216311D01*
X1223151Y1216317D01*
X1223000Y1216319D01*
X1222849Y1216317D01*
X1222699Y1216311D01*
X1222548Y1216301D01*
X1222398Y1216288D01*
X1222248Y1216270D01*
X1222099Y1216248D01*
X1221951Y1216223D01*
X1221803Y1216194D01*
X1221656Y1216160D01*
X1221509Y1216123D01*
X1221364Y1216083D01*
X1221220Y1216038D01*
X1221077Y1215990D01*
X1220936Y1215938D01*
X1220796Y1215882D01*
X1220657Y1215823D01*
X1220520Y1215760D01*
X1220385Y1215693D01*
X1220251Y1215624D01*
X1220120Y1215550D01*
X1219990Y1215473D01*
X1219862Y1215393D01*
X1219737Y1215310D01*
X1219614Y1215223D01*
X1219493Y1215133D01*
X1219374Y1215040D01*
X1219258Y1214944D01*
X1219144Y1214845D01*
X1219033Y1214743D01*
X1218925Y1214638D01*
X1218819Y1214530D01*
X1218717Y1214420D01*
X1218617Y1214307D01*
X1218520Y1214191D01*
X1218427Y1214073D01*
X1218336Y1213952D01*
X1218249Y1213829D01*
X1218164Y1213704D01*
X1218083Y1213577D01*
X1218006Y1213448D01*
X1217932Y1213317D01*
X1217861Y1213184D01*
X1217794Y1213049D01*
X1217730Y1212912D01*
X1217670Y1212774D01*
X1217614Y1212634D01*
X1217561Y1212493D01*
X1217512Y1212350D01*
X1217466Y1212206D01*
X1217425Y1212061D01*
X1217387Y1211915D01*
X1217353Y1211769D01*
X1217323Y1211621D01*
X1217297Y1211472D01*
X1217274Y1211323D01*
X1217256Y1211174D01*
X1218471Y1211173D01*
X1218491Y1211305D01*
X1218516Y1211436D01*
X1218544Y1211567D01*
X1218576Y1211697D01*
X1218611Y1211826D01*
X1218651Y1211953D01*
X1218694Y1212080D01*
X1218741Y1212205D01*
X1218791Y1212329D01*
X1218845Y1212451D01*
X1218903Y1212571D01*
X1218964Y1212690D01*
X1219029Y1212807D01*
X1219097Y1212922D01*
X1219168Y1213035D01*
X1219242Y1213146D01*
X1219320Y1213255D01*
X1219401Y1213361D01*
X1219485Y1213465D01*
X1219572Y1213567D01*
X1219662Y1213666D01*
X1219755Y1213762D01*
X1219850Y1213855D01*
X1219948Y1213946D01*
X1220049Y1214034D01*
X1220153Y1214118D01*
X1220258Y1214200D01*
X1220366Y1214279D01*
X1220477Y1214354D01*
X1220589Y1214426D01*
X1220704Y1214495D01*
X1220820Y1214560D01*
X1220939Y1214622D01*
X1221059Y1214681D01*
X1221181Y1214736D01*
X1221304Y1214787D01*
X1221429Y1214835D01*
X1221555Y1214879D01*
X1221683Y1214919D01*
X1221811Y1214956D01*
X1221941Y1214989D01*
X1222071Y1215018D01*
X1222202Y1215043D01*
X1222334Y1215064D01*
X1222467Y1215082D01*
X1222600Y1215095D01*
X1222733Y1215105D01*
X1222866Y1215111D01*
X1223000Y1215113D01*
X1223134Y1215111D01*
X1223267Y1215105D01*
X1223400Y1215095D01*
X1223533Y1215082D01*
X1223666Y1215064D01*
X1223798Y1215043D01*
X1223929Y1215018D01*
X1224059Y1214989D01*
X1224189Y1214956D01*
X1224317Y1214919D01*
X1224445Y1214879D01*
X1224571Y1214835D01*
X1224696Y1214787D01*
X1224819Y1214736D01*
X1224941Y1214681D01*
X1225061Y1214622D01*
X1225180Y1214560D01*
X1225296Y1214495D01*
X1225411Y1214426D01*
X1225523Y1214354D01*
X1225634Y1214279D01*
X1225742Y1214200D01*
X1225847Y1214118D01*
X1225951Y1214034D01*
X1226052Y1213946D01*
X1226150Y1213855D01*
X1226245Y1213762D01*
X1226338Y1213666D01*
X1226428Y1213567D01*
X1226515Y1213465D01*
X1226599Y1213361D01*
X1226680Y1213255D01*
X1226758Y1213146D01*
X1226832Y1213035D01*
X1226903Y1212922D01*
X1226971Y1212807D01*
X1227036Y1212690D01*
X1227097Y1212571D01*
X1227155Y1212451D01*
X1227209Y1212329D01*
X1227259Y1212205D01*
X1227306Y1212080D01*
X1227349Y1211953D01*
X1227389Y1211826D01*
X1227424Y1211697D01*
X1227456Y1211567D01*
X1227484Y1211436D01*
X1227509Y1211305D01*
X1227529Y1211173D01*
X1226307Y1211171D01*
X1226284Y1211284D01*
X1226257Y1211395D01*
X1226225Y1211506D01*
X1226191Y1211615D01*
X1226152Y1211724D01*
X1226110Y1211831D01*
X1226064Y1211936D01*
X1226015Y1212040D01*
X1225962Y1212142D01*
X1225905Y1212242D01*
X1225846Y1212340D01*
X1225782Y1212436D01*
X1225716Y1212530D01*
X1225647Y1212621D01*
X1225574Y1212710D01*
X1225499Y1212797D01*
X1225420Y1212881D01*
X1225339Y1212962D01*
X1225255Y1213041D01*
X1225168Y1213116D01*
X1225079Y1213189D01*
X1224987Y1213258D01*
X1224893Y1213324D01*
X1224797Y1213387D01*
X1224699Y1213447D01*
X1224599Y1213503D01*
X1224497Y1213556D01*
X1224393Y1213605D01*
X1224288Y1213651D01*
X1224181Y1213693D01*
X1224073Y1213732D01*
X1223963Y1213766D01*
X1223852Y1213797D01*
X1223741Y1213824D01*
X1223628Y1213848D01*
X1223515Y1213867D01*
X1223401Y1213883D01*
X1223287Y1213895D01*
X1223172Y1213903D01*
X1223057Y1213907D01*
X1222943Y1213907D01*
X1222828Y1213903D01*
X1222713Y1213895D01*
X1222599Y1213883D01*
X1222485Y1213867D01*
X1222372Y1213848D01*
X1222259Y1213824D01*
X1222148Y1213797D01*
X1222037Y1213766D01*
X1221927Y1213732D01*
X1221819Y1213693D01*
X1221712Y1213651D01*
X1221607Y1213605D01*
X1221503Y1213556D01*
X1221401Y1213503D01*
X1221301Y1213447D01*
X1221203Y1213387D01*
X1221107Y1213324D01*
X1221013Y1213258D01*
X1220921Y1213189D01*
X1220832Y1213116D01*
X1220745Y1213041D01*
X1220661Y1212962D01*
X1220580Y1212881D01*
X1220501Y1212797D01*
X1220426Y1212710D01*
X1220353Y1212621D01*
X1220284Y1212530D01*
X1220218Y1212436D01*
X1220154Y1212340D01*
X1220095Y1212242D01*
X1220038Y1212142D01*
X1219985Y1212040D01*
X1219936Y1211936D01*
X1219890Y1211831D01*
X1219848Y1211724D01*
X1219809Y1211615D01*
X1219775Y1211506D01*
X1219743Y1211395D01*
X1219716Y1211284D01*
X1219693Y1211171D01*
X1220932Y1211166D01*
X1220960Y1211253D01*
X1220992Y1211340D01*
X1221028Y1211424D01*
X1221068Y1211507D01*
X1221110Y1211589D01*
X1221157Y1211668D01*
X1221207Y1211746D01*
X1221259Y1211821D01*
X1221316Y1211894D01*
X1221375Y1211964D01*
X1221437Y1212032D01*
X1221502Y1212097D01*
X1221569Y1212160D01*
X1221639Y1212219D01*
X1221712Y1212275D01*
X1221787Y1212329D01*
X1221864Y1212379D01*
X1221944Y1212425D01*
X1222025Y1212468D01*
X1222108Y1212508D01*
X1222192Y1212544D01*
X1222278Y1212577D01*
X1222366Y1212606D01*
X1222454Y1212631D01*
X1222544Y1212652D01*
X1222634Y1212670D01*
X1222725Y1212683D01*
X1222816Y1212693D01*
X1222908Y1212699D01*
X1223000Y1212701D01*
X1223092Y1212699D01*
X1223184Y1212693D01*
X1223275Y1212683D01*
X1223366Y1212670D01*
X1223456Y1212652D01*
X1223546Y1212631D01*
X1223634Y1212606D01*
X1223722Y1212577D01*
X1223808Y1212544D01*
X1223892Y1212508D01*
X1223975Y1212468D01*
X1224056Y1212425D01*
X1224136Y1212379D01*
X1224213Y1212329D01*
X1224288Y1212275D01*
X1224361Y1212219D01*
X1224431Y1212160D01*
X1224498Y1212097D01*
X1224563Y1212032D01*
X1224625Y1211964D01*
X1224684Y1211894D01*
X1224741Y1211821D01*
X1224793Y1211746D01*
X1224843Y1211668D01*
X1224890Y1211589D01*
X1224932Y1211507D01*
X1224972Y1211424D01*
X1225008Y1211340D01*
X1225040Y1211253D01*
X1225068Y1211166D01*
X1223752Y1211129D01*
X1223713Y1211175D01*
X1223672Y1211218D01*
X1223629Y1211259D01*
X1223582Y1211297D01*
X1223534Y1211332D01*
X1223484Y1211363D01*
X1223431Y1211392D01*
X1223377Y1211417D01*
X1223322Y1211439D01*
X1223265Y1211458D01*
X1223207Y1211472D01*
X1223149Y1211483D01*
X1223089Y1211491D01*
X1223030Y1211495D01*
X1222970Y1211495D01*
X1222911Y1211491D01*
X1222851Y1211483D01*
X1222793Y1211472D01*
X1222735Y1211458D01*
X1222678Y1211439D01*
X1222623Y1211417D01*
X1222569Y1211392D01*
X1222516Y1211363D01*
X1222466Y1211332D01*
X1222418Y1211297D01*
X1222371Y1211259D01*
X1222328Y1211218D01*
X1222287Y1211175D01*
X1222248Y1211129D01*
D12*
X1188680Y1063560D02*
X1188680Y1056440D01*
X1197190Y1056440D02*
X1197190Y1063560D01*
D13*
X1192949Y1065882D03*
X1192949Y1054198D03*
D12*
X1197320Y1220440D02*
X1197320Y1227560D01*
X1188810Y1227560D02*
X1188810Y1220440D01*
D13*
X1193051Y1218119D03*
X1193051Y1229803D03*
D12*
X1209320Y1227560D02*
X1209320Y1220440D01*
X1200810Y1220440D02*
X1200810Y1227560D01*
D13*
X1205051Y1218119D03*
X1205051Y1229803D03*
D12*
X1188680Y1195560D02*
X1188680Y1188440D01*
X1197190Y1188440D02*
X1197190Y1195560D01*
D13*
X1192949Y1197882D03*
X1192949Y1186198D03*
D12*
X1200680Y1188440D02*
X1200680Y1195560D01*
X1209190Y1195560D02*
X1209190Y1188440D01*
D13*
X1204949Y1197882D03*
X1204949Y1186198D03*
D12*
X1136560Y1134820D02*
X1129440Y1134820D01*
X1129440Y1126310D02*
X1136560Y1126310D01*
D14*
X1138882Y1130551D03*
X1127198Y1130551D03*
D12*
X1129440Y1199820D02*
X1136560Y1199820D01*
X1136560Y1191310D02*
X1129440Y1191310D01*
D14*
X1138882Y1195551D03*
X1127198Y1195551D03*
D12*
X1128440Y1222320D02*
X1135560Y1222320D01*
X1135560Y1213810D02*
X1128440Y1213810D01*
D14*
X1137882Y1218051D03*
X1126198Y1218051D03*
D12*
X1071180Y1211560D02*
X1071180Y1204440D01*
X1079690Y1204440D02*
X1079690Y1211560D01*
D13*
X1075449Y1213882D03*
X1075449Y1202198D03*
D12*
X1021180Y1204440D02*
X1021180Y1211560D01*
X1029690Y1211560D02*
X1029690Y1204440D01*
D13*
X1025449Y1213882D03*
X1025449Y1202198D03*
D12*
X971180Y1204440D02*
X971180Y1211560D01*
X979690Y1211560D02*
X979690Y1204440D01*
D13*
X975449Y1213882D03*
X975449Y1202198D03*
D12*
X989440Y1166180D02*
X996560Y1166180D01*
X996560Y1174690D02*
X989440Y1174690D01*
D14*
X987119Y1170449D03*
X998803Y1170449D03*
D12*
X987320Y1062560D02*
X987320Y1055440D01*
X978810Y1055440D02*
X978810Y1062560D01*
D13*
X983051Y1053119D03*
X983051Y1064803D03*
D12*
X1039820Y1064440D02*
X1039820Y1071560D01*
X1031310Y1071560D02*
X1031310Y1064440D01*
D13*
X1035551Y1062119D03*
X1035551Y1073803D03*
D12*
X1089820Y1071560D02*
X1089820Y1064440D01*
X1081310Y1064440D02*
X1081310Y1071560D01*
D13*
X1085551Y1062119D03*
X1085551Y1073803D03*
D12*
X1138440Y1062320D02*
X1145560Y1062320D01*
X1145560Y1053810D02*
X1138440Y1053810D01*
D14*
X1147882Y1058051D03*
X1136198Y1058051D03*
D10*
X910840Y1149030D02*
X910840Y1176970D01*
X928620Y1179510D02*
X928720Y1179508D01*
X928819Y1179502D01*
X928919Y1179492D01*
X929017Y1179479D01*
X929116Y1179461D01*
X929213Y1179440D01*
X929309Y1179415D01*
X929405Y1179386D01*
X929499Y1179353D01*
X929592Y1179317D01*
X929683Y1179277D01*
X929773Y1179233D01*
X929861Y1179186D01*
X929947Y1179136D01*
X930031Y1179082D01*
X930113Y1179025D01*
X930192Y1178965D01*
X930270Y1178901D01*
X930344Y1178835D01*
X930416Y1178766D01*
X930485Y1178694D01*
X930551Y1178620D01*
X930615Y1178542D01*
X930675Y1178463D01*
X930732Y1178381D01*
X930786Y1178297D01*
X930836Y1178211D01*
X930883Y1178123D01*
X930927Y1178033D01*
X930967Y1177942D01*
X931003Y1177849D01*
X931036Y1177755D01*
X931065Y1177659D01*
X931090Y1177563D01*
X931111Y1177466D01*
X931129Y1177367D01*
X931142Y1177269D01*
X931152Y1177169D01*
X931158Y1177070D01*
X931160Y1176970D01*
X931160Y1149030D02*
X931158Y1148930D01*
X931152Y1148831D01*
X931142Y1148731D01*
X931129Y1148633D01*
X931111Y1148534D01*
X931090Y1148437D01*
X931065Y1148341D01*
X931036Y1148245D01*
X931003Y1148151D01*
X930967Y1148058D01*
X930927Y1147967D01*
X930883Y1147877D01*
X930836Y1147789D01*
X930786Y1147703D01*
X930732Y1147619D01*
X930675Y1147537D01*
X930615Y1147458D01*
X930551Y1147380D01*
X930485Y1147306D01*
X930416Y1147234D01*
X930344Y1147165D01*
X930270Y1147099D01*
X930192Y1147035D01*
X930113Y1146975D01*
X930031Y1146918D01*
X929947Y1146864D01*
X929861Y1146814D01*
X929773Y1146767D01*
X929683Y1146723D01*
X929592Y1146683D01*
X929499Y1146647D01*
X929405Y1146614D01*
X929309Y1146585D01*
X929213Y1146560D01*
X929116Y1146539D01*
X929017Y1146521D01*
X928919Y1146508D01*
X928819Y1146498D01*
X928720Y1146492D01*
X928620Y1146490D01*
X913380Y1146490D02*
X913280Y1146492D01*
X913181Y1146498D01*
X913081Y1146508D01*
X912983Y1146521D01*
X912884Y1146539D01*
X912787Y1146560D01*
X912691Y1146585D01*
X912595Y1146614D01*
X912501Y1146647D01*
X912408Y1146683D01*
X912317Y1146723D01*
X912227Y1146767D01*
X912139Y1146814D01*
X912053Y1146864D01*
X911969Y1146918D01*
X911887Y1146975D01*
X911808Y1147035D01*
X911730Y1147099D01*
X911656Y1147165D01*
X911584Y1147234D01*
X911515Y1147306D01*
X911449Y1147380D01*
X911385Y1147458D01*
X911325Y1147537D01*
X911268Y1147619D01*
X911214Y1147703D01*
X911164Y1147789D01*
X911117Y1147877D01*
X911073Y1147967D01*
X911033Y1148058D01*
X910997Y1148151D01*
X910964Y1148245D01*
X910935Y1148341D01*
X910910Y1148437D01*
X910889Y1148534D01*
X910871Y1148633D01*
X910858Y1148731D01*
X910848Y1148831D01*
X910842Y1148930D01*
X910840Y1149030D01*
X910840Y1176970D02*
X910842Y1177070D01*
X910848Y1177169D01*
X910858Y1177269D01*
X910871Y1177367D01*
X910889Y1177466D01*
X910910Y1177563D01*
X910935Y1177659D01*
X910964Y1177755D01*
X910997Y1177849D01*
X911033Y1177942D01*
X911073Y1178033D01*
X911117Y1178123D01*
X911164Y1178211D01*
X911214Y1178297D01*
X911268Y1178381D01*
X911325Y1178463D01*
X911385Y1178542D01*
X911449Y1178620D01*
X911515Y1178694D01*
X911584Y1178766D01*
X911656Y1178835D01*
X911730Y1178901D01*
X911808Y1178965D01*
X911887Y1179025D01*
X911969Y1179082D01*
X912053Y1179136D01*
X912139Y1179186D01*
X912227Y1179233D01*
X912317Y1179277D01*
X912408Y1179317D01*
X912501Y1179353D01*
X912595Y1179386D01*
X912691Y1179415D01*
X912787Y1179440D01*
X912884Y1179461D01*
X912983Y1179479D01*
X913081Y1179492D01*
X913181Y1179502D01*
X913280Y1179508D01*
X913380Y1179510D01*
X928620Y1179510D01*
X928620Y1146490D02*
X913380Y1146490D01*
X931160Y1149030D02*
X931160Y1176970D01*
X921000Y1178240D02*
X921000Y1173160D01*
X921000Y1152840D02*
X921000Y1147760D01*
D11*
X914044Y1159826D02*
X921000Y1160459D01*
X921000Y1160459D01*
X927956Y1159826D01*
X927939Y1159656D01*
X927917Y1159486D01*
X927891Y1159318D01*
X927861Y1159149D01*
X927827Y1158982D01*
X927789Y1158815D01*
X927746Y1158650D01*
X927700Y1158485D01*
X927650Y1158322D01*
X927596Y1158160D01*
X927537Y1157999D01*
X927475Y1157840D01*
X927409Y1157683D01*
X927339Y1157527D01*
X927266Y1157373D01*
X927188Y1157220D01*
X927107Y1157070D01*
X927022Y1156922D01*
X926934Y1156775D01*
X926842Y1156631D01*
X926747Y1156490D01*
X926648Y1156350D01*
X926546Y1156213D01*
X926440Y1156079D01*
X926331Y1155947D01*
X926219Y1155818D01*
X926104Y1155692D01*
X925986Y1155568D01*
X925865Y1155448D01*
X925741Y1155330D01*
X925614Y1155216D01*
X925485Y1155105D01*
X925352Y1154997D01*
X925217Y1154892D01*
X925080Y1154790D01*
X924940Y1154692D01*
X924798Y1154598D01*
X924653Y1154506D01*
X924506Y1154419D01*
X924358Y1154335D01*
X924207Y1154255D01*
X924054Y1154178D01*
X923900Y1154105D01*
X923743Y1154036D01*
X923585Y1153971D01*
X923426Y1153910D01*
X923265Y1153852D01*
X923103Y1153799D01*
X922939Y1153750D01*
X922774Y1153704D01*
X922609Y1153663D01*
X922442Y1153625D01*
X922274Y1153592D01*
X922106Y1153563D01*
X921937Y1153538D01*
X921767Y1153517D01*
X921597Y1153501D01*
X921427Y1153488D01*
X921256Y1153480D01*
X921085Y1153476D01*
X920915Y1153476D01*
X920744Y1153480D01*
X920573Y1153488D01*
X920403Y1153501D01*
X920233Y1153517D01*
X920063Y1153538D01*
X919894Y1153563D01*
X919726Y1153592D01*
X919558Y1153625D01*
X919391Y1153663D01*
X919226Y1153704D01*
X919061Y1153750D01*
X918897Y1153799D01*
X918735Y1153852D01*
X918574Y1153910D01*
X918415Y1153971D01*
X918257Y1154036D01*
X918100Y1154105D01*
X917946Y1154178D01*
X917793Y1154255D01*
X917642Y1154335D01*
X917494Y1154419D01*
X917347Y1154506D01*
X917202Y1154598D01*
X917060Y1154692D01*
X916920Y1154790D01*
X916783Y1154892D01*
X916648Y1154997D01*
X916515Y1155105D01*
X916386Y1155216D01*
X916259Y1155330D01*
X916135Y1155448D01*
X916014Y1155568D01*
X915896Y1155692D01*
X915781Y1155818D01*
X915669Y1155947D01*
X915560Y1156079D01*
X915454Y1156213D01*
X915352Y1156350D01*
X915253Y1156490D01*
X915158Y1156631D01*
X915066Y1156775D01*
X914978Y1156922D01*
X914893Y1157070D01*
X914812Y1157220D01*
X914734Y1157373D01*
X914661Y1157527D01*
X914591Y1157683D01*
X914525Y1157840D01*
X914463Y1157999D01*
X914404Y1158160D01*
X914350Y1158322D01*
X914300Y1158485D01*
X914254Y1158650D01*
X914211Y1158815D01*
X914173Y1158982D01*
X914139Y1159149D01*
X914109Y1159318D01*
X914083Y1159486D01*
X914061Y1159656D01*
X914044Y1159826D01*
X915256Y1159826D01*
X915274Y1159677D01*
X915297Y1159528D01*
X915323Y1159379D01*
X915353Y1159231D01*
X915387Y1159085D01*
X915425Y1158939D01*
X915466Y1158794D01*
X915512Y1158650D01*
X915561Y1158507D01*
X915614Y1158366D01*
X915670Y1158226D01*
X915730Y1158088D01*
X915794Y1157951D01*
X915861Y1157816D01*
X915932Y1157683D01*
X916006Y1157552D01*
X916083Y1157423D01*
X916164Y1157296D01*
X916249Y1157171D01*
X916336Y1157048D01*
X916427Y1156927D01*
X916520Y1156809D01*
X916617Y1156693D01*
X916717Y1156580D01*
X916819Y1156470D01*
X916925Y1156362D01*
X917033Y1156257D01*
X917144Y1156155D01*
X917258Y1156056D01*
X917374Y1155960D01*
X917493Y1155867D01*
X917614Y1155777D01*
X917737Y1155690D01*
X917862Y1155607D01*
X917990Y1155527D01*
X918120Y1155450D01*
X918251Y1155376D01*
X918385Y1155307D01*
X918520Y1155240D01*
X918657Y1155177D01*
X918796Y1155118D01*
X918936Y1155062D01*
X919077Y1155010D01*
X919220Y1154962D01*
X919364Y1154917D01*
X919509Y1154877D01*
X919656Y1154840D01*
X919803Y1154806D01*
X919951Y1154777D01*
X920099Y1154752D01*
X920248Y1154730D01*
X920398Y1154712D01*
X920548Y1154699D01*
X920699Y1154689D01*
X920849Y1154683D01*
X921000Y1154681D01*
X921151Y1154683D01*
X921301Y1154689D01*
X921452Y1154699D01*
X921602Y1154712D01*
X921752Y1154730D01*
X921901Y1154752D01*
X922049Y1154777D01*
X922197Y1154806D01*
X922344Y1154840D01*
X922491Y1154877D01*
X922636Y1154917D01*
X922780Y1154962D01*
X922923Y1155010D01*
X923064Y1155062D01*
X923204Y1155118D01*
X923343Y1155177D01*
X923480Y1155240D01*
X923615Y1155307D01*
X923749Y1155376D01*
X923880Y1155450D01*
X924010Y1155527D01*
X924138Y1155607D01*
X924263Y1155690D01*
X924386Y1155777D01*
X924507Y1155867D01*
X924626Y1155960D01*
X924742Y1156056D01*
X924856Y1156155D01*
X924967Y1156257D01*
X925075Y1156362D01*
X925181Y1156470D01*
X925283Y1156580D01*
X925383Y1156693D01*
X925480Y1156809D01*
X925573Y1156927D01*
X925664Y1157048D01*
X925751Y1157171D01*
X925836Y1157296D01*
X925917Y1157423D01*
X925994Y1157552D01*
X926068Y1157683D01*
X926139Y1157816D01*
X926206Y1157951D01*
X926270Y1158088D01*
X926330Y1158226D01*
X926386Y1158366D01*
X926439Y1158507D01*
X926488Y1158650D01*
X926534Y1158794D01*
X926575Y1158939D01*
X926613Y1159085D01*
X926647Y1159231D01*
X926677Y1159379D01*
X926703Y1159528D01*
X926726Y1159677D01*
X926744Y1159826D01*
X925529Y1159827D01*
X925509Y1159695D01*
X925484Y1159564D01*
X925456Y1159433D01*
X925424Y1159303D01*
X925389Y1159174D01*
X925349Y1159047D01*
X925306Y1158920D01*
X925259Y1158795D01*
X925209Y1158671D01*
X925155Y1158549D01*
X925097Y1158429D01*
X925036Y1158310D01*
X924971Y1158193D01*
X924903Y1158078D01*
X924832Y1157965D01*
X924758Y1157854D01*
X924680Y1157745D01*
X924599Y1157639D01*
X924515Y1157535D01*
X924428Y1157433D01*
X924338Y1157334D01*
X924245Y1157238D01*
X924150Y1157145D01*
X924052Y1157054D01*
X923951Y1156966D01*
X923847Y1156882D01*
X923742Y1156800D01*
X923634Y1156721D01*
X923523Y1156646D01*
X923411Y1156574D01*
X923296Y1156505D01*
X923180Y1156440D01*
X923061Y1156378D01*
X922941Y1156319D01*
X922819Y1156264D01*
X922696Y1156213D01*
X922571Y1156165D01*
X922445Y1156121D01*
X922317Y1156081D01*
X922189Y1156044D01*
X922059Y1156011D01*
X921929Y1155982D01*
X921798Y1155957D01*
X921666Y1155936D01*
X921533Y1155918D01*
X921400Y1155905D01*
X921267Y1155895D01*
X921134Y1155889D01*
X921000Y1155887D01*
X920866Y1155889D01*
X920733Y1155895D01*
X920600Y1155905D01*
X920467Y1155918D01*
X920334Y1155936D01*
X920202Y1155957D01*
X920071Y1155982D01*
X919941Y1156011D01*
X919811Y1156044D01*
X919683Y1156081D01*
X919555Y1156121D01*
X919429Y1156165D01*
X919304Y1156213D01*
X919181Y1156264D01*
X919059Y1156319D01*
X918939Y1156378D01*
X918820Y1156440D01*
X918704Y1156505D01*
X918589Y1156574D01*
X918477Y1156646D01*
X918366Y1156721D01*
X918258Y1156800D01*
X918153Y1156882D01*
X918049Y1156966D01*
X917948Y1157054D01*
X917850Y1157145D01*
X917755Y1157238D01*
X917662Y1157334D01*
X917572Y1157433D01*
X917485Y1157535D01*
X917401Y1157639D01*
X917320Y1157745D01*
X917242Y1157854D01*
X917168Y1157965D01*
X917097Y1158078D01*
X917029Y1158193D01*
X916964Y1158310D01*
X916903Y1158429D01*
X916845Y1158549D01*
X916791Y1158671D01*
X916741Y1158795D01*
X916694Y1158920D01*
X916651Y1159047D01*
X916611Y1159174D01*
X916576Y1159303D01*
X916544Y1159433D01*
X916516Y1159564D01*
X916491Y1159695D01*
X916471Y1159827D01*
X917693Y1159829D01*
X917716Y1159716D01*
X917743Y1159605D01*
X917775Y1159494D01*
X917809Y1159385D01*
X917848Y1159276D01*
X917890Y1159169D01*
X917936Y1159064D01*
X917985Y1158960D01*
X918038Y1158858D01*
X918095Y1158758D01*
X918154Y1158660D01*
X918218Y1158564D01*
X918284Y1158470D01*
X918353Y1158379D01*
X918426Y1158290D01*
X918501Y1158203D01*
X918580Y1158119D01*
X918661Y1158038D01*
X918745Y1157959D01*
X918832Y1157884D01*
X918921Y1157811D01*
X919013Y1157742D01*
X919107Y1157676D01*
X919203Y1157613D01*
X919301Y1157553D01*
X919401Y1157497D01*
X919503Y1157444D01*
X919607Y1157395D01*
X919712Y1157349D01*
X919819Y1157307D01*
X919927Y1157268D01*
X920037Y1157234D01*
X920148Y1157203D01*
X920259Y1157176D01*
X920372Y1157152D01*
X920485Y1157133D01*
X920599Y1157117D01*
X920713Y1157105D01*
X920828Y1157097D01*
X920943Y1157093D01*
X921057Y1157093D01*
X921172Y1157097D01*
X921287Y1157105D01*
X921401Y1157117D01*
X921515Y1157133D01*
X921628Y1157152D01*
X921741Y1157176D01*
X921852Y1157203D01*
X921963Y1157234D01*
X922073Y1157268D01*
X922181Y1157307D01*
X922288Y1157349D01*
X922393Y1157395D01*
X922497Y1157444D01*
X922599Y1157497D01*
X922699Y1157553D01*
X922797Y1157613D01*
X922893Y1157676D01*
X922987Y1157742D01*
X923079Y1157811D01*
X923168Y1157884D01*
X923255Y1157959D01*
X923339Y1158038D01*
X923420Y1158119D01*
X923499Y1158203D01*
X923574Y1158290D01*
X923647Y1158379D01*
X923716Y1158470D01*
X923782Y1158564D01*
X923846Y1158660D01*
X923905Y1158758D01*
X923962Y1158858D01*
X924015Y1158960D01*
X924064Y1159064D01*
X924110Y1159169D01*
X924152Y1159276D01*
X924191Y1159385D01*
X924225Y1159494D01*
X924257Y1159605D01*
X924284Y1159716D01*
X924307Y1159829D01*
X923068Y1159834D01*
X923040Y1159747D01*
X923008Y1159660D01*
X922972Y1159576D01*
X922932Y1159493D01*
X922890Y1159411D01*
X922843Y1159332D01*
X922793Y1159254D01*
X922741Y1159179D01*
X922684Y1159106D01*
X922625Y1159036D01*
X922563Y1158968D01*
X922498Y1158903D01*
X922431Y1158840D01*
X922361Y1158781D01*
X922288Y1158725D01*
X922213Y1158671D01*
X922136Y1158621D01*
X922056Y1158575D01*
X921975Y1158532D01*
X921892Y1158492D01*
X921808Y1158456D01*
X921722Y1158423D01*
X921634Y1158394D01*
X921546Y1158369D01*
X921456Y1158348D01*
X921366Y1158330D01*
X921275Y1158317D01*
X921184Y1158307D01*
X921092Y1158301D01*
X921000Y1158299D01*
X920908Y1158301D01*
X920816Y1158307D01*
X920725Y1158317D01*
X920634Y1158330D01*
X920544Y1158348D01*
X920454Y1158369D01*
X920366Y1158394D01*
X920278Y1158423D01*
X920192Y1158456D01*
X920108Y1158492D01*
X920025Y1158532D01*
X919944Y1158575D01*
X919864Y1158621D01*
X919787Y1158671D01*
X919712Y1158725D01*
X919639Y1158781D01*
X919569Y1158840D01*
X919502Y1158903D01*
X919437Y1158968D01*
X919375Y1159036D01*
X919316Y1159106D01*
X919259Y1159179D01*
X919207Y1159254D01*
X919157Y1159332D01*
X919110Y1159411D01*
X919068Y1159493D01*
X919028Y1159576D01*
X918992Y1159660D01*
X918960Y1159747D01*
X918932Y1159834D01*
X920248Y1159871D01*
X920287Y1159825D01*
X920328Y1159782D01*
X920371Y1159741D01*
X920418Y1159703D01*
X920466Y1159668D01*
X920516Y1159637D01*
X920569Y1159608D01*
X920623Y1159583D01*
X920678Y1159561D01*
X920735Y1159542D01*
X920793Y1159528D01*
X920851Y1159517D01*
X920911Y1159509D01*
X920970Y1159505D01*
X921030Y1159505D01*
X921089Y1159509D01*
X921149Y1159517D01*
X921207Y1159528D01*
X921265Y1159542D01*
X921322Y1159561D01*
X921377Y1159583D01*
X921431Y1159608D01*
X921484Y1159637D01*
X921534Y1159668D01*
X921582Y1159703D01*
X921629Y1159741D01*
X921672Y1159782D01*
X921713Y1159825D01*
X921752Y1159871D01*
X927956Y1166174D02*
X921000Y1165541D01*
X921000Y1165541D01*
X914044Y1166174D01*
X914061Y1166344D01*
X914083Y1166514D01*
X914109Y1166682D01*
X914139Y1166851D01*
X914173Y1167018D01*
X914211Y1167185D01*
X914254Y1167350D01*
X914300Y1167515D01*
X914350Y1167678D01*
X914404Y1167840D01*
X914463Y1168001D01*
X914525Y1168160D01*
X914591Y1168317D01*
X914661Y1168473D01*
X914734Y1168627D01*
X914812Y1168780D01*
X914893Y1168930D01*
X914978Y1169078D01*
X915066Y1169225D01*
X915158Y1169369D01*
X915253Y1169510D01*
X915352Y1169650D01*
X915454Y1169787D01*
X915560Y1169921D01*
X915669Y1170053D01*
X915781Y1170182D01*
X915896Y1170308D01*
X916014Y1170432D01*
X916135Y1170552D01*
X916259Y1170670D01*
X916386Y1170784D01*
X916515Y1170895D01*
X916648Y1171003D01*
X916783Y1171108D01*
X916920Y1171210D01*
X917060Y1171308D01*
X917202Y1171402D01*
X917347Y1171494D01*
X917494Y1171581D01*
X917642Y1171665D01*
X917793Y1171745D01*
X917946Y1171822D01*
X918100Y1171895D01*
X918257Y1171964D01*
X918415Y1172029D01*
X918574Y1172090D01*
X918735Y1172148D01*
X918897Y1172201D01*
X919061Y1172250D01*
X919226Y1172296D01*
X919391Y1172337D01*
X919558Y1172375D01*
X919726Y1172408D01*
X919894Y1172437D01*
X920063Y1172462D01*
X920233Y1172483D01*
X920403Y1172499D01*
X920573Y1172512D01*
X920744Y1172520D01*
X920915Y1172524D01*
X921085Y1172524D01*
X921256Y1172520D01*
X921427Y1172512D01*
X921597Y1172499D01*
X921767Y1172483D01*
X921937Y1172462D01*
X922106Y1172437D01*
X922274Y1172408D01*
X922442Y1172375D01*
X922609Y1172337D01*
X922774Y1172296D01*
X922939Y1172250D01*
X923103Y1172201D01*
X923265Y1172148D01*
X923426Y1172090D01*
X923585Y1172029D01*
X923743Y1171964D01*
X923900Y1171895D01*
X924054Y1171822D01*
X924207Y1171745D01*
X924358Y1171665D01*
X924506Y1171581D01*
X924653Y1171494D01*
X924798Y1171402D01*
X924940Y1171308D01*
X925080Y1171210D01*
X925217Y1171108D01*
X925352Y1171003D01*
X925485Y1170895D01*
X925614Y1170784D01*
X925741Y1170670D01*
X925865Y1170552D01*
X925986Y1170432D01*
X926104Y1170308D01*
X926219Y1170182D01*
X926331Y1170053D01*
X926440Y1169921D01*
X926546Y1169787D01*
X926648Y1169650D01*
X926747Y1169510D01*
X926842Y1169369D01*
X926934Y1169225D01*
X927022Y1169078D01*
X927107Y1168930D01*
X927188Y1168780D01*
X927266Y1168627D01*
X927339Y1168473D01*
X927409Y1168317D01*
X927475Y1168160D01*
X927537Y1168001D01*
X927596Y1167840D01*
X927650Y1167678D01*
X927700Y1167515D01*
X927746Y1167350D01*
X927789Y1167185D01*
X927827Y1167018D01*
X927861Y1166851D01*
X927891Y1166682D01*
X927917Y1166514D01*
X927939Y1166344D01*
X927956Y1166174D01*
X926744Y1166174D01*
X926726Y1166323D01*
X926703Y1166472D01*
X926677Y1166621D01*
X926647Y1166769D01*
X926613Y1166915D01*
X926575Y1167061D01*
X926534Y1167206D01*
X926488Y1167350D01*
X926439Y1167493D01*
X926386Y1167634D01*
X926330Y1167774D01*
X926270Y1167912D01*
X926206Y1168049D01*
X926139Y1168184D01*
X926068Y1168317D01*
X925994Y1168448D01*
X925917Y1168577D01*
X925836Y1168704D01*
X925751Y1168829D01*
X925664Y1168952D01*
X925573Y1169073D01*
X925480Y1169191D01*
X925383Y1169307D01*
X925283Y1169420D01*
X925181Y1169530D01*
X925075Y1169638D01*
X924967Y1169743D01*
X924856Y1169845D01*
X924742Y1169944D01*
X924626Y1170040D01*
X924507Y1170133D01*
X924386Y1170223D01*
X924263Y1170310D01*
X924138Y1170393D01*
X924010Y1170473D01*
X923880Y1170550D01*
X923749Y1170624D01*
X923615Y1170693D01*
X923480Y1170760D01*
X923343Y1170823D01*
X923204Y1170882D01*
X923064Y1170938D01*
X922923Y1170990D01*
X922780Y1171038D01*
X922636Y1171083D01*
X922491Y1171123D01*
X922344Y1171160D01*
X922197Y1171194D01*
X922049Y1171223D01*
X921901Y1171248D01*
X921752Y1171270D01*
X921602Y1171288D01*
X921452Y1171301D01*
X921301Y1171311D01*
X921151Y1171317D01*
X921000Y1171319D01*
X920849Y1171317D01*
X920699Y1171311D01*
X920548Y1171301D01*
X920398Y1171288D01*
X920248Y1171270D01*
X920099Y1171248D01*
X919951Y1171223D01*
X919803Y1171194D01*
X919656Y1171160D01*
X919509Y1171123D01*
X919364Y1171083D01*
X919220Y1171038D01*
X919077Y1170990D01*
X918936Y1170938D01*
X918796Y1170882D01*
X918657Y1170823D01*
X918520Y1170760D01*
X918385Y1170693D01*
X918251Y1170624D01*
X918120Y1170550D01*
X917990Y1170473D01*
X917862Y1170393D01*
X917737Y1170310D01*
X917614Y1170223D01*
X917493Y1170133D01*
X917374Y1170040D01*
X917258Y1169944D01*
X917144Y1169845D01*
X917033Y1169743D01*
X916925Y1169638D01*
X916819Y1169530D01*
X916717Y1169420D01*
X916617Y1169307D01*
X916520Y1169191D01*
X916427Y1169073D01*
X916336Y1168952D01*
X916249Y1168829D01*
X916164Y1168704D01*
X916083Y1168577D01*
X916006Y1168448D01*
X915932Y1168317D01*
X915861Y1168184D01*
X915794Y1168049D01*
X915730Y1167912D01*
X915670Y1167774D01*
X915614Y1167634D01*
X915561Y1167493D01*
X915512Y1167350D01*
X915466Y1167206D01*
X915425Y1167061D01*
X915387Y1166915D01*
X915353Y1166769D01*
X915323Y1166621D01*
X915297Y1166472D01*
X915274Y1166323D01*
X915256Y1166174D01*
X916471Y1166173D01*
X916491Y1166305D01*
X916516Y1166436D01*
X916544Y1166567D01*
X916576Y1166697D01*
X916611Y1166826D01*
X916651Y1166953D01*
X916694Y1167080D01*
X916741Y1167205D01*
X916791Y1167329D01*
X916845Y1167451D01*
X916903Y1167571D01*
X916964Y1167690D01*
X917029Y1167807D01*
X917097Y1167922D01*
X917168Y1168035D01*
X917242Y1168146D01*
X917320Y1168255D01*
X917401Y1168361D01*
X917485Y1168465D01*
X917572Y1168567D01*
X917662Y1168666D01*
X917755Y1168762D01*
X917850Y1168855D01*
X917948Y1168946D01*
X918049Y1169034D01*
X918153Y1169118D01*
X918258Y1169200D01*
X918366Y1169279D01*
X918477Y1169354D01*
X918589Y1169426D01*
X918704Y1169495D01*
X918820Y1169560D01*
X918939Y1169622D01*
X919059Y1169681D01*
X919181Y1169736D01*
X919304Y1169787D01*
X919429Y1169835D01*
X919555Y1169879D01*
X919683Y1169919D01*
X919811Y1169956D01*
X919941Y1169989D01*
X920071Y1170018D01*
X920202Y1170043D01*
X920334Y1170064D01*
X920467Y1170082D01*
X920600Y1170095D01*
X920733Y1170105D01*
X920866Y1170111D01*
X921000Y1170113D01*
X921134Y1170111D01*
X921267Y1170105D01*
X921400Y1170095D01*
X921533Y1170082D01*
X921666Y1170064D01*
X921798Y1170043D01*
X921929Y1170018D01*
X922059Y1169989D01*
X922189Y1169956D01*
X922317Y1169919D01*
X922445Y1169879D01*
X922571Y1169835D01*
X922696Y1169787D01*
X922819Y1169736D01*
X922941Y1169681D01*
X923061Y1169622D01*
X923180Y1169560D01*
X923296Y1169495D01*
X923411Y1169426D01*
X923523Y1169354D01*
X923634Y1169279D01*
X923742Y1169200D01*
X923847Y1169118D01*
X923951Y1169034D01*
X924052Y1168946D01*
X924150Y1168855D01*
X924245Y1168762D01*
X924338Y1168666D01*
X924428Y1168567D01*
X924515Y1168465D01*
X924599Y1168361D01*
X924680Y1168255D01*
X924758Y1168146D01*
X924832Y1168035D01*
X924903Y1167922D01*
X924971Y1167807D01*
X925036Y1167690D01*
X925097Y1167571D01*
X925155Y1167451D01*
X925209Y1167329D01*
X925259Y1167205D01*
X925306Y1167080D01*
X925349Y1166953D01*
X925389Y1166826D01*
X925424Y1166697D01*
X925456Y1166567D01*
X925484Y1166436D01*
X925509Y1166305D01*
X925529Y1166173D01*
X924307Y1166171D01*
X924284Y1166284D01*
X924257Y1166395D01*
X924225Y1166506D01*
X924191Y1166615D01*
X924152Y1166724D01*
X924110Y1166831D01*
X924064Y1166936D01*
X924015Y1167040D01*
X923962Y1167142D01*
X923905Y1167242D01*
X923846Y1167340D01*
X923782Y1167436D01*
X923716Y1167530D01*
X923647Y1167621D01*
X923574Y1167710D01*
X923499Y1167797D01*
X923420Y1167881D01*
X923339Y1167962D01*
X923255Y1168041D01*
X923168Y1168116D01*
X923079Y1168189D01*
X922987Y1168258D01*
X922893Y1168324D01*
X922797Y1168387D01*
X922699Y1168447D01*
X922599Y1168503D01*
X922497Y1168556D01*
X922393Y1168605D01*
X922288Y1168651D01*
X922181Y1168693D01*
X922073Y1168732D01*
X921963Y1168766D01*
X921852Y1168797D01*
X921741Y1168824D01*
X921628Y1168848D01*
X921515Y1168867D01*
X921401Y1168883D01*
X921287Y1168895D01*
X921172Y1168903D01*
X921057Y1168907D01*
X920943Y1168907D01*
X920828Y1168903D01*
X920713Y1168895D01*
X920599Y1168883D01*
X920485Y1168867D01*
X920372Y1168848D01*
X920259Y1168824D01*
X920148Y1168797D01*
X920037Y1168766D01*
X919927Y1168732D01*
X919819Y1168693D01*
X919712Y1168651D01*
X919607Y1168605D01*
X919503Y1168556D01*
X919401Y1168503D01*
X919301Y1168447D01*
X919203Y1168387D01*
X919107Y1168324D01*
X919013Y1168258D01*
X918921Y1168189D01*
X918832Y1168116D01*
X918745Y1168041D01*
X918661Y1167962D01*
X918580Y1167881D01*
X918501Y1167797D01*
X918426Y1167710D01*
X918353Y1167621D01*
X918284Y1167530D01*
X918218Y1167436D01*
X918154Y1167340D01*
X918095Y1167242D01*
X918038Y1167142D01*
X917985Y1167040D01*
X917936Y1166936D01*
X917890Y1166831D01*
X917848Y1166724D01*
X917809Y1166615D01*
X917775Y1166506D01*
X917743Y1166395D01*
X917716Y1166284D01*
X917693Y1166171D01*
X918932Y1166166D01*
X918960Y1166253D01*
X918992Y1166340D01*
X919028Y1166424D01*
X919068Y1166507D01*
X919110Y1166589D01*
X919157Y1166668D01*
X919207Y1166746D01*
X919259Y1166821D01*
X919316Y1166894D01*
X919375Y1166964D01*
X919437Y1167032D01*
X919502Y1167097D01*
X919569Y1167160D01*
X919639Y1167219D01*
X919712Y1167275D01*
X919787Y1167329D01*
X919864Y1167379D01*
X919944Y1167425D01*
X920025Y1167468D01*
X920108Y1167508D01*
X920192Y1167544D01*
X920278Y1167577D01*
X920366Y1167606D01*
X920454Y1167631D01*
X920544Y1167652D01*
X920634Y1167670D01*
X920725Y1167683D01*
X920816Y1167693D01*
X920908Y1167699D01*
X921000Y1167701D01*
X921092Y1167699D01*
X921184Y1167693D01*
X921275Y1167683D01*
X921366Y1167670D01*
X921456Y1167652D01*
X921546Y1167631D01*
X921634Y1167606D01*
X921722Y1167577D01*
X921808Y1167544D01*
X921892Y1167508D01*
X921975Y1167468D01*
X922056Y1167425D01*
X922136Y1167379D01*
X922213Y1167329D01*
X922288Y1167275D01*
X922361Y1167219D01*
X922431Y1167160D01*
X922498Y1167097D01*
X922563Y1167032D01*
X922625Y1166964D01*
X922684Y1166894D01*
X922741Y1166821D01*
X922793Y1166746D01*
X922843Y1166668D01*
X922890Y1166589D01*
X922932Y1166507D01*
X922972Y1166424D01*
X923008Y1166340D01*
X923040Y1166253D01*
X923068Y1166166D01*
X921752Y1166129D01*
X921713Y1166175D01*
X921672Y1166218D01*
X921629Y1166259D01*
X921582Y1166297D01*
X921534Y1166332D01*
X921484Y1166363D01*
X921431Y1166392D01*
X921377Y1166417D01*
X921322Y1166439D01*
X921265Y1166458D01*
X921207Y1166472D01*
X921149Y1166483D01*
X921089Y1166491D01*
X921030Y1166495D01*
X920970Y1166495D01*
X920911Y1166491D01*
X920851Y1166483D01*
X920793Y1166472D01*
X920735Y1166458D01*
X920678Y1166439D01*
X920623Y1166417D01*
X920569Y1166392D01*
X920516Y1166363D01*
X920466Y1166332D01*
X920418Y1166297D01*
X920371Y1166259D01*
X920328Y1166218D01*
X920287Y1166175D01*
X920248Y1166129D01*
D12*
X928680Y1110560D02*
X928680Y1103440D01*
X937190Y1103440D02*
X937190Y1110560D01*
D13*
X932949Y1112882D03*
X932949Y1101198D03*
D12*
X916680Y1103440D02*
X916680Y1110560D01*
X925190Y1110560D02*
X925190Y1103440D01*
D13*
X920949Y1112882D03*
X920949Y1101198D03*
D12*
X936320Y1072560D02*
X936320Y1065440D01*
X927810Y1065440D02*
X927810Y1072560D01*
D13*
X932051Y1063119D03*
X932051Y1074803D03*
D12*
X963440Y1272320D02*
X970560Y1272320D01*
X970560Y1263810D02*
X963440Y1263810D01*
D14*
X972882Y1268051D03*
X961198Y1268051D03*
D10*
X1151180Y1009060D02*
X1159820Y1009060D01*
X1159820Y1001940D02*
X1151180Y1001940D01*
D15*
X1161850Y1005500D03*
X1149150Y1005500D03*
D10*
X1141590Y976160D02*
X1098410Y976160D01*
X1141590Y955840D02*
X1141690Y955842D01*
X1141789Y955848D01*
X1141889Y955858D01*
X1141987Y955871D01*
X1142086Y955889D01*
X1142183Y955910D01*
X1142279Y955935D01*
X1142375Y955964D01*
X1142469Y955997D01*
X1142562Y956033D01*
X1142653Y956073D01*
X1142743Y956117D01*
X1142831Y956164D01*
X1142917Y956214D01*
X1143001Y956268D01*
X1143083Y956325D01*
X1143162Y956385D01*
X1143240Y956449D01*
X1143314Y956515D01*
X1143386Y956584D01*
X1143455Y956656D01*
X1143521Y956730D01*
X1143585Y956808D01*
X1143645Y956887D01*
X1143702Y956969D01*
X1143756Y957053D01*
X1143806Y957139D01*
X1143853Y957227D01*
X1143897Y957317D01*
X1143937Y957408D01*
X1143973Y957501D01*
X1144006Y957595D01*
X1144035Y957691D01*
X1144060Y957787D01*
X1144081Y957884D01*
X1144099Y957983D01*
X1144112Y958081D01*
X1144122Y958181D01*
X1144128Y958280D01*
X1144130Y958380D01*
X1098410Y955840D02*
X1098310Y955842D01*
X1098211Y955848D01*
X1098111Y955858D01*
X1098013Y955871D01*
X1097914Y955889D01*
X1097817Y955910D01*
X1097721Y955935D01*
X1097625Y955964D01*
X1097531Y955997D01*
X1097438Y956033D01*
X1097347Y956073D01*
X1097257Y956117D01*
X1097169Y956164D01*
X1097083Y956214D01*
X1096999Y956268D01*
X1096917Y956325D01*
X1096838Y956385D01*
X1096760Y956449D01*
X1096686Y956515D01*
X1096614Y956584D01*
X1096545Y956656D01*
X1096479Y956730D01*
X1096415Y956808D01*
X1096355Y956887D01*
X1096298Y956969D01*
X1096244Y957053D01*
X1096194Y957139D01*
X1096147Y957227D01*
X1096103Y957317D01*
X1096063Y957408D01*
X1096027Y957501D01*
X1095994Y957595D01*
X1095965Y957691D01*
X1095940Y957787D01*
X1095919Y957884D01*
X1095901Y957983D01*
X1095888Y958081D01*
X1095878Y958181D01*
X1095872Y958280D01*
X1095870Y958380D01*
X1095870Y973620D02*
X1095872Y973720D01*
X1095878Y973819D01*
X1095888Y973919D01*
X1095901Y974017D01*
X1095919Y974116D01*
X1095940Y974213D01*
X1095965Y974309D01*
X1095994Y974405D01*
X1096027Y974499D01*
X1096063Y974592D01*
X1096103Y974683D01*
X1096147Y974773D01*
X1096194Y974861D01*
X1096244Y974947D01*
X1096298Y975031D01*
X1096355Y975113D01*
X1096415Y975192D01*
X1096479Y975270D01*
X1096545Y975344D01*
X1096614Y975416D01*
X1096686Y975485D01*
X1096760Y975551D01*
X1096838Y975615D01*
X1096917Y975675D01*
X1096999Y975732D01*
X1097083Y975786D01*
X1097169Y975836D01*
X1097257Y975883D01*
X1097347Y975927D01*
X1097438Y975967D01*
X1097531Y976003D01*
X1097625Y976036D01*
X1097721Y976065D01*
X1097817Y976090D01*
X1097914Y976111D01*
X1098013Y976129D01*
X1098111Y976142D01*
X1098211Y976152D01*
X1098310Y976158D01*
X1098410Y976160D01*
X1141590Y976160D02*
X1141690Y976158D01*
X1141789Y976152D01*
X1141889Y976142D01*
X1141987Y976129D01*
X1142086Y976111D01*
X1142183Y976090D01*
X1142279Y976065D01*
X1142375Y976036D01*
X1142469Y976003D01*
X1142562Y975967D01*
X1142653Y975927D01*
X1142743Y975883D01*
X1142831Y975836D01*
X1142917Y975786D01*
X1143001Y975732D01*
X1143083Y975675D01*
X1143162Y975615D01*
X1143240Y975551D01*
X1143314Y975485D01*
X1143386Y975416D01*
X1143455Y975344D01*
X1143521Y975270D01*
X1143585Y975192D01*
X1143645Y975113D01*
X1143702Y975031D01*
X1143756Y974947D01*
X1143806Y974861D01*
X1143853Y974773D01*
X1143897Y974683D01*
X1143937Y974592D01*
X1143973Y974499D01*
X1144006Y974405D01*
X1144035Y974309D01*
X1144060Y974213D01*
X1144081Y974116D01*
X1144099Y974017D01*
X1144112Y973919D01*
X1144122Y973819D01*
X1144128Y973720D01*
X1144130Y973620D01*
X1144130Y958380D01*
X1095870Y958380D02*
X1095870Y973620D01*
X1098410Y955840D02*
X1141590Y955840D01*
X1142860Y966000D02*
X1137780Y966000D01*
X1102220Y966000D02*
X1097140Y966000D01*
X1120000Y958380D02*
X1120000Y955840D01*
X1120000Y973620D02*
X1120000Y976160D01*
D11*
X1130794Y959044D02*
X1130161Y966000D01*
X1130161Y966000D01*
X1130794Y972956D01*
X1130964Y972939D01*
X1131134Y972917D01*
X1131302Y972891D01*
X1131471Y972861D01*
X1131638Y972827D01*
X1131805Y972789D01*
X1131970Y972746D01*
X1132135Y972700D01*
X1132298Y972650D01*
X1132460Y972596D01*
X1132621Y972537D01*
X1132780Y972475D01*
X1132937Y972409D01*
X1133093Y972339D01*
X1133247Y972266D01*
X1133400Y972188D01*
X1133550Y972107D01*
X1133698Y972022D01*
X1133845Y971934D01*
X1133989Y971842D01*
X1134130Y971747D01*
X1134270Y971648D01*
X1134407Y971546D01*
X1134541Y971440D01*
X1134673Y971331D01*
X1134802Y971219D01*
X1134928Y971104D01*
X1135052Y970986D01*
X1135172Y970865D01*
X1135290Y970741D01*
X1135404Y970614D01*
X1135515Y970485D01*
X1135623Y970352D01*
X1135728Y970217D01*
X1135830Y970080D01*
X1135928Y969940D01*
X1136022Y969798D01*
X1136114Y969653D01*
X1136201Y969506D01*
X1136285Y969358D01*
X1136365Y969207D01*
X1136442Y969054D01*
X1136515Y968900D01*
X1136584Y968743D01*
X1136649Y968585D01*
X1136710Y968426D01*
X1136768Y968265D01*
X1136821Y968103D01*
X1136870Y967939D01*
X1136916Y967774D01*
X1136957Y967609D01*
X1136995Y967442D01*
X1137028Y967274D01*
X1137057Y967106D01*
X1137082Y966937D01*
X1137103Y966767D01*
X1137119Y966597D01*
X1137132Y966427D01*
X1137140Y966256D01*
X1137144Y966085D01*
X1137144Y965915D01*
X1137140Y965744D01*
X1137132Y965573D01*
X1137119Y965403D01*
X1137103Y965233D01*
X1137082Y965063D01*
X1137057Y964894D01*
X1137028Y964726D01*
X1136995Y964558D01*
X1136957Y964391D01*
X1136916Y964226D01*
X1136870Y964061D01*
X1136821Y963897D01*
X1136768Y963735D01*
X1136710Y963574D01*
X1136649Y963415D01*
X1136584Y963257D01*
X1136515Y963100D01*
X1136442Y962946D01*
X1136365Y962793D01*
X1136285Y962642D01*
X1136201Y962494D01*
X1136114Y962347D01*
X1136022Y962202D01*
X1135928Y962060D01*
X1135830Y961920D01*
X1135728Y961783D01*
X1135623Y961648D01*
X1135515Y961515D01*
X1135404Y961386D01*
X1135290Y961259D01*
X1135172Y961135D01*
X1135052Y961014D01*
X1134928Y960896D01*
X1134802Y960781D01*
X1134673Y960669D01*
X1134541Y960560D01*
X1134407Y960454D01*
X1134270Y960352D01*
X1134130Y960253D01*
X1133989Y960158D01*
X1133845Y960066D01*
X1133698Y959978D01*
X1133550Y959893D01*
X1133400Y959812D01*
X1133247Y959734D01*
X1133093Y959661D01*
X1132937Y959591D01*
X1132780Y959525D01*
X1132621Y959463D01*
X1132460Y959404D01*
X1132298Y959350D01*
X1132135Y959300D01*
X1131970Y959254D01*
X1131805Y959211D01*
X1131638Y959173D01*
X1131471Y959139D01*
X1131302Y959109D01*
X1131134Y959083D01*
X1130964Y959061D01*
X1130794Y959044D01*
X1130794Y960256D01*
X1130943Y960274D01*
X1131092Y960297D01*
X1131241Y960323D01*
X1131389Y960353D01*
X1131535Y960387D01*
X1131681Y960425D01*
X1131826Y960466D01*
X1131970Y960512D01*
X1132113Y960561D01*
X1132254Y960614D01*
X1132394Y960670D01*
X1132532Y960730D01*
X1132669Y960794D01*
X1132804Y960861D01*
X1132937Y960932D01*
X1133068Y961006D01*
X1133197Y961083D01*
X1133324Y961164D01*
X1133449Y961249D01*
X1133572Y961336D01*
X1133693Y961427D01*
X1133811Y961520D01*
X1133927Y961617D01*
X1134040Y961717D01*
X1134150Y961819D01*
X1134258Y961925D01*
X1134363Y962033D01*
X1134465Y962144D01*
X1134564Y962258D01*
X1134660Y962374D01*
X1134753Y962493D01*
X1134843Y962614D01*
X1134930Y962737D01*
X1135013Y962862D01*
X1135093Y962990D01*
X1135170Y963120D01*
X1135244Y963251D01*
X1135313Y963385D01*
X1135380Y963520D01*
X1135443Y963657D01*
X1135502Y963796D01*
X1135558Y963936D01*
X1135610Y964077D01*
X1135658Y964220D01*
X1135703Y964364D01*
X1135743Y964509D01*
X1135780Y964656D01*
X1135814Y964803D01*
X1135843Y964951D01*
X1135868Y965099D01*
X1135890Y965248D01*
X1135908Y965398D01*
X1135921Y965548D01*
X1135931Y965699D01*
X1135937Y965849D01*
X1135939Y966000D01*
X1135937Y966151D01*
X1135931Y966301D01*
X1135921Y966452D01*
X1135908Y966602D01*
X1135890Y966752D01*
X1135868Y966901D01*
X1135843Y967049D01*
X1135814Y967197D01*
X1135780Y967344D01*
X1135743Y967491D01*
X1135703Y967636D01*
X1135658Y967780D01*
X1135610Y967923D01*
X1135558Y968064D01*
X1135502Y968204D01*
X1135443Y968343D01*
X1135380Y968480D01*
X1135313Y968615D01*
X1135244Y968749D01*
X1135170Y968880D01*
X1135093Y969010D01*
X1135013Y969138D01*
X1134930Y969263D01*
X1134843Y969386D01*
X1134753Y969507D01*
X1134660Y969626D01*
X1134564Y969742D01*
X1134465Y969856D01*
X1134363Y969967D01*
X1134258Y970075D01*
X1134150Y970181D01*
X1134040Y970283D01*
X1133927Y970383D01*
X1133811Y970480D01*
X1133693Y970573D01*
X1133572Y970664D01*
X1133449Y970751D01*
X1133324Y970836D01*
X1133197Y970917D01*
X1133068Y970994D01*
X1132937Y971068D01*
X1132804Y971139D01*
X1132669Y971206D01*
X1132532Y971270D01*
X1132394Y971330D01*
X1132254Y971386D01*
X1132113Y971439D01*
X1131970Y971488D01*
X1131826Y971534D01*
X1131681Y971575D01*
X1131535Y971613D01*
X1131389Y971647D01*
X1131241Y971677D01*
X1131092Y971703D01*
X1130943Y971726D01*
X1130794Y971744D01*
X1130793Y970529D01*
X1130925Y970509D01*
X1131056Y970484D01*
X1131187Y970456D01*
X1131317Y970424D01*
X1131446Y970389D01*
X1131573Y970349D01*
X1131700Y970306D01*
X1131825Y970259D01*
X1131949Y970209D01*
X1132071Y970155D01*
X1132191Y970097D01*
X1132310Y970036D01*
X1132427Y969971D01*
X1132542Y969903D01*
X1132655Y969832D01*
X1132766Y969758D01*
X1132875Y969680D01*
X1132981Y969599D01*
X1133085Y969515D01*
X1133187Y969428D01*
X1133286Y969338D01*
X1133382Y969245D01*
X1133475Y969150D01*
X1133566Y969052D01*
X1133654Y968951D01*
X1133738Y968847D01*
X1133820Y968742D01*
X1133899Y968634D01*
X1133974Y968523D01*
X1134046Y968411D01*
X1134115Y968296D01*
X1134180Y968180D01*
X1134242Y968061D01*
X1134301Y967941D01*
X1134356Y967819D01*
X1134407Y967696D01*
X1134455Y967571D01*
X1134499Y967445D01*
X1134539Y967317D01*
X1134576Y967189D01*
X1134609Y967059D01*
X1134638Y966929D01*
X1134663Y966798D01*
X1134684Y966666D01*
X1134702Y966533D01*
X1134715Y966400D01*
X1134725Y966267D01*
X1134731Y966134D01*
X1134733Y966000D01*
X1134731Y965866D01*
X1134725Y965733D01*
X1134715Y965600D01*
X1134702Y965467D01*
X1134684Y965334D01*
X1134663Y965202D01*
X1134638Y965071D01*
X1134609Y964941D01*
X1134576Y964811D01*
X1134539Y964683D01*
X1134499Y964555D01*
X1134455Y964429D01*
X1134407Y964304D01*
X1134356Y964181D01*
X1134301Y964059D01*
X1134242Y963939D01*
X1134180Y963820D01*
X1134115Y963704D01*
X1134046Y963589D01*
X1133974Y963477D01*
X1133899Y963366D01*
X1133820Y963258D01*
X1133738Y963153D01*
X1133654Y963049D01*
X1133566Y962948D01*
X1133475Y962850D01*
X1133382Y962755D01*
X1133286Y962662D01*
X1133187Y962572D01*
X1133085Y962485D01*
X1132981Y962401D01*
X1132875Y962320D01*
X1132766Y962242D01*
X1132655Y962168D01*
X1132542Y962097D01*
X1132427Y962029D01*
X1132310Y961964D01*
X1132191Y961903D01*
X1132071Y961845D01*
X1131949Y961791D01*
X1131825Y961741D01*
X1131700Y961694D01*
X1131573Y961651D01*
X1131446Y961611D01*
X1131317Y961576D01*
X1131187Y961544D01*
X1131056Y961516D01*
X1130925Y961491D01*
X1130793Y961471D01*
X1130791Y962693D01*
X1130904Y962716D01*
X1131015Y962743D01*
X1131126Y962775D01*
X1131235Y962809D01*
X1131344Y962848D01*
X1131451Y962890D01*
X1131556Y962936D01*
X1131660Y962985D01*
X1131762Y963038D01*
X1131862Y963095D01*
X1131960Y963154D01*
X1132056Y963218D01*
X1132150Y963284D01*
X1132241Y963353D01*
X1132330Y963426D01*
X1132417Y963501D01*
X1132501Y963580D01*
X1132582Y963661D01*
X1132661Y963745D01*
X1132736Y963832D01*
X1132809Y963921D01*
X1132878Y964013D01*
X1132944Y964107D01*
X1133007Y964203D01*
X1133067Y964301D01*
X1133123Y964401D01*
X1133176Y964503D01*
X1133225Y964607D01*
X1133271Y964712D01*
X1133313Y964819D01*
X1133352Y964927D01*
X1133386Y965037D01*
X1133417Y965148D01*
X1133444Y965259D01*
X1133468Y965372D01*
X1133487Y965485D01*
X1133503Y965599D01*
X1133515Y965713D01*
X1133523Y965828D01*
X1133527Y965943D01*
X1133527Y966057D01*
X1133523Y966172D01*
X1133515Y966287D01*
X1133503Y966401D01*
X1133487Y966515D01*
X1133468Y966628D01*
X1133444Y966741D01*
X1133417Y966852D01*
X1133386Y966963D01*
X1133352Y967073D01*
X1133313Y967181D01*
X1133271Y967288D01*
X1133225Y967393D01*
X1133176Y967497D01*
X1133123Y967599D01*
X1133067Y967699D01*
X1133007Y967797D01*
X1132944Y967893D01*
X1132878Y967987D01*
X1132809Y968079D01*
X1132736Y968168D01*
X1132661Y968255D01*
X1132582Y968339D01*
X1132501Y968420D01*
X1132417Y968499D01*
X1132330Y968574D01*
X1132241Y968647D01*
X1132150Y968716D01*
X1132056Y968782D01*
X1131960Y968846D01*
X1131862Y968905D01*
X1131762Y968962D01*
X1131660Y969015D01*
X1131556Y969064D01*
X1131451Y969110D01*
X1131344Y969152D01*
X1131235Y969191D01*
X1131126Y969225D01*
X1131015Y969257D01*
X1130904Y969284D01*
X1130791Y969307D01*
X1130786Y968068D01*
X1130873Y968040D01*
X1130960Y968008D01*
X1131044Y967972D01*
X1131127Y967932D01*
X1131209Y967890D01*
X1131288Y967843D01*
X1131366Y967793D01*
X1131441Y967741D01*
X1131514Y967684D01*
X1131584Y967625D01*
X1131652Y967563D01*
X1131717Y967498D01*
X1131780Y967431D01*
X1131839Y967361D01*
X1131895Y967288D01*
X1131949Y967213D01*
X1131999Y967136D01*
X1132045Y967056D01*
X1132088Y966975D01*
X1132128Y966892D01*
X1132164Y966808D01*
X1132197Y966722D01*
X1132226Y966634D01*
X1132251Y966546D01*
X1132272Y966456D01*
X1132290Y966366D01*
X1132303Y966275D01*
X1132313Y966184D01*
X1132319Y966092D01*
X1132321Y966000D01*
X1132319Y965908D01*
X1132313Y965816D01*
X1132303Y965725D01*
X1132290Y965634D01*
X1132272Y965544D01*
X1132251Y965454D01*
X1132226Y965366D01*
X1132197Y965278D01*
X1132164Y965192D01*
X1132128Y965108D01*
X1132088Y965025D01*
X1132045Y964944D01*
X1131999Y964864D01*
X1131949Y964787D01*
X1131895Y964712D01*
X1131839Y964639D01*
X1131780Y964569D01*
X1131717Y964502D01*
X1131652Y964437D01*
X1131584Y964375D01*
X1131514Y964316D01*
X1131441Y964259D01*
X1131366Y964207D01*
X1131288Y964157D01*
X1131209Y964110D01*
X1131127Y964068D01*
X1131044Y964028D01*
X1130960Y963992D01*
X1130873Y963960D01*
X1130786Y963932D01*
X1130749Y965248D01*
X1130795Y965287D01*
X1130838Y965328D01*
X1130879Y965371D01*
X1130917Y965418D01*
X1130952Y965466D01*
X1130983Y965516D01*
X1131012Y965569D01*
X1131037Y965623D01*
X1131059Y965678D01*
X1131078Y965735D01*
X1131092Y965793D01*
X1131103Y965851D01*
X1131111Y965911D01*
X1131115Y965970D01*
X1131115Y966030D01*
X1131111Y966089D01*
X1131103Y966149D01*
X1131092Y966207D01*
X1131078Y966265D01*
X1131059Y966322D01*
X1131037Y966377D01*
X1131012Y966431D01*
X1130983Y966484D01*
X1130952Y966534D01*
X1130917Y966582D01*
X1130879Y966629D01*
X1130838Y966672D01*
X1130795Y966713D01*
X1130749Y966752D01*
X1109206Y972956D02*
X1109839Y966000D01*
X1109839Y966000D01*
X1109206Y959044D01*
X1109036Y959061D01*
X1108866Y959083D01*
X1108698Y959109D01*
X1108529Y959139D01*
X1108362Y959173D01*
X1108195Y959211D01*
X1108030Y959254D01*
X1107865Y959300D01*
X1107702Y959350D01*
X1107540Y959404D01*
X1107379Y959463D01*
X1107220Y959525D01*
X1107063Y959591D01*
X1106907Y959661D01*
X1106753Y959734D01*
X1106600Y959812D01*
X1106450Y959893D01*
X1106302Y959978D01*
X1106155Y960066D01*
X1106011Y960158D01*
X1105870Y960253D01*
X1105730Y960352D01*
X1105593Y960454D01*
X1105459Y960560D01*
X1105327Y960669D01*
X1105198Y960781D01*
X1105072Y960896D01*
X1104948Y961014D01*
X1104828Y961135D01*
X1104710Y961259D01*
X1104596Y961386D01*
X1104485Y961515D01*
X1104377Y961648D01*
X1104272Y961783D01*
X1104170Y961920D01*
X1104072Y962060D01*
X1103978Y962202D01*
X1103886Y962347D01*
X1103799Y962494D01*
X1103715Y962642D01*
X1103635Y962793D01*
X1103558Y962946D01*
X1103485Y963100D01*
X1103416Y963257D01*
X1103351Y963415D01*
X1103290Y963574D01*
X1103232Y963735D01*
X1103179Y963897D01*
X1103130Y964061D01*
X1103084Y964226D01*
X1103043Y964391D01*
X1103005Y964558D01*
X1102972Y964726D01*
X1102943Y964894D01*
X1102918Y965063D01*
X1102897Y965233D01*
X1102881Y965403D01*
X1102868Y965573D01*
X1102860Y965744D01*
X1102856Y965915D01*
X1102856Y966085D01*
X1102860Y966256D01*
X1102868Y966427D01*
X1102881Y966597D01*
X1102897Y966767D01*
X1102918Y966937D01*
X1102943Y967106D01*
X1102972Y967274D01*
X1103005Y967442D01*
X1103043Y967609D01*
X1103084Y967774D01*
X1103130Y967939D01*
X1103179Y968103D01*
X1103232Y968265D01*
X1103290Y968426D01*
X1103351Y968585D01*
X1103416Y968743D01*
X1103485Y968900D01*
X1103558Y969054D01*
X1103635Y969207D01*
X1103715Y969358D01*
X1103799Y969506D01*
X1103886Y969653D01*
X1103978Y969798D01*
X1104072Y969940D01*
X1104170Y970080D01*
X1104272Y970217D01*
X1104377Y970352D01*
X1104485Y970485D01*
X1104596Y970614D01*
X1104710Y970741D01*
X1104828Y970865D01*
X1104948Y970986D01*
X1105072Y971104D01*
X1105198Y971219D01*
X1105327Y971331D01*
X1105459Y971440D01*
X1105593Y971546D01*
X1105730Y971648D01*
X1105870Y971747D01*
X1106011Y971842D01*
X1106155Y971934D01*
X1106302Y972022D01*
X1106450Y972107D01*
X1106600Y972188D01*
X1106753Y972266D01*
X1106907Y972339D01*
X1107063Y972409D01*
X1107220Y972475D01*
X1107379Y972537D01*
X1107540Y972596D01*
X1107702Y972650D01*
X1107865Y972700D01*
X1108030Y972746D01*
X1108195Y972789D01*
X1108362Y972827D01*
X1108529Y972861D01*
X1108698Y972891D01*
X1108866Y972917D01*
X1109036Y972939D01*
X1109206Y972956D01*
X1109206Y971744D01*
X1109057Y971726D01*
X1108908Y971703D01*
X1108759Y971677D01*
X1108611Y971647D01*
X1108465Y971613D01*
X1108319Y971575D01*
X1108174Y971534D01*
X1108030Y971488D01*
X1107887Y971439D01*
X1107746Y971386D01*
X1107606Y971330D01*
X1107468Y971270D01*
X1107331Y971206D01*
X1107196Y971139D01*
X1107063Y971068D01*
X1106932Y970994D01*
X1106803Y970917D01*
X1106676Y970836D01*
X1106551Y970751D01*
X1106428Y970664D01*
X1106307Y970573D01*
X1106189Y970480D01*
X1106073Y970383D01*
X1105960Y970283D01*
X1105850Y970181D01*
X1105742Y970075D01*
X1105637Y969967D01*
X1105535Y969856D01*
X1105436Y969742D01*
X1105340Y969626D01*
X1105247Y969507D01*
X1105157Y969386D01*
X1105070Y969263D01*
X1104987Y969138D01*
X1104907Y969010D01*
X1104830Y968880D01*
X1104756Y968749D01*
X1104687Y968615D01*
X1104620Y968480D01*
X1104557Y968343D01*
X1104498Y968204D01*
X1104442Y968064D01*
X1104390Y967923D01*
X1104342Y967780D01*
X1104297Y967636D01*
X1104257Y967491D01*
X1104220Y967344D01*
X1104186Y967197D01*
X1104157Y967049D01*
X1104132Y966901D01*
X1104110Y966752D01*
X1104092Y966602D01*
X1104079Y966452D01*
X1104069Y966301D01*
X1104063Y966151D01*
X1104061Y966000D01*
X1104063Y965849D01*
X1104069Y965699D01*
X1104079Y965548D01*
X1104092Y965398D01*
X1104110Y965248D01*
X1104132Y965099D01*
X1104157Y964951D01*
X1104186Y964803D01*
X1104220Y964656D01*
X1104257Y964509D01*
X1104297Y964364D01*
X1104342Y964220D01*
X1104390Y964077D01*
X1104442Y963936D01*
X1104498Y963796D01*
X1104557Y963657D01*
X1104620Y963520D01*
X1104687Y963385D01*
X1104756Y963251D01*
X1104830Y963120D01*
X1104907Y962990D01*
X1104987Y962862D01*
X1105070Y962737D01*
X1105157Y962614D01*
X1105247Y962493D01*
X1105340Y962374D01*
X1105436Y962258D01*
X1105535Y962144D01*
X1105637Y962033D01*
X1105742Y961925D01*
X1105850Y961819D01*
X1105960Y961717D01*
X1106073Y961617D01*
X1106189Y961520D01*
X1106307Y961427D01*
X1106428Y961336D01*
X1106551Y961249D01*
X1106676Y961164D01*
X1106803Y961083D01*
X1106932Y961006D01*
X1107063Y960932D01*
X1107196Y960861D01*
X1107331Y960794D01*
X1107468Y960730D01*
X1107606Y960670D01*
X1107746Y960614D01*
X1107887Y960561D01*
X1108030Y960512D01*
X1108174Y960466D01*
X1108319Y960425D01*
X1108465Y960387D01*
X1108611Y960353D01*
X1108759Y960323D01*
X1108908Y960297D01*
X1109057Y960274D01*
X1109206Y960256D01*
X1109207Y961471D01*
X1109075Y961491D01*
X1108944Y961516D01*
X1108813Y961544D01*
X1108683Y961576D01*
X1108554Y961611D01*
X1108427Y961651D01*
X1108300Y961694D01*
X1108175Y961741D01*
X1108051Y961791D01*
X1107929Y961845D01*
X1107809Y961903D01*
X1107690Y961964D01*
X1107573Y962029D01*
X1107458Y962097D01*
X1107345Y962168D01*
X1107234Y962242D01*
X1107125Y962320D01*
X1107019Y962401D01*
X1106915Y962485D01*
X1106813Y962572D01*
X1106714Y962662D01*
X1106618Y962755D01*
X1106525Y962850D01*
X1106434Y962948D01*
X1106346Y963049D01*
X1106262Y963153D01*
X1106180Y963258D01*
X1106101Y963366D01*
X1106026Y963477D01*
X1105954Y963589D01*
X1105885Y963704D01*
X1105820Y963820D01*
X1105758Y963939D01*
X1105699Y964059D01*
X1105644Y964181D01*
X1105593Y964304D01*
X1105545Y964429D01*
X1105501Y964555D01*
X1105461Y964683D01*
X1105424Y964811D01*
X1105391Y964941D01*
X1105362Y965071D01*
X1105337Y965202D01*
X1105316Y965334D01*
X1105298Y965467D01*
X1105285Y965600D01*
X1105275Y965733D01*
X1105269Y965866D01*
X1105267Y966000D01*
X1105269Y966134D01*
X1105275Y966267D01*
X1105285Y966400D01*
X1105298Y966533D01*
X1105316Y966666D01*
X1105337Y966798D01*
X1105362Y966929D01*
X1105391Y967059D01*
X1105424Y967189D01*
X1105461Y967317D01*
X1105501Y967445D01*
X1105545Y967571D01*
X1105593Y967696D01*
X1105644Y967819D01*
X1105699Y967941D01*
X1105758Y968061D01*
X1105820Y968180D01*
X1105885Y968296D01*
X1105954Y968411D01*
X1106026Y968523D01*
X1106101Y968634D01*
X1106180Y968742D01*
X1106262Y968847D01*
X1106346Y968951D01*
X1106434Y969052D01*
X1106525Y969150D01*
X1106618Y969245D01*
X1106714Y969338D01*
X1106813Y969428D01*
X1106915Y969515D01*
X1107019Y969599D01*
X1107125Y969680D01*
X1107234Y969758D01*
X1107345Y969832D01*
X1107458Y969903D01*
X1107573Y969971D01*
X1107690Y970036D01*
X1107809Y970097D01*
X1107929Y970155D01*
X1108051Y970209D01*
X1108175Y970259D01*
X1108300Y970306D01*
X1108427Y970349D01*
X1108554Y970389D01*
X1108683Y970424D01*
X1108813Y970456D01*
X1108944Y970484D01*
X1109075Y970509D01*
X1109207Y970529D01*
X1109209Y969307D01*
X1109096Y969284D01*
X1108985Y969257D01*
X1108874Y969225D01*
X1108765Y969191D01*
X1108656Y969152D01*
X1108549Y969110D01*
X1108444Y969064D01*
X1108340Y969015D01*
X1108238Y968962D01*
X1108138Y968905D01*
X1108040Y968846D01*
X1107944Y968782D01*
X1107850Y968716D01*
X1107759Y968647D01*
X1107670Y968574D01*
X1107583Y968499D01*
X1107499Y968420D01*
X1107418Y968339D01*
X1107339Y968255D01*
X1107264Y968168D01*
X1107191Y968079D01*
X1107122Y967987D01*
X1107056Y967893D01*
X1106993Y967797D01*
X1106933Y967699D01*
X1106877Y967599D01*
X1106824Y967497D01*
X1106775Y967393D01*
X1106729Y967288D01*
X1106687Y967181D01*
X1106648Y967073D01*
X1106614Y966963D01*
X1106583Y966852D01*
X1106556Y966741D01*
X1106532Y966628D01*
X1106513Y966515D01*
X1106497Y966401D01*
X1106485Y966287D01*
X1106477Y966172D01*
X1106473Y966057D01*
X1106473Y965943D01*
X1106477Y965828D01*
X1106485Y965713D01*
X1106497Y965599D01*
X1106513Y965485D01*
X1106532Y965372D01*
X1106556Y965259D01*
X1106583Y965148D01*
X1106614Y965037D01*
X1106648Y964927D01*
X1106687Y964819D01*
X1106729Y964712D01*
X1106775Y964607D01*
X1106824Y964503D01*
X1106877Y964401D01*
X1106933Y964301D01*
X1106993Y964203D01*
X1107056Y964107D01*
X1107122Y964013D01*
X1107191Y963921D01*
X1107264Y963832D01*
X1107339Y963745D01*
X1107418Y963661D01*
X1107499Y963580D01*
X1107583Y963501D01*
X1107670Y963426D01*
X1107759Y963353D01*
X1107850Y963284D01*
X1107944Y963218D01*
X1108040Y963154D01*
X1108138Y963095D01*
X1108238Y963038D01*
X1108340Y962985D01*
X1108444Y962936D01*
X1108549Y962890D01*
X1108656Y962848D01*
X1108765Y962809D01*
X1108874Y962775D01*
X1108985Y962743D01*
X1109096Y962716D01*
X1109209Y962693D01*
X1109214Y963932D01*
X1109127Y963960D01*
X1109040Y963992D01*
X1108956Y964028D01*
X1108873Y964068D01*
X1108791Y964110D01*
X1108712Y964157D01*
X1108634Y964207D01*
X1108559Y964259D01*
X1108486Y964316D01*
X1108416Y964375D01*
X1108348Y964437D01*
X1108283Y964502D01*
X1108220Y964569D01*
X1108161Y964639D01*
X1108105Y964712D01*
X1108051Y964787D01*
X1108001Y964864D01*
X1107955Y964944D01*
X1107912Y965025D01*
X1107872Y965108D01*
X1107836Y965192D01*
X1107803Y965278D01*
X1107774Y965366D01*
X1107749Y965454D01*
X1107728Y965544D01*
X1107710Y965634D01*
X1107697Y965725D01*
X1107687Y965816D01*
X1107681Y965908D01*
X1107679Y966000D01*
X1107681Y966092D01*
X1107687Y966184D01*
X1107697Y966275D01*
X1107710Y966366D01*
X1107728Y966456D01*
X1107749Y966546D01*
X1107774Y966634D01*
X1107803Y966722D01*
X1107836Y966808D01*
X1107872Y966892D01*
X1107912Y966975D01*
X1107955Y967056D01*
X1108001Y967136D01*
X1108051Y967213D01*
X1108105Y967288D01*
X1108161Y967361D01*
X1108220Y967431D01*
X1108283Y967498D01*
X1108348Y967563D01*
X1108416Y967625D01*
X1108486Y967684D01*
X1108559Y967741D01*
X1108634Y967793D01*
X1108712Y967843D01*
X1108791Y967890D01*
X1108873Y967932D01*
X1108956Y967972D01*
X1109040Y968008D01*
X1109127Y968040D01*
X1109214Y968068D01*
X1109251Y966752D01*
X1109205Y966713D01*
X1109162Y966672D01*
X1109121Y966629D01*
X1109083Y966582D01*
X1109048Y966534D01*
X1109017Y966484D01*
X1108988Y966431D01*
X1108963Y966377D01*
X1108941Y966322D01*
X1108922Y966265D01*
X1108908Y966207D01*
X1108897Y966149D01*
X1108889Y966089D01*
X1108885Y966030D01*
X1108885Y965970D01*
X1108889Y965911D01*
X1108897Y965851D01*
X1108908Y965793D01*
X1108922Y965735D01*
X1108941Y965678D01*
X1108963Y965623D01*
X1108988Y965569D01*
X1109017Y965516D01*
X1109048Y965466D01*
X1109083Y965418D01*
X1109121Y965371D01*
X1109162Y965328D01*
X1109205Y965287D01*
X1109251Y965248D01*
D16*
X1120000Y966000D03*
D10*
X1116440Y987680D02*
X1116440Y996320D01*
X1123560Y996320D02*
X1123560Y987680D01*
D17*
X1120000Y998350D03*
X1120000Y985650D03*
D12*
X917560Y1430320D02*
X910440Y1430320D01*
X910440Y1421810D02*
X917560Y1421810D01*
D14*
X919882Y1426051D03*
X908198Y1426051D03*
D12*
X1019440Y1467680D02*
X1026560Y1467680D01*
X1026560Y1476190D02*
X1019440Y1476190D01*
D14*
X1017119Y1471949D03*
X1028803Y1471949D03*
D12*
X917560Y1442320D02*
X910440Y1442320D01*
X910440Y1433810D02*
X917560Y1433810D01*
D14*
X919882Y1438051D03*
X908198Y1438051D03*
D12*
X1022440Y1443680D02*
X1029560Y1443680D01*
X1029560Y1452190D02*
X1022440Y1452190D01*
D14*
X1020119Y1447949D03*
X1031803Y1447949D03*
D12*
X1029560Y1455680D02*
X1022440Y1455680D01*
X1022440Y1464190D02*
X1029560Y1464190D01*
D14*
X1020119Y1459949D03*
X1031803Y1459949D03*
D10*
X1203030Y1249840D02*
X1230970Y1249840D01*
X1203030Y1270160D02*
X1202930Y1270158D01*
X1202831Y1270152D01*
X1202731Y1270142D01*
X1202633Y1270129D01*
X1202534Y1270111D01*
X1202437Y1270090D01*
X1202341Y1270065D01*
X1202245Y1270036D01*
X1202151Y1270003D01*
X1202058Y1269967D01*
X1201967Y1269927D01*
X1201877Y1269883D01*
X1201789Y1269836D01*
X1201703Y1269786D01*
X1201619Y1269732D01*
X1201537Y1269675D01*
X1201458Y1269615D01*
X1201380Y1269551D01*
X1201306Y1269485D01*
X1201234Y1269416D01*
X1201165Y1269344D01*
X1201099Y1269270D01*
X1201035Y1269192D01*
X1200975Y1269113D01*
X1200918Y1269031D01*
X1200864Y1268947D01*
X1200814Y1268861D01*
X1200767Y1268773D01*
X1200723Y1268683D01*
X1200683Y1268592D01*
X1200647Y1268499D01*
X1200614Y1268405D01*
X1200585Y1268309D01*
X1200560Y1268213D01*
X1200539Y1268116D01*
X1200521Y1268017D01*
X1200508Y1267919D01*
X1200498Y1267819D01*
X1200492Y1267720D01*
X1200490Y1267620D01*
X1230970Y1270160D02*
X1231070Y1270158D01*
X1231169Y1270152D01*
X1231269Y1270142D01*
X1231367Y1270129D01*
X1231466Y1270111D01*
X1231563Y1270090D01*
X1231659Y1270065D01*
X1231755Y1270036D01*
X1231849Y1270003D01*
X1231942Y1269967D01*
X1232033Y1269927D01*
X1232123Y1269883D01*
X1232211Y1269836D01*
X1232297Y1269786D01*
X1232381Y1269732D01*
X1232463Y1269675D01*
X1232542Y1269615D01*
X1232620Y1269551D01*
X1232694Y1269485D01*
X1232766Y1269416D01*
X1232835Y1269344D01*
X1232901Y1269270D01*
X1232965Y1269192D01*
X1233025Y1269113D01*
X1233082Y1269031D01*
X1233136Y1268947D01*
X1233186Y1268861D01*
X1233233Y1268773D01*
X1233277Y1268683D01*
X1233317Y1268592D01*
X1233353Y1268499D01*
X1233386Y1268405D01*
X1233415Y1268309D01*
X1233440Y1268213D01*
X1233461Y1268116D01*
X1233479Y1268017D01*
X1233492Y1267919D01*
X1233502Y1267819D01*
X1233508Y1267720D01*
X1233510Y1267620D01*
X1233510Y1252380D02*
X1233508Y1252280D01*
X1233502Y1252181D01*
X1233492Y1252081D01*
X1233479Y1251983D01*
X1233461Y1251884D01*
X1233440Y1251787D01*
X1233415Y1251691D01*
X1233386Y1251595D01*
X1233353Y1251501D01*
X1233317Y1251408D01*
X1233277Y1251317D01*
X1233233Y1251227D01*
X1233186Y1251139D01*
X1233136Y1251053D01*
X1233082Y1250969D01*
X1233025Y1250887D01*
X1232965Y1250808D01*
X1232901Y1250730D01*
X1232835Y1250656D01*
X1232766Y1250584D01*
X1232694Y1250515D01*
X1232620Y1250449D01*
X1232542Y1250385D01*
X1232463Y1250325D01*
X1232381Y1250268D01*
X1232297Y1250214D01*
X1232211Y1250164D01*
X1232123Y1250117D01*
X1232033Y1250073D01*
X1231942Y1250033D01*
X1231849Y1249997D01*
X1231755Y1249964D01*
X1231659Y1249935D01*
X1231563Y1249910D01*
X1231466Y1249889D01*
X1231367Y1249871D01*
X1231269Y1249858D01*
X1231169Y1249848D01*
X1231070Y1249842D01*
X1230970Y1249840D01*
X1203030Y1249840D02*
X1202930Y1249842D01*
X1202831Y1249848D01*
X1202731Y1249858D01*
X1202633Y1249871D01*
X1202534Y1249889D01*
X1202437Y1249910D01*
X1202341Y1249935D01*
X1202245Y1249964D01*
X1202151Y1249997D01*
X1202058Y1250033D01*
X1201967Y1250073D01*
X1201877Y1250117D01*
X1201789Y1250164D01*
X1201703Y1250214D01*
X1201619Y1250268D01*
X1201537Y1250325D01*
X1201458Y1250385D01*
X1201380Y1250449D01*
X1201306Y1250515D01*
X1201234Y1250584D01*
X1201165Y1250656D01*
X1201099Y1250730D01*
X1201035Y1250808D01*
X1200975Y1250887D01*
X1200918Y1250969D01*
X1200864Y1251053D01*
X1200814Y1251139D01*
X1200767Y1251227D01*
X1200723Y1251317D01*
X1200683Y1251408D01*
X1200647Y1251501D01*
X1200614Y1251595D01*
X1200585Y1251691D01*
X1200560Y1251787D01*
X1200539Y1251884D01*
X1200521Y1251983D01*
X1200508Y1252081D01*
X1200498Y1252181D01*
X1200492Y1252280D01*
X1200490Y1252380D01*
X1200490Y1267620D01*
X1233510Y1267620D02*
X1233510Y1252380D01*
X1230970Y1270160D02*
X1203030Y1270160D01*
X1201760Y1260000D02*
X1206840Y1260000D01*
X1227160Y1260000D02*
X1232240Y1260000D01*
D11*
X1220174Y1253044D02*
X1219541Y1260000D01*
X1219541Y1260000D01*
X1220174Y1266956D01*
X1220344Y1266939D01*
X1220514Y1266917D01*
X1220682Y1266891D01*
X1220851Y1266861D01*
X1221018Y1266827D01*
X1221185Y1266789D01*
X1221350Y1266746D01*
X1221515Y1266700D01*
X1221678Y1266650D01*
X1221840Y1266596D01*
X1222001Y1266537D01*
X1222160Y1266475D01*
X1222317Y1266409D01*
X1222473Y1266339D01*
X1222627Y1266266D01*
X1222780Y1266188D01*
X1222930Y1266107D01*
X1223078Y1266022D01*
X1223225Y1265934D01*
X1223369Y1265842D01*
X1223510Y1265747D01*
X1223650Y1265648D01*
X1223787Y1265546D01*
X1223921Y1265440D01*
X1224053Y1265331D01*
X1224182Y1265219D01*
X1224308Y1265104D01*
X1224432Y1264986D01*
X1224552Y1264865D01*
X1224670Y1264741D01*
X1224784Y1264614D01*
X1224895Y1264485D01*
X1225003Y1264352D01*
X1225108Y1264217D01*
X1225210Y1264080D01*
X1225308Y1263940D01*
X1225402Y1263798D01*
X1225494Y1263653D01*
X1225581Y1263506D01*
X1225665Y1263358D01*
X1225745Y1263207D01*
X1225822Y1263054D01*
X1225895Y1262900D01*
X1225964Y1262743D01*
X1226029Y1262585D01*
X1226090Y1262426D01*
X1226148Y1262265D01*
X1226201Y1262103D01*
X1226250Y1261939D01*
X1226296Y1261774D01*
X1226337Y1261609D01*
X1226375Y1261442D01*
X1226408Y1261274D01*
X1226437Y1261106D01*
X1226462Y1260937D01*
X1226483Y1260767D01*
X1226499Y1260597D01*
X1226512Y1260427D01*
X1226520Y1260256D01*
X1226524Y1260085D01*
X1226524Y1259915D01*
X1226520Y1259744D01*
X1226512Y1259573D01*
X1226499Y1259403D01*
X1226483Y1259233D01*
X1226462Y1259063D01*
X1226437Y1258894D01*
X1226408Y1258726D01*
X1226375Y1258558D01*
X1226337Y1258391D01*
X1226296Y1258226D01*
X1226250Y1258061D01*
X1226201Y1257897D01*
X1226148Y1257735D01*
X1226090Y1257574D01*
X1226029Y1257415D01*
X1225964Y1257257D01*
X1225895Y1257100D01*
X1225822Y1256946D01*
X1225745Y1256793D01*
X1225665Y1256642D01*
X1225581Y1256494D01*
X1225494Y1256347D01*
X1225402Y1256202D01*
X1225308Y1256060D01*
X1225210Y1255920D01*
X1225108Y1255783D01*
X1225003Y1255648D01*
X1224895Y1255515D01*
X1224784Y1255386D01*
X1224670Y1255259D01*
X1224552Y1255135D01*
X1224432Y1255014D01*
X1224308Y1254896D01*
X1224182Y1254781D01*
X1224053Y1254669D01*
X1223921Y1254560D01*
X1223787Y1254454D01*
X1223650Y1254352D01*
X1223510Y1254253D01*
X1223369Y1254158D01*
X1223225Y1254066D01*
X1223078Y1253978D01*
X1222930Y1253893D01*
X1222780Y1253812D01*
X1222627Y1253734D01*
X1222473Y1253661D01*
X1222317Y1253591D01*
X1222160Y1253525D01*
X1222001Y1253463D01*
X1221840Y1253404D01*
X1221678Y1253350D01*
X1221515Y1253300D01*
X1221350Y1253254D01*
X1221185Y1253211D01*
X1221018Y1253173D01*
X1220851Y1253139D01*
X1220682Y1253109D01*
X1220514Y1253083D01*
X1220344Y1253061D01*
X1220174Y1253044D01*
X1220174Y1254256D01*
X1220323Y1254274D01*
X1220472Y1254297D01*
X1220621Y1254323D01*
X1220769Y1254353D01*
X1220915Y1254387D01*
X1221061Y1254425D01*
X1221206Y1254466D01*
X1221350Y1254512D01*
X1221493Y1254561D01*
X1221634Y1254614D01*
X1221774Y1254670D01*
X1221912Y1254730D01*
X1222049Y1254794D01*
X1222184Y1254861D01*
X1222317Y1254932D01*
X1222448Y1255006D01*
X1222577Y1255083D01*
X1222704Y1255164D01*
X1222829Y1255249D01*
X1222952Y1255336D01*
X1223073Y1255427D01*
X1223191Y1255520D01*
X1223307Y1255617D01*
X1223420Y1255717D01*
X1223530Y1255819D01*
X1223638Y1255925D01*
X1223743Y1256033D01*
X1223845Y1256144D01*
X1223944Y1256258D01*
X1224040Y1256374D01*
X1224133Y1256493D01*
X1224223Y1256614D01*
X1224310Y1256737D01*
X1224393Y1256862D01*
X1224473Y1256990D01*
X1224550Y1257120D01*
X1224624Y1257251D01*
X1224693Y1257385D01*
X1224760Y1257520D01*
X1224823Y1257657D01*
X1224882Y1257796D01*
X1224938Y1257936D01*
X1224990Y1258077D01*
X1225038Y1258220D01*
X1225083Y1258364D01*
X1225123Y1258509D01*
X1225160Y1258656D01*
X1225194Y1258803D01*
X1225223Y1258951D01*
X1225248Y1259099D01*
X1225270Y1259248D01*
X1225288Y1259398D01*
X1225301Y1259548D01*
X1225311Y1259699D01*
X1225317Y1259849D01*
X1225319Y1260000D01*
X1225317Y1260151D01*
X1225311Y1260301D01*
X1225301Y1260452D01*
X1225288Y1260602D01*
X1225270Y1260752D01*
X1225248Y1260901D01*
X1225223Y1261049D01*
X1225194Y1261197D01*
X1225160Y1261344D01*
X1225123Y1261491D01*
X1225083Y1261636D01*
X1225038Y1261780D01*
X1224990Y1261923D01*
X1224938Y1262064D01*
X1224882Y1262204D01*
X1224823Y1262343D01*
X1224760Y1262480D01*
X1224693Y1262615D01*
X1224624Y1262749D01*
X1224550Y1262880D01*
X1224473Y1263010D01*
X1224393Y1263138D01*
X1224310Y1263263D01*
X1224223Y1263386D01*
X1224133Y1263507D01*
X1224040Y1263626D01*
X1223944Y1263742D01*
X1223845Y1263856D01*
X1223743Y1263967D01*
X1223638Y1264075D01*
X1223530Y1264181D01*
X1223420Y1264283D01*
X1223307Y1264383D01*
X1223191Y1264480D01*
X1223073Y1264573D01*
X1222952Y1264664D01*
X1222829Y1264751D01*
X1222704Y1264836D01*
X1222577Y1264917D01*
X1222448Y1264994D01*
X1222317Y1265068D01*
X1222184Y1265139D01*
X1222049Y1265206D01*
X1221912Y1265270D01*
X1221774Y1265330D01*
X1221634Y1265386D01*
X1221493Y1265439D01*
X1221350Y1265488D01*
X1221206Y1265534D01*
X1221061Y1265575D01*
X1220915Y1265613D01*
X1220769Y1265647D01*
X1220621Y1265677D01*
X1220472Y1265703D01*
X1220323Y1265726D01*
X1220174Y1265744D01*
X1220173Y1264529D01*
X1220305Y1264509D01*
X1220436Y1264484D01*
X1220567Y1264456D01*
X1220697Y1264424D01*
X1220826Y1264389D01*
X1220953Y1264349D01*
X1221080Y1264306D01*
X1221205Y1264259D01*
X1221329Y1264209D01*
X1221451Y1264155D01*
X1221571Y1264097D01*
X1221690Y1264036D01*
X1221807Y1263971D01*
X1221922Y1263903D01*
X1222035Y1263832D01*
X1222146Y1263758D01*
X1222255Y1263680D01*
X1222361Y1263599D01*
X1222465Y1263515D01*
X1222567Y1263428D01*
X1222666Y1263338D01*
X1222762Y1263245D01*
X1222855Y1263150D01*
X1222946Y1263052D01*
X1223034Y1262951D01*
X1223118Y1262847D01*
X1223200Y1262742D01*
X1223279Y1262634D01*
X1223354Y1262523D01*
X1223426Y1262411D01*
X1223495Y1262296D01*
X1223560Y1262180D01*
X1223622Y1262061D01*
X1223681Y1261941D01*
X1223736Y1261819D01*
X1223787Y1261696D01*
X1223835Y1261571D01*
X1223879Y1261445D01*
X1223919Y1261317D01*
X1223956Y1261189D01*
X1223989Y1261059D01*
X1224018Y1260929D01*
X1224043Y1260798D01*
X1224064Y1260666D01*
X1224082Y1260533D01*
X1224095Y1260400D01*
X1224105Y1260267D01*
X1224111Y1260134D01*
X1224113Y1260000D01*
X1224111Y1259866D01*
X1224105Y1259733D01*
X1224095Y1259600D01*
X1224082Y1259467D01*
X1224064Y1259334D01*
X1224043Y1259202D01*
X1224018Y1259071D01*
X1223989Y1258941D01*
X1223956Y1258811D01*
X1223919Y1258683D01*
X1223879Y1258555D01*
X1223835Y1258429D01*
X1223787Y1258304D01*
X1223736Y1258181D01*
X1223681Y1258059D01*
X1223622Y1257939D01*
X1223560Y1257820D01*
X1223495Y1257704D01*
X1223426Y1257589D01*
X1223354Y1257477D01*
X1223279Y1257366D01*
X1223200Y1257258D01*
X1223118Y1257153D01*
X1223034Y1257049D01*
X1222946Y1256948D01*
X1222855Y1256850D01*
X1222762Y1256755D01*
X1222666Y1256662D01*
X1222567Y1256572D01*
X1222465Y1256485D01*
X1222361Y1256401D01*
X1222255Y1256320D01*
X1222146Y1256242D01*
X1222035Y1256168D01*
X1221922Y1256097D01*
X1221807Y1256029D01*
X1221690Y1255964D01*
X1221571Y1255903D01*
X1221451Y1255845D01*
X1221329Y1255791D01*
X1221205Y1255741D01*
X1221080Y1255694D01*
X1220953Y1255651D01*
X1220826Y1255611D01*
X1220697Y1255576D01*
X1220567Y1255544D01*
X1220436Y1255516D01*
X1220305Y1255491D01*
X1220173Y1255471D01*
X1220171Y1256693D01*
X1220284Y1256716D01*
X1220395Y1256743D01*
X1220506Y1256775D01*
X1220615Y1256809D01*
X1220724Y1256848D01*
X1220831Y1256890D01*
X1220936Y1256936D01*
X1221040Y1256985D01*
X1221142Y1257038D01*
X1221242Y1257095D01*
X1221340Y1257154D01*
X1221436Y1257218D01*
X1221530Y1257284D01*
X1221621Y1257353D01*
X1221710Y1257426D01*
X1221797Y1257501D01*
X1221881Y1257580D01*
X1221962Y1257661D01*
X1222041Y1257745D01*
X1222116Y1257832D01*
X1222189Y1257921D01*
X1222258Y1258013D01*
X1222324Y1258107D01*
X1222387Y1258203D01*
X1222447Y1258301D01*
X1222503Y1258401D01*
X1222556Y1258503D01*
X1222605Y1258607D01*
X1222651Y1258712D01*
X1222693Y1258819D01*
X1222732Y1258927D01*
X1222766Y1259037D01*
X1222797Y1259148D01*
X1222824Y1259259D01*
X1222848Y1259372D01*
X1222867Y1259485D01*
X1222883Y1259599D01*
X1222895Y1259713D01*
X1222903Y1259828D01*
X1222907Y1259943D01*
X1222907Y1260057D01*
X1222903Y1260172D01*
X1222895Y1260287D01*
X1222883Y1260401D01*
X1222867Y1260515D01*
X1222848Y1260628D01*
X1222824Y1260741D01*
X1222797Y1260852D01*
X1222766Y1260963D01*
X1222732Y1261073D01*
X1222693Y1261181D01*
X1222651Y1261288D01*
X1222605Y1261393D01*
X1222556Y1261497D01*
X1222503Y1261599D01*
X1222447Y1261699D01*
X1222387Y1261797D01*
X1222324Y1261893D01*
X1222258Y1261987D01*
X1222189Y1262079D01*
X1222116Y1262168D01*
X1222041Y1262255D01*
X1221962Y1262339D01*
X1221881Y1262420D01*
X1221797Y1262499D01*
X1221710Y1262574D01*
X1221621Y1262647D01*
X1221530Y1262716D01*
X1221436Y1262782D01*
X1221340Y1262846D01*
X1221242Y1262905D01*
X1221142Y1262962D01*
X1221040Y1263015D01*
X1220936Y1263064D01*
X1220831Y1263110D01*
X1220724Y1263152D01*
X1220615Y1263191D01*
X1220506Y1263225D01*
X1220395Y1263257D01*
X1220284Y1263284D01*
X1220171Y1263307D01*
X1220166Y1262068D01*
X1220253Y1262040D01*
X1220340Y1262008D01*
X1220424Y1261972D01*
X1220507Y1261932D01*
X1220589Y1261890D01*
X1220668Y1261843D01*
X1220746Y1261793D01*
X1220821Y1261741D01*
X1220894Y1261684D01*
X1220964Y1261625D01*
X1221032Y1261563D01*
X1221097Y1261498D01*
X1221160Y1261431D01*
X1221219Y1261361D01*
X1221275Y1261288D01*
X1221329Y1261213D01*
X1221379Y1261136D01*
X1221425Y1261056D01*
X1221468Y1260975D01*
X1221508Y1260892D01*
X1221544Y1260808D01*
X1221577Y1260722D01*
X1221606Y1260634D01*
X1221631Y1260546D01*
X1221652Y1260456D01*
X1221670Y1260366D01*
X1221683Y1260275D01*
X1221693Y1260184D01*
X1221699Y1260092D01*
X1221701Y1260000D01*
X1221699Y1259908D01*
X1221693Y1259816D01*
X1221683Y1259725D01*
X1221670Y1259634D01*
X1221652Y1259544D01*
X1221631Y1259454D01*
X1221606Y1259366D01*
X1221577Y1259278D01*
X1221544Y1259192D01*
X1221508Y1259108D01*
X1221468Y1259025D01*
X1221425Y1258944D01*
X1221379Y1258864D01*
X1221329Y1258787D01*
X1221275Y1258712D01*
X1221219Y1258639D01*
X1221160Y1258569D01*
X1221097Y1258502D01*
X1221032Y1258437D01*
X1220964Y1258375D01*
X1220894Y1258316D01*
X1220821Y1258259D01*
X1220746Y1258207D01*
X1220668Y1258157D01*
X1220589Y1258110D01*
X1220507Y1258068D01*
X1220424Y1258028D01*
X1220340Y1257992D01*
X1220253Y1257960D01*
X1220166Y1257932D01*
X1220129Y1259248D01*
X1220175Y1259287D01*
X1220218Y1259328D01*
X1220259Y1259371D01*
X1220297Y1259418D01*
X1220332Y1259466D01*
X1220363Y1259516D01*
X1220392Y1259569D01*
X1220417Y1259623D01*
X1220439Y1259678D01*
X1220458Y1259735D01*
X1220472Y1259793D01*
X1220483Y1259851D01*
X1220491Y1259911D01*
X1220495Y1259970D01*
X1220495Y1260030D01*
X1220491Y1260089D01*
X1220483Y1260149D01*
X1220472Y1260207D01*
X1220458Y1260265D01*
X1220439Y1260322D01*
X1220417Y1260377D01*
X1220392Y1260431D01*
X1220363Y1260484D01*
X1220332Y1260534D01*
X1220297Y1260582D01*
X1220259Y1260629D01*
X1220218Y1260672D01*
X1220175Y1260713D01*
X1220129Y1260752D01*
X1213826Y1266956D02*
X1214459Y1260000D01*
X1214459Y1260000D01*
X1213826Y1253044D01*
X1213656Y1253061D01*
X1213486Y1253083D01*
X1213318Y1253109D01*
X1213149Y1253139D01*
X1212982Y1253173D01*
X1212815Y1253211D01*
X1212650Y1253254D01*
X1212485Y1253300D01*
X1212322Y1253350D01*
X1212160Y1253404D01*
X1211999Y1253463D01*
X1211840Y1253525D01*
X1211683Y1253591D01*
X1211527Y1253661D01*
X1211373Y1253734D01*
X1211220Y1253812D01*
X1211070Y1253893D01*
X1210922Y1253978D01*
X1210775Y1254066D01*
X1210631Y1254158D01*
X1210490Y1254253D01*
X1210350Y1254352D01*
X1210213Y1254454D01*
X1210079Y1254560D01*
X1209947Y1254669D01*
X1209818Y1254781D01*
X1209692Y1254896D01*
X1209568Y1255014D01*
X1209448Y1255135D01*
X1209330Y1255259D01*
X1209216Y1255386D01*
X1209105Y1255515D01*
X1208997Y1255648D01*
X1208892Y1255783D01*
X1208790Y1255920D01*
X1208692Y1256060D01*
X1208598Y1256202D01*
X1208506Y1256347D01*
X1208419Y1256494D01*
X1208335Y1256642D01*
X1208255Y1256793D01*
X1208178Y1256946D01*
X1208105Y1257100D01*
X1208036Y1257257D01*
X1207971Y1257415D01*
X1207910Y1257574D01*
X1207852Y1257735D01*
X1207799Y1257897D01*
X1207750Y1258061D01*
X1207704Y1258226D01*
X1207663Y1258391D01*
X1207625Y1258558D01*
X1207592Y1258726D01*
X1207563Y1258894D01*
X1207538Y1259063D01*
X1207517Y1259233D01*
X1207501Y1259403D01*
X1207488Y1259573D01*
X1207480Y1259744D01*
X1207476Y1259915D01*
X1207476Y1260085D01*
X1207480Y1260256D01*
X1207488Y1260427D01*
X1207501Y1260597D01*
X1207517Y1260767D01*
X1207538Y1260937D01*
X1207563Y1261106D01*
X1207592Y1261274D01*
X1207625Y1261442D01*
X1207663Y1261609D01*
X1207704Y1261774D01*
X1207750Y1261939D01*
X1207799Y1262103D01*
X1207852Y1262265D01*
X1207910Y1262426D01*
X1207971Y1262585D01*
X1208036Y1262743D01*
X1208105Y1262900D01*
X1208178Y1263054D01*
X1208255Y1263207D01*
X1208335Y1263358D01*
X1208419Y1263506D01*
X1208506Y1263653D01*
X1208598Y1263798D01*
X1208692Y1263940D01*
X1208790Y1264080D01*
X1208892Y1264217D01*
X1208997Y1264352D01*
X1209105Y1264485D01*
X1209216Y1264614D01*
X1209330Y1264741D01*
X1209448Y1264865D01*
X1209568Y1264986D01*
X1209692Y1265104D01*
X1209818Y1265219D01*
X1209947Y1265331D01*
X1210079Y1265440D01*
X1210213Y1265546D01*
X1210350Y1265648D01*
X1210490Y1265747D01*
X1210631Y1265842D01*
X1210775Y1265934D01*
X1210922Y1266022D01*
X1211070Y1266107D01*
X1211220Y1266188D01*
X1211373Y1266266D01*
X1211527Y1266339D01*
X1211683Y1266409D01*
X1211840Y1266475D01*
X1211999Y1266537D01*
X1212160Y1266596D01*
X1212322Y1266650D01*
X1212485Y1266700D01*
X1212650Y1266746D01*
X1212815Y1266789D01*
X1212982Y1266827D01*
X1213149Y1266861D01*
X1213318Y1266891D01*
X1213486Y1266917D01*
X1213656Y1266939D01*
X1213826Y1266956D01*
X1213826Y1265744D01*
X1213677Y1265726D01*
X1213528Y1265703D01*
X1213379Y1265677D01*
X1213231Y1265647D01*
X1213085Y1265613D01*
X1212939Y1265575D01*
X1212794Y1265534D01*
X1212650Y1265488D01*
X1212507Y1265439D01*
X1212366Y1265386D01*
X1212226Y1265330D01*
X1212088Y1265270D01*
X1211951Y1265206D01*
X1211816Y1265139D01*
X1211683Y1265068D01*
X1211552Y1264994D01*
X1211423Y1264917D01*
X1211296Y1264836D01*
X1211171Y1264751D01*
X1211048Y1264664D01*
X1210927Y1264573D01*
X1210809Y1264480D01*
X1210693Y1264383D01*
X1210580Y1264283D01*
X1210470Y1264181D01*
X1210362Y1264075D01*
X1210257Y1263967D01*
X1210155Y1263856D01*
X1210056Y1263742D01*
X1209960Y1263626D01*
X1209867Y1263507D01*
X1209777Y1263386D01*
X1209690Y1263263D01*
X1209607Y1263138D01*
X1209527Y1263010D01*
X1209450Y1262880D01*
X1209376Y1262749D01*
X1209307Y1262615D01*
X1209240Y1262480D01*
X1209177Y1262343D01*
X1209118Y1262204D01*
X1209062Y1262064D01*
X1209010Y1261923D01*
X1208962Y1261780D01*
X1208917Y1261636D01*
X1208877Y1261491D01*
X1208840Y1261344D01*
X1208806Y1261197D01*
X1208777Y1261049D01*
X1208752Y1260901D01*
X1208730Y1260752D01*
X1208712Y1260602D01*
X1208699Y1260452D01*
X1208689Y1260301D01*
X1208683Y1260151D01*
X1208681Y1260000D01*
X1208683Y1259849D01*
X1208689Y1259699D01*
X1208699Y1259548D01*
X1208712Y1259398D01*
X1208730Y1259248D01*
X1208752Y1259099D01*
X1208777Y1258951D01*
X1208806Y1258803D01*
X1208840Y1258656D01*
X1208877Y1258509D01*
X1208917Y1258364D01*
X1208962Y1258220D01*
X1209010Y1258077D01*
X1209062Y1257936D01*
X1209118Y1257796D01*
X1209177Y1257657D01*
X1209240Y1257520D01*
X1209307Y1257385D01*
X1209376Y1257251D01*
X1209450Y1257120D01*
X1209527Y1256990D01*
X1209607Y1256862D01*
X1209690Y1256737D01*
X1209777Y1256614D01*
X1209867Y1256493D01*
X1209960Y1256374D01*
X1210056Y1256258D01*
X1210155Y1256144D01*
X1210257Y1256033D01*
X1210362Y1255925D01*
X1210470Y1255819D01*
X1210580Y1255717D01*
X1210693Y1255617D01*
X1210809Y1255520D01*
X1210927Y1255427D01*
X1211048Y1255336D01*
X1211171Y1255249D01*
X1211296Y1255164D01*
X1211423Y1255083D01*
X1211552Y1255006D01*
X1211683Y1254932D01*
X1211816Y1254861D01*
X1211951Y1254794D01*
X1212088Y1254730D01*
X1212226Y1254670D01*
X1212366Y1254614D01*
X1212507Y1254561D01*
X1212650Y1254512D01*
X1212794Y1254466D01*
X1212939Y1254425D01*
X1213085Y1254387D01*
X1213231Y1254353D01*
X1213379Y1254323D01*
X1213528Y1254297D01*
X1213677Y1254274D01*
X1213826Y1254256D01*
X1213827Y1255471D01*
X1213695Y1255491D01*
X1213564Y1255516D01*
X1213433Y1255544D01*
X1213303Y1255576D01*
X1213174Y1255611D01*
X1213047Y1255651D01*
X1212920Y1255694D01*
X1212795Y1255741D01*
X1212671Y1255791D01*
X1212549Y1255845D01*
X1212429Y1255903D01*
X1212310Y1255964D01*
X1212193Y1256029D01*
X1212078Y1256097D01*
X1211965Y1256168D01*
X1211854Y1256242D01*
X1211745Y1256320D01*
X1211639Y1256401D01*
X1211535Y1256485D01*
X1211433Y1256572D01*
X1211334Y1256662D01*
X1211238Y1256755D01*
X1211145Y1256850D01*
X1211054Y1256948D01*
X1210966Y1257049D01*
X1210882Y1257153D01*
X1210800Y1257258D01*
X1210721Y1257366D01*
X1210646Y1257477D01*
X1210574Y1257589D01*
X1210505Y1257704D01*
X1210440Y1257820D01*
X1210378Y1257939D01*
X1210319Y1258059D01*
X1210264Y1258181D01*
X1210213Y1258304D01*
X1210165Y1258429D01*
X1210121Y1258555D01*
X1210081Y1258683D01*
X1210044Y1258811D01*
X1210011Y1258941D01*
X1209982Y1259071D01*
X1209957Y1259202D01*
X1209936Y1259334D01*
X1209918Y1259467D01*
X1209905Y1259600D01*
X1209895Y1259733D01*
X1209889Y1259866D01*
X1209887Y1260000D01*
X1209889Y1260134D01*
X1209895Y1260267D01*
X1209905Y1260400D01*
X1209918Y1260533D01*
X1209936Y1260666D01*
X1209957Y1260798D01*
X1209982Y1260929D01*
X1210011Y1261059D01*
X1210044Y1261189D01*
X1210081Y1261317D01*
X1210121Y1261445D01*
X1210165Y1261571D01*
X1210213Y1261696D01*
X1210264Y1261819D01*
X1210319Y1261941D01*
X1210378Y1262061D01*
X1210440Y1262180D01*
X1210505Y1262296D01*
X1210574Y1262411D01*
X1210646Y1262523D01*
X1210721Y1262634D01*
X1210800Y1262742D01*
X1210882Y1262847D01*
X1210966Y1262951D01*
X1211054Y1263052D01*
X1211145Y1263150D01*
X1211238Y1263245D01*
X1211334Y1263338D01*
X1211433Y1263428D01*
X1211535Y1263515D01*
X1211639Y1263599D01*
X1211745Y1263680D01*
X1211854Y1263758D01*
X1211965Y1263832D01*
X1212078Y1263903D01*
X1212193Y1263971D01*
X1212310Y1264036D01*
X1212429Y1264097D01*
X1212549Y1264155D01*
X1212671Y1264209D01*
X1212795Y1264259D01*
X1212920Y1264306D01*
X1213047Y1264349D01*
X1213174Y1264389D01*
X1213303Y1264424D01*
X1213433Y1264456D01*
X1213564Y1264484D01*
X1213695Y1264509D01*
X1213827Y1264529D01*
X1213829Y1263307D01*
X1213716Y1263284D01*
X1213605Y1263257D01*
X1213494Y1263225D01*
X1213385Y1263191D01*
X1213276Y1263152D01*
X1213169Y1263110D01*
X1213064Y1263064D01*
X1212960Y1263015D01*
X1212858Y1262962D01*
X1212758Y1262905D01*
X1212660Y1262846D01*
X1212564Y1262782D01*
X1212470Y1262716D01*
X1212379Y1262647D01*
X1212290Y1262574D01*
X1212203Y1262499D01*
X1212119Y1262420D01*
X1212038Y1262339D01*
X1211959Y1262255D01*
X1211884Y1262168D01*
X1211811Y1262079D01*
X1211742Y1261987D01*
X1211676Y1261893D01*
X1211613Y1261797D01*
X1211553Y1261699D01*
X1211497Y1261599D01*
X1211444Y1261497D01*
X1211395Y1261393D01*
X1211349Y1261288D01*
X1211307Y1261181D01*
X1211268Y1261073D01*
X1211234Y1260963D01*
X1211203Y1260852D01*
X1211176Y1260741D01*
X1211152Y1260628D01*
X1211133Y1260515D01*
X1211117Y1260401D01*
X1211105Y1260287D01*
X1211097Y1260172D01*
X1211093Y1260057D01*
X1211093Y1259943D01*
X1211097Y1259828D01*
X1211105Y1259713D01*
X1211117Y1259599D01*
X1211133Y1259485D01*
X1211152Y1259372D01*
X1211176Y1259259D01*
X1211203Y1259148D01*
X1211234Y1259037D01*
X1211268Y1258927D01*
X1211307Y1258819D01*
X1211349Y1258712D01*
X1211395Y1258607D01*
X1211444Y1258503D01*
X1211497Y1258401D01*
X1211553Y1258301D01*
X1211613Y1258203D01*
X1211676Y1258107D01*
X1211742Y1258013D01*
X1211811Y1257921D01*
X1211884Y1257832D01*
X1211959Y1257745D01*
X1212038Y1257661D01*
X1212119Y1257580D01*
X1212203Y1257501D01*
X1212290Y1257426D01*
X1212379Y1257353D01*
X1212470Y1257284D01*
X1212564Y1257218D01*
X1212660Y1257154D01*
X1212758Y1257095D01*
X1212858Y1257038D01*
X1212960Y1256985D01*
X1213064Y1256936D01*
X1213169Y1256890D01*
X1213276Y1256848D01*
X1213385Y1256809D01*
X1213494Y1256775D01*
X1213605Y1256743D01*
X1213716Y1256716D01*
X1213829Y1256693D01*
X1213834Y1257932D01*
X1213747Y1257960D01*
X1213660Y1257992D01*
X1213576Y1258028D01*
X1213493Y1258068D01*
X1213411Y1258110D01*
X1213332Y1258157D01*
X1213254Y1258207D01*
X1213179Y1258259D01*
X1213106Y1258316D01*
X1213036Y1258375D01*
X1212968Y1258437D01*
X1212903Y1258502D01*
X1212840Y1258569D01*
X1212781Y1258639D01*
X1212725Y1258712D01*
X1212671Y1258787D01*
X1212621Y1258864D01*
X1212575Y1258944D01*
X1212532Y1259025D01*
X1212492Y1259108D01*
X1212456Y1259192D01*
X1212423Y1259278D01*
X1212394Y1259366D01*
X1212369Y1259454D01*
X1212348Y1259544D01*
X1212330Y1259634D01*
X1212317Y1259725D01*
X1212307Y1259816D01*
X1212301Y1259908D01*
X1212299Y1260000D01*
X1212301Y1260092D01*
X1212307Y1260184D01*
X1212317Y1260275D01*
X1212330Y1260366D01*
X1212348Y1260456D01*
X1212369Y1260546D01*
X1212394Y1260634D01*
X1212423Y1260722D01*
X1212456Y1260808D01*
X1212492Y1260892D01*
X1212532Y1260975D01*
X1212575Y1261056D01*
X1212621Y1261136D01*
X1212671Y1261213D01*
X1212725Y1261288D01*
X1212781Y1261361D01*
X1212840Y1261431D01*
X1212903Y1261498D01*
X1212968Y1261563D01*
X1213036Y1261625D01*
X1213106Y1261684D01*
X1213179Y1261741D01*
X1213254Y1261793D01*
X1213332Y1261843D01*
X1213411Y1261890D01*
X1213493Y1261932D01*
X1213576Y1261972D01*
X1213660Y1262008D01*
X1213747Y1262040D01*
X1213834Y1262068D01*
X1213871Y1260752D01*
X1213825Y1260713D01*
X1213782Y1260672D01*
X1213741Y1260629D01*
X1213703Y1260582D01*
X1213668Y1260534D01*
X1213637Y1260484D01*
X1213608Y1260431D01*
X1213583Y1260377D01*
X1213561Y1260322D01*
X1213542Y1260265D01*
X1213528Y1260207D01*
X1213517Y1260149D01*
X1213509Y1260089D01*
X1213505Y1260030D01*
X1213505Y1259970D01*
X1213509Y1259911D01*
X1213517Y1259851D01*
X1213528Y1259793D01*
X1213542Y1259735D01*
X1213561Y1259678D01*
X1213583Y1259623D01*
X1213608Y1259569D01*
X1213637Y1259516D01*
X1213668Y1259466D01*
X1213703Y1259418D01*
X1213741Y1259371D01*
X1213782Y1259328D01*
X1213825Y1259287D01*
X1213871Y1259248D01*
M02*
