G04 EAGLE Gerber RS-274X export*
G75*
%MOMM*%
%FSLAX34Y34*%
%LPD*%
%INBoard Outline*%
%IPPOS*%
%AMOC8*
5,1,8,0,0,1.08239X$1,22.5*%
G01*
%ADD10C,0.000000*%
%ADD11C,0.152400*%
%ADD12C,0.254000*%


D10*
X1557500Y1460000D02*
X1557504Y1460307D01*
X1557515Y1460613D01*
X1557534Y1460920D01*
X1557560Y1461225D01*
X1557594Y1461530D01*
X1557635Y1461834D01*
X1557684Y1462137D01*
X1557740Y1462439D01*
X1557804Y1462739D01*
X1557875Y1463037D01*
X1557953Y1463334D01*
X1558038Y1463629D01*
X1558131Y1463921D01*
X1558231Y1464211D01*
X1558338Y1464499D01*
X1558452Y1464784D01*
X1558572Y1465066D01*
X1558700Y1465344D01*
X1558835Y1465620D01*
X1558976Y1465892D01*
X1559124Y1466161D01*
X1559278Y1466426D01*
X1559439Y1466687D01*
X1559607Y1466945D01*
X1559780Y1467198D01*
X1559960Y1467446D01*
X1560146Y1467690D01*
X1560337Y1467930D01*
X1560535Y1468165D01*
X1560738Y1468394D01*
X1560947Y1468619D01*
X1561161Y1468839D01*
X1561381Y1469053D01*
X1561606Y1469262D01*
X1561835Y1469465D01*
X1562070Y1469663D01*
X1562310Y1469854D01*
X1562554Y1470040D01*
X1562802Y1470220D01*
X1563055Y1470393D01*
X1563313Y1470561D01*
X1563574Y1470722D01*
X1563839Y1470876D01*
X1564108Y1471024D01*
X1564380Y1471165D01*
X1564656Y1471300D01*
X1564934Y1471428D01*
X1565216Y1471548D01*
X1565501Y1471662D01*
X1565789Y1471769D01*
X1566079Y1471869D01*
X1566371Y1471962D01*
X1566666Y1472047D01*
X1566963Y1472125D01*
X1567261Y1472196D01*
X1567561Y1472260D01*
X1567863Y1472316D01*
X1568166Y1472365D01*
X1568470Y1472406D01*
X1568775Y1472440D01*
X1569080Y1472466D01*
X1569387Y1472485D01*
X1569693Y1472496D01*
X1570000Y1472500D01*
X1570307Y1472496D01*
X1570613Y1472485D01*
X1570920Y1472466D01*
X1571225Y1472440D01*
X1571530Y1472406D01*
X1571834Y1472365D01*
X1572137Y1472316D01*
X1572439Y1472260D01*
X1572739Y1472196D01*
X1573037Y1472125D01*
X1573334Y1472047D01*
X1573629Y1471962D01*
X1573921Y1471869D01*
X1574211Y1471769D01*
X1574499Y1471662D01*
X1574784Y1471548D01*
X1575066Y1471428D01*
X1575344Y1471300D01*
X1575620Y1471165D01*
X1575892Y1471024D01*
X1576161Y1470876D01*
X1576426Y1470722D01*
X1576687Y1470561D01*
X1576945Y1470393D01*
X1577198Y1470220D01*
X1577446Y1470040D01*
X1577690Y1469854D01*
X1577930Y1469663D01*
X1578165Y1469465D01*
X1578394Y1469262D01*
X1578619Y1469053D01*
X1578839Y1468839D01*
X1579053Y1468619D01*
X1579262Y1468394D01*
X1579465Y1468165D01*
X1579663Y1467930D01*
X1579854Y1467690D01*
X1580040Y1467446D01*
X1580220Y1467198D01*
X1580393Y1466945D01*
X1580561Y1466687D01*
X1580722Y1466426D01*
X1580876Y1466161D01*
X1581024Y1465892D01*
X1581165Y1465620D01*
X1581300Y1465344D01*
X1581428Y1465066D01*
X1581548Y1464784D01*
X1581662Y1464499D01*
X1581769Y1464211D01*
X1581869Y1463921D01*
X1581962Y1463629D01*
X1582047Y1463334D01*
X1582125Y1463037D01*
X1582196Y1462739D01*
X1582260Y1462439D01*
X1582316Y1462137D01*
X1582365Y1461834D01*
X1582406Y1461530D01*
X1582440Y1461225D01*
X1582466Y1460920D01*
X1582485Y1460613D01*
X1582496Y1460307D01*
X1582500Y1460000D01*
X1582496Y1459693D01*
X1582485Y1459387D01*
X1582466Y1459080D01*
X1582440Y1458775D01*
X1582406Y1458470D01*
X1582365Y1458166D01*
X1582316Y1457863D01*
X1582260Y1457561D01*
X1582196Y1457261D01*
X1582125Y1456963D01*
X1582047Y1456666D01*
X1581962Y1456371D01*
X1581869Y1456079D01*
X1581769Y1455789D01*
X1581662Y1455501D01*
X1581548Y1455216D01*
X1581428Y1454934D01*
X1581300Y1454656D01*
X1581165Y1454380D01*
X1581024Y1454108D01*
X1580876Y1453839D01*
X1580722Y1453574D01*
X1580561Y1453313D01*
X1580393Y1453055D01*
X1580220Y1452802D01*
X1580040Y1452554D01*
X1579854Y1452310D01*
X1579663Y1452070D01*
X1579465Y1451835D01*
X1579262Y1451606D01*
X1579053Y1451381D01*
X1578839Y1451161D01*
X1578619Y1450947D01*
X1578394Y1450738D01*
X1578165Y1450535D01*
X1577930Y1450337D01*
X1577690Y1450146D01*
X1577446Y1449960D01*
X1577198Y1449780D01*
X1576945Y1449607D01*
X1576687Y1449439D01*
X1576426Y1449278D01*
X1576161Y1449124D01*
X1575892Y1448976D01*
X1575620Y1448835D01*
X1575344Y1448700D01*
X1575066Y1448572D01*
X1574784Y1448452D01*
X1574499Y1448338D01*
X1574211Y1448231D01*
X1573921Y1448131D01*
X1573629Y1448038D01*
X1573334Y1447953D01*
X1573037Y1447875D01*
X1572739Y1447804D01*
X1572439Y1447740D01*
X1572137Y1447684D01*
X1571834Y1447635D01*
X1571530Y1447594D01*
X1571225Y1447560D01*
X1570920Y1447534D01*
X1570613Y1447515D01*
X1570307Y1447504D01*
X1570000Y1447500D01*
X1569693Y1447504D01*
X1569387Y1447515D01*
X1569080Y1447534D01*
X1568775Y1447560D01*
X1568470Y1447594D01*
X1568166Y1447635D01*
X1567863Y1447684D01*
X1567561Y1447740D01*
X1567261Y1447804D01*
X1566963Y1447875D01*
X1566666Y1447953D01*
X1566371Y1448038D01*
X1566079Y1448131D01*
X1565789Y1448231D01*
X1565501Y1448338D01*
X1565216Y1448452D01*
X1564934Y1448572D01*
X1564656Y1448700D01*
X1564380Y1448835D01*
X1564108Y1448976D01*
X1563839Y1449124D01*
X1563574Y1449278D01*
X1563313Y1449439D01*
X1563055Y1449607D01*
X1562802Y1449780D01*
X1562554Y1449960D01*
X1562310Y1450146D01*
X1562070Y1450337D01*
X1561835Y1450535D01*
X1561606Y1450738D01*
X1561381Y1450947D01*
X1561161Y1451161D01*
X1560947Y1451381D01*
X1560738Y1451606D01*
X1560535Y1451835D01*
X1560337Y1452070D01*
X1560146Y1452310D01*
X1559960Y1452554D01*
X1559780Y1452802D01*
X1559607Y1453055D01*
X1559439Y1453313D01*
X1559278Y1453574D01*
X1559124Y1453839D01*
X1558976Y1454108D01*
X1558835Y1454380D01*
X1558700Y1454656D01*
X1558572Y1454934D01*
X1558452Y1455216D01*
X1558338Y1455501D01*
X1558231Y1455789D01*
X1558131Y1456079D01*
X1558038Y1456371D01*
X1557953Y1456666D01*
X1557875Y1456963D01*
X1557804Y1457261D01*
X1557740Y1457561D01*
X1557684Y1457863D01*
X1557635Y1458166D01*
X1557594Y1458470D01*
X1557560Y1458775D01*
X1557534Y1459080D01*
X1557515Y1459387D01*
X1557504Y1459693D01*
X1557500Y1460000D01*
X17500Y1460000D02*
X17504Y1460307D01*
X17515Y1460613D01*
X17534Y1460920D01*
X17560Y1461225D01*
X17594Y1461530D01*
X17635Y1461834D01*
X17684Y1462137D01*
X17740Y1462439D01*
X17804Y1462739D01*
X17875Y1463037D01*
X17953Y1463334D01*
X18038Y1463629D01*
X18131Y1463921D01*
X18231Y1464211D01*
X18338Y1464499D01*
X18452Y1464784D01*
X18572Y1465066D01*
X18700Y1465344D01*
X18835Y1465620D01*
X18976Y1465892D01*
X19124Y1466161D01*
X19278Y1466426D01*
X19439Y1466687D01*
X19607Y1466945D01*
X19780Y1467198D01*
X19960Y1467446D01*
X20146Y1467690D01*
X20337Y1467930D01*
X20535Y1468165D01*
X20738Y1468394D01*
X20947Y1468619D01*
X21161Y1468839D01*
X21381Y1469053D01*
X21606Y1469262D01*
X21835Y1469465D01*
X22070Y1469663D01*
X22310Y1469854D01*
X22554Y1470040D01*
X22802Y1470220D01*
X23055Y1470393D01*
X23313Y1470561D01*
X23574Y1470722D01*
X23839Y1470876D01*
X24108Y1471024D01*
X24380Y1471165D01*
X24656Y1471300D01*
X24934Y1471428D01*
X25216Y1471548D01*
X25501Y1471662D01*
X25789Y1471769D01*
X26079Y1471869D01*
X26371Y1471962D01*
X26666Y1472047D01*
X26963Y1472125D01*
X27261Y1472196D01*
X27561Y1472260D01*
X27863Y1472316D01*
X28166Y1472365D01*
X28470Y1472406D01*
X28775Y1472440D01*
X29080Y1472466D01*
X29387Y1472485D01*
X29693Y1472496D01*
X30000Y1472500D01*
X30307Y1472496D01*
X30613Y1472485D01*
X30920Y1472466D01*
X31225Y1472440D01*
X31530Y1472406D01*
X31834Y1472365D01*
X32137Y1472316D01*
X32439Y1472260D01*
X32739Y1472196D01*
X33037Y1472125D01*
X33334Y1472047D01*
X33629Y1471962D01*
X33921Y1471869D01*
X34211Y1471769D01*
X34499Y1471662D01*
X34784Y1471548D01*
X35066Y1471428D01*
X35344Y1471300D01*
X35620Y1471165D01*
X35892Y1471024D01*
X36161Y1470876D01*
X36426Y1470722D01*
X36687Y1470561D01*
X36945Y1470393D01*
X37198Y1470220D01*
X37446Y1470040D01*
X37690Y1469854D01*
X37930Y1469663D01*
X38165Y1469465D01*
X38394Y1469262D01*
X38619Y1469053D01*
X38839Y1468839D01*
X39053Y1468619D01*
X39262Y1468394D01*
X39465Y1468165D01*
X39663Y1467930D01*
X39854Y1467690D01*
X40040Y1467446D01*
X40220Y1467198D01*
X40393Y1466945D01*
X40561Y1466687D01*
X40722Y1466426D01*
X40876Y1466161D01*
X41024Y1465892D01*
X41165Y1465620D01*
X41300Y1465344D01*
X41428Y1465066D01*
X41548Y1464784D01*
X41662Y1464499D01*
X41769Y1464211D01*
X41869Y1463921D01*
X41962Y1463629D01*
X42047Y1463334D01*
X42125Y1463037D01*
X42196Y1462739D01*
X42260Y1462439D01*
X42316Y1462137D01*
X42365Y1461834D01*
X42406Y1461530D01*
X42440Y1461225D01*
X42466Y1460920D01*
X42485Y1460613D01*
X42496Y1460307D01*
X42500Y1460000D01*
X42496Y1459693D01*
X42485Y1459387D01*
X42466Y1459080D01*
X42440Y1458775D01*
X42406Y1458470D01*
X42365Y1458166D01*
X42316Y1457863D01*
X42260Y1457561D01*
X42196Y1457261D01*
X42125Y1456963D01*
X42047Y1456666D01*
X41962Y1456371D01*
X41869Y1456079D01*
X41769Y1455789D01*
X41662Y1455501D01*
X41548Y1455216D01*
X41428Y1454934D01*
X41300Y1454656D01*
X41165Y1454380D01*
X41024Y1454108D01*
X40876Y1453839D01*
X40722Y1453574D01*
X40561Y1453313D01*
X40393Y1453055D01*
X40220Y1452802D01*
X40040Y1452554D01*
X39854Y1452310D01*
X39663Y1452070D01*
X39465Y1451835D01*
X39262Y1451606D01*
X39053Y1451381D01*
X38839Y1451161D01*
X38619Y1450947D01*
X38394Y1450738D01*
X38165Y1450535D01*
X37930Y1450337D01*
X37690Y1450146D01*
X37446Y1449960D01*
X37198Y1449780D01*
X36945Y1449607D01*
X36687Y1449439D01*
X36426Y1449278D01*
X36161Y1449124D01*
X35892Y1448976D01*
X35620Y1448835D01*
X35344Y1448700D01*
X35066Y1448572D01*
X34784Y1448452D01*
X34499Y1448338D01*
X34211Y1448231D01*
X33921Y1448131D01*
X33629Y1448038D01*
X33334Y1447953D01*
X33037Y1447875D01*
X32739Y1447804D01*
X32439Y1447740D01*
X32137Y1447684D01*
X31834Y1447635D01*
X31530Y1447594D01*
X31225Y1447560D01*
X30920Y1447534D01*
X30613Y1447515D01*
X30307Y1447504D01*
X30000Y1447500D01*
X29693Y1447504D01*
X29387Y1447515D01*
X29080Y1447534D01*
X28775Y1447560D01*
X28470Y1447594D01*
X28166Y1447635D01*
X27863Y1447684D01*
X27561Y1447740D01*
X27261Y1447804D01*
X26963Y1447875D01*
X26666Y1447953D01*
X26371Y1448038D01*
X26079Y1448131D01*
X25789Y1448231D01*
X25501Y1448338D01*
X25216Y1448452D01*
X24934Y1448572D01*
X24656Y1448700D01*
X24380Y1448835D01*
X24108Y1448976D01*
X23839Y1449124D01*
X23574Y1449278D01*
X23313Y1449439D01*
X23055Y1449607D01*
X22802Y1449780D01*
X22554Y1449960D01*
X22310Y1450146D01*
X22070Y1450337D01*
X21835Y1450535D01*
X21606Y1450738D01*
X21381Y1450947D01*
X21161Y1451161D01*
X20947Y1451381D01*
X20738Y1451606D01*
X20535Y1451835D01*
X20337Y1452070D01*
X20146Y1452310D01*
X19960Y1452554D01*
X19780Y1452802D01*
X19607Y1453055D01*
X19439Y1453313D01*
X19278Y1453574D01*
X19124Y1453839D01*
X18976Y1454108D01*
X18835Y1454380D01*
X18700Y1454656D01*
X18572Y1454934D01*
X18452Y1455216D01*
X18338Y1455501D01*
X18231Y1455789D01*
X18131Y1456079D01*
X18038Y1456371D01*
X17953Y1456666D01*
X17875Y1456963D01*
X17804Y1457261D01*
X17740Y1457561D01*
X17684Y1457863D01*
X17635Y1458166D01*
X17594Y1458470D01*
X17560Y1458775D01*
X17534Y1459080D01*
X17515Y1459387D01*
X17504Y1459693D01*
X17500Y1460000D01*
X1557500Y940000D02*
X1557504Y940307D01*
X1557515Y940613D01*
X1557534Y940920D01*
X1557560Y941225D01*
X1557594Y941530D01*
X1557635Y941834D01*
X1557684Y942137D01*
X1557740Y942439D01*
X1557804Y942739D01*
X1557875Y943037D01*
X1557953Y943334D01*
X1558038Y943629D01*
X1558131Y943921D01*
X1558231Y944211D01*
X1558338Y944499D01*
X1558452Y944784D01*
X1558572Y945066D01*
X1558700Y945344D01*
X1558835Y945620D01*
X1558976Y945892D01*
X1559124Y946161D01*
X1559278Y946426D01*
X1559439Y946687D01*
X1559607Y946945D01*
X1559780Y947198D01*
X1559960Y947446D01*
X1560146Y947690D01*
X1560337Y947930D01*
X1560535Y948165D01*
X1560738Y948394D01*
X1560947Y948619D01*
X1561161Y948839D01*
X1561381Y949053D01*
X1561606Y949262D01*
X1561835Y949465D01*
X1562070Y949663D01*
X1562310Y949854D01*
X1562554Y950040D01*
X1562802Y950220D01*
X1563055Y950393D01*
X1563313Y950561D01*
X1563574Y950722D01*
X1563839Y950876D01*
X1564108Y951024D01*
X1564380Y951165D01*
X1564656Y951300D01*
X1564934Y951428D01*
X1565216Y951548D01*
X1565501Y951662D01*
X1565789Y951769D01*
X1566079Y951869D01*
X1566371Y951962D01*
X1566666Y952047D01*
X1566963Y952125D01*
X1567261Y952196D01*
X1567561Y952260D01*
X1567863Y952316D01*
X1568166Y952365D01*
X1568470Y952406D01*
X1568775Y952440D01*
X1569080Y952466D01*
X1569387Y952485D01*
X1569693Y952496D01*
X1570000Y952500D01*
X1570307Y952496D01*
X1570613Y952485D01*
X1570920Y952466D01*
X1571225Y952440D01*
X1571530Y952406D01*
X1571834Y952365D01*
X1572137Y952316D01*
X1572439Y952260D01*
X1572739Y952196D01*
X1573037Y952125D01*
X1573334Y952047D01*
X1573629Y951962D01*
X1573921Y951869D01*
X1574211Y951769D01*
X1574499Y951662D01*
X1574784Y951548D01*
X1575066Y951428D01*
X1575344Y951300D01*
X1575620Y951165D01*
X1575892Y951024D01*
X1576161Y950876D01*
X1576426Y950722D01*
X1576687Y950561D01*
X1576945Y950393D01*
X1577198Y950220D01*
X1577446Y950040D01*
X1577690Y949854D01*
X1577930Y949663D01*
X1578165Y949465D01*
X1578394Y949262D01*
X1578619Y949053D01*
X1578839Y948839D01*
X1579053Y948619D01*
X1579262Y948394D01*
X1579465Y948165D01*
X1579663Y947930D01*
X1579854Y947690D01*
X1580040Y947446D01*
X1580220Y947198D01*
X1580393Y946945D01*
X1580561Y946687D01*
X1580722Y946426D01*
X1580876Y946161D01*
X1581024Y945892D01*
X1581165Y945620D01*
X1581300Y945344D01*
X1581428Y945066D01*
X1581548Y944784D01*
X1581662Y944499D01*
X1581769Y944211D01*
X1581869Y943921D01*
X1581962Y943629D01*
X1582047Y943334D01*
X1582125Y943037D01*
X1582196Y942739D01*
X1582260Y942439D01*
X1582316Y942137D01*
X1582365Y941834D01*
X1582406Y941530D01*
X1582440Y941225D01*
X1582466Y940920D01*
X1582485Y940613D01*
X1582496Y940307D01*
X1582500Y940000D01*
X1582496Y939693D01*
X1582485Y939387D01*
X1582466Y939080D01*
X1582440Y938775D01*
X1582406Y938470D01*
X1582365Y938166D01*
X1582316Y937863D01*
X1582260Y937561D01*
X1582196Y937261D01*
X1582125Y936963D01*
X1582047Y936666D01*
X1581962Y936371D01*
X1581869Y936079D01*
X1581769Y935789D01*
X1581662Y935501D01*
X1581548Y935216D01*
X1581428Y934934D01*
X1581300Y934656D01*
X1581165Y934380D01*
X1581024Y934108D01*
X1580876Y933839D01*
X1580722Y933574D01*
X1580561Y933313D01*
X1580393Y933055D01*
X1580220Y932802D01*
X1580040Y932554D01*
X1579854Y932310D01*
X1579663Y932070D01*
X1579465Y931835D01*
X1579262Y931606D01*
X1579053Y931381D01*
X1578839Y931161D01*
X1578619Y930947D01*
X1578394Y930738D01*
X1578165Y930535D01*
X1577930Y930337D01*
X1577690Y930146D01*
X1577446Y929960D01*
X1577198Y929780D01*
X1576945Y929607D01*
X1576687Y929439D01*
X1576426Y929278D01*
X1576161Y929124D01*
X1575892Y928976D01*
X1575620Y928835D01*
X1575344Y928700D01*
X1575066Y928572D01*
X1574784Y928452D01*
X1574499Y928338D01*
X1574211Y928231D01*
X1573921Y928131D01*
X1573629Y928038D01*
X1573334Y927953D01*
X1573037Y927875D01*
X1572739Y927804D01*
X1572439Y927740D01*
X1572137Y927684D01*
X1571834Y927635D01*
X1571530Y927594D01*
X1571225Y927560D01*
X1570920Y927534D01*
X1570613Y927515D01*
X1570307Y927504D01*
X1570000Y927500D01*
X1569693Y927504D01*
X1569387Y927515D01*
X1569080Y927534D01*
X1568775Y927560D01*
X1568470Y927594D01*
X1568166Y927635D01*
X1567863Y927684D01*
X1567561Y927740D01*
X1567261Y927804D01*
X1566963Y927875D01*
X1566666Y927953D01*
X1566371Y928038D01*
X1566079Y928131D01*
X1565789Y928231D01*
X1565501Y928338D01*
X1565216Y928452D01*
X1564934Y928572D01*
X1564656Y928700D01*
X1564380Y928835D01*
X1564108Y928976D01*
X1563839Y929124D01*
X1563574Y929278D01*
X1563313Y929439D01*
X1563055Y929607D01*
X1562802Y929780D01*
X1562554Y929960D01*
X1562310Y930146D01*
X1562070Y930337D01*
X1561835Y930535D01*
X1561606Y930738D01*
X1561381Y930947D01*
X1561161Y931161D01*
X1560947Y931381D01*
X1560738Y931606D01*
X1560535Y931835D01*
X1560337Y932070D01*
X1560146Y932310D01*
X1559960Y932554D01*
X1559780Y932802D01*
X1559607Y933055D01*
X1559439Y933313D01*
X1559278Y933574D01*
X1559124Y933839D01*
X1558976Y934108D01*
X1558835Y934380D01*
X1558700Y934656D01*
X1558572Y934934D01*
X1558452Y935216D01*
X1558338Y935501D01*
X1558231Y935789D01*
X1558131Y936079D01*
X1558038Y936371D01*
X1557953Y936666D01*
X1557875Y936963D01*
X1557804Y937261D01*
X1557740Y937561D01*
X1557684Y937863D01*
X1557635Y938166D01*
X1557594Y938470D01*
X1557560Y938775D01*
X1557534Y939080D01*
X1557515Y939387D01*
X1557504Y939693D01*
X1557500Y940000D01*
X17500Y940000D02*
X17504Y940307D01*
X17515Y940613D01*
X17534Y940920D01*
X17560Y941225D01*
X17594Y941530D01*
X17635Y941834D01*
X17684Y942137D01*
X17740Y942439D01*
X17804Y942739D01*
X17875Y943037D01*
X17953Y943334D01*
X18038Y943629D01*
X18131Y943921D01*
X18231Y944211D01*
X18338Y944499D01*
X18452Y944784D01*
X18572Y945066D01*
X18700Y945344D01*
X18835Y945620D01*
X18976Y945892D01*
X19124Y946161D01*
X19278Y946426D01*
X19439Y946687D01*
X19607Y946945D01*
X19780Y947198D01*
X19960Y947446D01*
X20146Y947690D01*
X20337Y947930D01*
X20535Y948165D01*
X20738Y948394D01*
X20947Y948619D01*
X21161Y948839D01*
X21381Y949053D01*
X21606Y949262D01*
X21835Y949465D01*
X22070Y949663D01*
X22310Y949854D01*
X22554Y950040D01*
X22802Y950220D01*
X23055Y950393D01*
X23313Y950561D01*
X23574Y950722D01*
X23839Y950876D01*
X24108Y951024D01*
X24380Y951165D01*
X24656Y951300D01*
X24934Y951428D01*
X25216Y951548D01*
X25501Y951662D01*
X25789Y951769D01*
X26079Y951869D01*
X26371Y951962D01*
X26666Y952047D01*
X26963Y952125D01*
X27261Y952196D01*
X27561Y952260D01*
X27863Y952316D01*
X28166Y952365D01*
X28470Y952406D01*
X28775Y952440D01*
X29080Y952466D01*
X29387Y952485D01*
X29693Y952496D01*
X30000Y952500D01*
X30307Y952496D01*
X30613Y952485D01*
X30920Y952466D01*
X31225Y952440D01*
X31530Y952406D01*
X31834Y952365D01*
X32137Y952316D01*
X32439Y952260D01*
X32739Y952196D01*
X33037Y952125D01*
X33334Y952047D01*
X33629Y951962D01*
X33921Y951869D01*
X34211Y951769D01*
X34499Y951662D01*
X34784Y951548D01*
X35066Y951428D01*
X35344Y951300D01*
X35620Y951165D01*
X35892Y951024D01*
X36161Y950876D01*
X36426Y950722D01*
X36687Y950561D01*
X36945Y950393D01*
X37198Y950220D01*
X37446Y950040D01*
X37690Y949854D01*
X37930Y949663D01*
X38165Y949465D01*
X38394Y949262D01*
X38619Y949053D01*
X38839Y948839D01*
X39053Y948619D01*
X39262Y948394D01*
X39465Y948165D01*
X39663Y947930D01*
X39854Y947690D01*
X40040Y947446D01*
X40220Y947198D01*
X40393Y946945D01*
X40561Y946687D01*
X40722Y946426D01*
X40876Y946161D01*
X41024Y945892D01*
X41165Y945620D01*
X41300Y945344D01*
X41428Y945066D01*
X41548Y944784D01*
X41662Y944499D01*
X41769Y944211D01*
X41869Y943921D01*
X41962Y943629D01*
X42047Y943334D01*
X42125Y943037D01*
X42196Y942739D01*
X42260Y942439D01*
X42316Y942137D01*
X42365Y941834D01*
X42406Y941530D01*
X42440Y941225D01*
X42466Y940920D01*
X42485Y940613D01*
X42496Y940307D01*
X42500Y940000D01*
X42496Y939693D01*
X42485Y939387D01*
X42466Y939080D01*
X42440Y938775D01*
X42406Y938470D01*
X42365Y938166D01*
X42316Y937863D01*
X42260Y937561D01*
X42196Y937261D01*
X42125Y936963D01*
X42047Y936666D01*
X41962Y936371D01*
X41869Y936079D01*
X41769Y935789D01*
X41662Y935501D01*
X41548Y935216D01*
X41428Y934934D01*
X41300Y934656D01*
X41165Y934380D01*
X41024Y934108D01*
X40876Y933839D01*
X40722Y933574D01*
X40561Y933313D01*
X40393Y933055D01*
X40220Y932802D01*
X40040Y932554D01*
X39854Y932310D01*
X39663Y932070D01*
X39465Y931835D01*
X39262Y931606D01*
X39053Y931381D01*
X38839Y931161D01*
X38619Y930947D01*
X38394Y930738D01*
X38165Y930535D01*
X37930Y930337D01*
X37690Y930146D01*
X37446Y929960D01*
X37198Y929780D01*
X36945Y929607D01*
X36687Y929439D01*
X36426Y929278D01*
X36161Y929124D01*
X35892Y928976D01*
X35620Y928835D01*
X35344Y928700D01*
X35066Y928572D01*
X34784Y928452D01*
X34499Y928338D01*
X34211Y928231D01*
X33921Y928131D01*
X33629Y928038D01*
X33334Y927953D01*
X33037Y927875D01*
X32739Y927804D01*
X32439Y927740D01*
X32137Y927684D01*
X31834Y927635D01*
X31530Y927594D01*
X31225Y927560D01*
X30920Y927534D01*
X30613Y927515D01*
X30307Y927504D01*
X30000Y927500D01*
X29693Y927504D01*
X29387Y927515D01*
X29080Y927534D01*
X28775Y927560D01*
X28470Y927594D01*
X28166Y927635D01*
X27863Y927684D01*
X27561Y927740D01*
X27261Y927804D01*
X26963Y927875D01*
X26666Y927953D01*
X26371Y928038D01*
X26079Y928131D01*
X25789Y928231D01*
X25501Y928338D01*
X25216Y928452D01*
X24934Y928572D01*
X24656Y928700D01*
X24380Y928835D01*
X24108Y928976D01*
X23839Y929124D01*
X23574Y929278D01*
X23313Y929439D01*
X23055Y929607D01*
X22802Y929780D01*
X22554Y929960D01*
X22310Y930146D01*
X22070Y930337D01*
X21835Y930535D01*
X21606Y930738D01*
X21381Y930947D01*
X21161Y931161D01*
X20947Y931381D01*
X20738Y931606D01*
X20535Y931835D01*
X20337Y932070D01*
X20146Y932310D01*
X19960Y932554D01*
X19780Y932802D01*
X19607Y933055D01*
X19439Y933313D01*
X19278Y933574D01*
X19124Y933839D01*
X18976Y934108D01*
X18835Y934380D01*
X18700Y934656D01*
X18572Y934934D01*
X18452Y935216D01*
X18338Y935501D01*
X18231Y935789D01*
X18131Y936079D01*
X18038Y936371D01*
X17953Y936666D01*
X17875Y936963D01*
X17804Y937261D01*
X17740Y937561D01*
X17684Y937863D01*
X17635Y938166D01*
X17594Y938470D01*
X17560Y938775D01*
X17534Y939080D01*
X17515Y939387D01*
X17504Y939693D01*
X17500Y940000D01*
X1557500Y620000D02*
X1557504Y620307D01*
X1557515Y620613D01*
X1557534Y620920D01*
X1557560Y621225D01*
X1557594Y621530D01*
X1557635Y621834D01*
X1557684Y622137D01*
X1557740Y622439D01*
X1557804Y622739D01*
X1557875Y623037D01*
X1557953Y623334D01*
X1558038Y623629D01*
X1558131Y623921D01*
X1558231Y624211D01*
X1558338Y624499D01*
X1558452Y624784D01*
X1558572Y625066D01*
X1558700Y625344D01*
X1558835Y625620D01*
X1558976Y625892D01*
X1559124Y626161D01*
X1559278Y626426D01*
X1559439Y626687D01*
X1559607Y626945D01*
X1559780Y627198D01*
X1559960Y627446D01*
X1560146Y627690D01*
X1560337Y627930D01*
X1560535Y628165D01*
X1560738Y628394D01*
X1560947Y628619D01*
X1561161Y628839D01*
X1561381Y629053D01*
X1561606Y629262D01*
X1561835Y629465D01*
X1562070Y629663D01*
X1562310Y629854D01*
X1562554Y630040D01*
X1562802Y630220D01*
X1563055Y630393D01*
X1563313Y630561D01*
X1563574Y630722D01*
X1563839Y630876D01*
X1564108Y631024D01*
X1564380Y631165D01*
X1564656Y631300D01*
X1564934Y631428D01*
X1565216Y631548D01*
X1565501Y631662D01*
X1565789Y631769D01*
X1566079Y631869D01*
X1566371Y631962D01*
X1566666Y632047D01*
X1566963Y632125D01*
X1567261Y632196D01*
X1567561Y632260D01*
X1567863Y632316D01*
X1568166Y632365D01*
X1568470Y632406D01*
X1568775Y632440D01*
X1569080Y632466D01*
X1569387Y632485D01*
X1569693Y632496D01*
X1570000Y632500D01*
X1570307Y632496D01*
X1570613Y632485D01*
X1570920Y632466D01*
X1571225Y632440D01*
X1571530Y632406D01*
X1571834Y632365D01*
X1572137Y632316D01*
X1572439Y632260D01*
X1572739Y632196D01*
X1573037Y632125D01*
X1573334Y632047D01*
X1573629Y631962D01*
X1573921Y631869D01*
X1574211Y631769D01*
X1574499Y631662D01*
X1574784Y631548D01*
X1575066Y631428D01*
X1575344Y631300D01*
X1575620Y631165D01*
X1575892Y631024D01*
X1576161Y630876D01*
X1576426Y630722D01*
X1576687Y630561D01*
X1576945Y630393D01*
X1577198Y630220D01*
X1577446Y630040D01*
X1577690Y629854D01*
X1577930Y629663D01*
X1578165Y629465D01*
X1578394Y629262D01*
X1578619Y629053D01*
X1578839Y628839D01*
X1579053Y628619D01*
X1579262Y628394D01*
X1579465Y628165D01*
X1579663Y627930D01*
X1579854Y627690D01*
X1580040Y627446D01*
X1580220Y627198D01*
X1580393Y626945D01*
X1580561Y626687D01*
X1580722Y626426D01*
X1580876Y626161D01*
X1581024Y625892D01*
X1581165Y625620D01*
X1581300Y625344D01*
X1581428Y625066D01*
X1581548Y624784D01*
X1581662Y624499D01*
X1581769Y624211D01*
X1581869Y623921D01*
X1581962Y623629D01*
X1582047Y623334D01*
X1582125Y623037D01*
X1582196Y622739D01*
X1582260Y622439D01*
X1582316Y622137D01*
X1582365Y621834D01*
X1582406Y621530D01*
X1582440Y621225D01*
X1582466Y620920D01*
X1582485Y620613D01*
X1582496Y620307D01*
X1582500Y620000D01*
X1582496Y619693D01*
X1582485Y619387D01*
X1582466Y619080D01*
X1582440Y618775D01*
X1582406Y618470D01*
X1582365Y618166D01*
X1582316Y617863D01*
X1582260Y617561D01*
X1582196Y617261D01*
X1582125Y616963D01*
X1582047Y616666D01*
X1581962Y616371D01*
X1581869Y616079D01*
X1581769Y615789D01*
X1581662Y615501D01*
X1581548Y615216D01*
X1581428Y614934D01*
X1581300Y614656D01*
X1581165Y614380D01*
X1581024Y614108D01*
X1580876Y613839D01*
X1580722Y613574D01*
X1580561Y613313D01*
X1580393Y613055D01*
X1580220Y612802D01*
X1580040Y612554D01*
X1579854Y612310D01*
X1579663Y612070D01*
X1579465Y611835D01*
X1579262Y611606D01*
X1579053Y611381D01*
X1578839Y611161D01*
X1578619Y610947D01*
X1578394Y610738D01*
X1578165Y610535D01*
X1577930Y610337D01*
X1577690Y610146D01*
X1577446Y609960D01*
X1577198Y609780D01*
X1576945Y609607D01*
X1576687Y609439D01*
X1576426Y609278D01*
X1576161Y609124D01*
X1575892Y608976D01*
X1575620Y608835D01*
X1575344Y608700D01*
X1575066Y608572D01*
X1574784Y608452D01*
X1574499Y608338D01*
X1574211Y608231D01*
X1573921Y608131D01*
X1573629Y608038D01*
X1573334Y607953D01*
X1573037Y607875D01*
X1572739Y607804D01*
X1572439Y607740D01*
X1572137Y607684D01*
X1571834Y607635D01*
X1571530Y607594D01*
X1571225Y607560D01*
X1570920Y607534D01*
X1570613Y607515D01*
X1570307Y607504D01*
X1570000Y607500D01*
X1569693Y607504D01*
X1569387Y607515D01*
X1569080Y607534D01*
X1568775Y607560D01*
X1568470Y607594D01*
X1568166Y607635D01*
X1567863Y607684D01*
X1567561Y607740D01*
X1567261Y607804D01*
X1566963Y607875D01*
X1566666Y607953D01*
X1566371Y608038D01*
X1566079Y608131D01*
X1565789Y608231D01*
X1565501Y608338D01*
X1565216Y608452D01*
X1564934Y608572D01*
X1564656Y608700D01*
X1564380Y608835D01*
X1564108Y608976D01*
X1563839Y609124D01*
X1563574Y609278D01*
X1563313Y609439D01*
X1563055Y609607D01*
X1562802Y609780D01*
X1562554Y609960D01*
X1562310Y610146D01*
X1562070Y610337D01*
X1561835Y610535D01*
X1561606Y610738D01*
X1561381Y610947D01*
X1561161Y611161D01*
X1560947Y611381D01*
X1560738Y611606D01*
X1560535Y611835D01*
X1560337Y612070D01*
X1560146Y612310D01*
X1559960Y612554D01*
X1559780Y612802D01*
X1559607Y613055D01*
X1559439Y613313D01*
X1559278Y613574D01*
X1559124Y613839D01*
X1558976Y614108D01*
X1558835Y614380D01*
X1558700Y614656D01*
X1558572Y614934D01*
X1558452Y615216D01*
X1558338Y615501D01*
X1558231Y615789D01*
X1558131Y616079D01*
X1558038Y616371D01*
X1557953Y616666D01*
X1557875Y616963D01*
X1557804Y617261D01*
X1557740Y617561D01*
X1557684Y617863D01*
X1557635Y618166D01*
X1557594Y618470D01*
X1557560Y618775D01*
X1557534Y619080D01*
X1557515Y619387D01*
X1557504Y619693D01*
X1557500Y620000D01*
X17500Y620000D02*
X17504Y620307D01*
X17515Y620613D01*
X17534Y620920D01*
X17560Y621225D01*
X17594Y621530D01*
X17635Y621834D01*
X17684Y622137D01*
X17740Y622439D01*
X17804Y622739D01*
X17875Y623037D01*
X17953Y623334D01*
X18038Y623629D01*
X18131Y623921D01*
X18231Y624211D01*
X18338Y624499D01*
X18452Y624784D01*
X18572Y625066D01*
X18700Y625344D01*
X18835Y625620D01*
X18976Y625892D01*
X19124Y626161D01*
X19278Y626426D01*
X19439Y626687D01*
X19607Y626945D01*
X19780Y627198D01*
X19960Y627446D01*
X20146Y627690D01*
X20337Y627930D01*
X20535Y628165D01*
X20738Y628394D01*
X20947Y628619D01*
X21161Y628839D01*
X21381Y629053D01*
X21606Y629262D01*
X21835Y629465D01*
X22070Y629663D01*
X22310Y629854D01*
X22554Y630040D01*
X22802Y630220D01*
X23055Y630393D01*
X23313Y630561D01*
X23574Y630722D01*
X23839Y630876D01*
X24108Y631024D01*
X24380Y631165D01*
X24656Y631300D01*
X24934Y631428D01*
X25216Y631548D01*
X25501Y631662D01*
X25789Y631769D01*
X26079Y631869D01*
X26371Y631962D01*
X26666Y632047D01*
X26963Y632125D01*
X27261Y632196D01*
X27561Y632260D01*
X27863Y632316D01*
X28166Y632365D01*
X28470Y632406D01*
X28775Y632440D01*
X29080Y632466D01*
X29387Y632485D01*
X29693Y632496D01*
X30000Y632500D01*
X30307Y632496D01*
X30613Y632485D01*
X30920Y632466D01*
X31225Y632440D01*
X31530Y632406D01*
X31834Y632365D01*
X32137Y632316D01*
X32439Y632260D01*
X32739Y632196D01*
X33037Y632125D01*
X33334Y632047D01*
X33629Y631962D01*
X33921Y631869D01*
X34211Y631769D01*
X34499Y631662D01*
X34784Y631548D01*
X35066Y631428D01*
X35344Y631300D01*
X35620Y631165D01*
X35892Y631024D01*
X36161Y630876D01*
X36426Y630722D01*
X36687Y630561D01*
X36945Y630393D01*
X37198Y630220D01*
X37446Y630040D01*
X37690Y629854D01*
X37930Y629663D01*
X38165Y629465D01*
X38394Y629262D01*
X38619Y629053D01*
X38839Y628839D01*
X39053Y628619D01*
X39262Y628394D01*
X39465Y628165D01*
X39663Y627930D01*
X39854Y627690D01*
X40040Y627446D01*
X40220Y627198D01*
X40393Y626945D01*
X40561Y626687D01*
X40722Y626426D01*
X40876Y626161D01*
X41024Y625892D01*
X41165Y625620D01*
X41300Y625344D01*
X41428Y625066D01*
X41548Y624784D01*
X41662Y624499D01*
X41769Y624211D01*
X41869Y623921D01*
X41962Y623629D01*
X42047Y623334D01*
X42125Y623037D01*
X42196Y622739D01*
X42260Y622439D01*
X42316Y622137D01*
X42365Y621834D01*
X42406Y621530D01*
X42440Y621225D01*
X42466Y620920D01*
X42485Y620613D01*
X42496Y620307D01*
X42500Y620000D01*
X42496Y619693D01*
X42485Y619387D01*
X42466Y619080D01*
X42440Y618775D01*
X42406Y618470D01*
X42365Y618166D01*
X42316Y617863D01*
X42260Y617561D01*
X42196Y617261D01*
X42125Y616963D01*
X42047Y616666D01*
X41962Y616371D01*
X41869Y616079D01*
X41769Y615789D01*
X41662Y615501D01*
X41548Y615216D01*
X41428Y614934D01*
X41300Y614656D01*
X41165Y614380D01*
X41024Y614108D01*
X40876Y613839D01*
X40722Y613574D01*
X40561Y613313D01*
X40393Y613055D01*
X40220Y612802D01*
X40040Y612554D01*
X39854Y612310D01*
X39663Y612070D01*
X39465Y611835D01*
X39262Y611606D01*
X39053Y611381D01*
X38839Y611161D01*
X38619Y610947D01*
X38394Y610738D01*
X38165Y610535D01*
X37930Y610337D01*
X37690Y610146D01*
X37446Y609960D01*
X37198Y609780D01*
X36945Y609607D01*
X36687Y609439D01*
X36426Y609278D01*
X36161Y609124D01*
X35892Y608976D01*
X35620Y608835D01*
X35344Y608700D01*
X35066Y608572D01*
X34784Y608452D01*
X34499Y608338D01*
X34211Y608231D01*
X33921Y608131D01*
X33629Y608038D01*
X33334Y607953D01*
X33037Y607875D01*
X32739Y607804D01*
X32439Y607740D01*
X32137Y607684D01*
X31834Y607635D01*
X31530Y607594D01*
X31225Y607560D01*
X30920Y607534D01*
X30613Y607515D01*
X30307Y607504D01*
X30000Y607500D01*
X29693Y607504D01*
X29387Y607515D01*
X29080Y607534D01*
X28775Y607560D01*
X28470Y607594D01*
X28166Y607635D01*
X27863Y607684D01*
X27561Y607740D01*
X27261Y607804D01*
X26963Y607875D01*
X26666Y607953D01*
X26371Y608038D01*
X26079Y608131D01*
X25789Y608231D01*
X25501Y608338D01*
X25216Y608452D01*
X24934Y608572D01*
X24656Y608700D01*
X24380Y608835D01*
X24108Y608976D01*
X23839Y609124D01*
X23574Y609278D01*
X23313Y609439D01*
X23055Y609607D01*
X22802Y609780D01*
X22554Y609960D01*
X22310Y610146D01*
X22070Y610337D01*
X21835Y610535D01*
X21606Y610738D01*
X21381Y610947D01*
X21161Y611161D01*
X20947Y611381D01*
X20738Y611606D01*
X20535Y611835D01*
X20337Y612070D01*
X20146Y612310D01*
X19960Y612554D01*
X19780Y612802D01*
X19607Y613055D01*
X19439Y613313D01*
X19278Y613574D01*
X19124Y613839D01*
X18976Y614108D01*
X18835Y614380D01*
X18700Y614656D01*
X18572Y614934D01*
X18452Y615216D01*
X18338Y615501D01*
X18231Y615789D01*
X18131Y616079D01*
X18038Y616371D01*
X17953Y616666D01*
X17875Y616963D01*
X17804Y617261D01*
X17740Y617561D01*
X17684Y617863D01*
X17635Y618166D01*
X17594Y618470D01*
X17560Y618775D01*
X17534Y619080D01*
X17515Y619387D01*
X17504Y619693D01*
X17500Y620000D01*
X1557500Y100000D02*
X1557504Y100307D01*
X1557515Y100613D01*
X1557534Y100920D01*
X1557560Y101225D01*
X1557594Y101530D01*
X1557635Y101834D01*
X1557684Y102137D01*
X1557740Y102439D01*
X1557804Y102739D01*
X1557875Y103037D01*
X1557953Y103334D01*
X1558038Y103629D01*
X1558131Y103921D01*
X1558231Y104211D01*
X1558338Y104499D01*
X1558452Y104784D01*
X1558572Y105066D01*
X1558700Y105344D01*
X1558835Y105620D01*
X1558976Y105892D01*
X1559124Y106161D01*
X1559278Y106426D01*
X1559439Y106687D01*
X1559607Y106945D01*
X1559780Y107198D01*
X1559960Y107446D01*
X1560146Y107690D01*
X1560337Y107930D01*
X1560535Y108165D01*
X1560738Y108394D01*
X1560947Y108619D01*
X1561161Y108839D01*
X1561381Y109053D01*
X1561606Y109262D01*
X1561835Y109465D01*
X1562070Y109663D01*
X1562310Y109854D01*
X1562554Y110040D01*
X1562802Y110220D01*
X1563055Y110393D01*
X1563313Y110561D01*
X1563574Y110722D01*
X1563839Y110876D01*
X1564108Y111024D01*
X1564380Y111165D01*
X1564656Y111300D01*
X1564934Y111428D01*
X1565216Y111548D01*
X1565501Y111662D01*
X1565789Y111769D01*
X1566079Y111869D01*
X1566371Y111962D01*
X1566666Y112047D01*
X1566963Y112125D01*
X1567261Y112196D01*
X1567561Y112260D01*
X1567863Y112316D01*
X1568166Y112365D01*
X1568470Y112406D01*
X1568775Y112440D01*
X1569080Y112466D01*
X1569387Y112485D01*
X1569693Y112496D01*
X1570000Y112500D01*
X1570307Y112496D01*
X1570613Y112485D01*
X1570920Y112466D01*
X1571225Y112440D01*
X1571530Y112406D01*
X1571834Y112365D01*
X1572137Y112316D01*
X1572439Y112260D01*
X1572739Y112196D01*
X1573037Y112125D01*
X1573334Y112047D01*
X1573629Y111962D01*
X1573921Y111869D01*
X1574211Y111769D01*
X1574499Y111662D01*
X1574784Y111548D01*
X1575066Y111428D01*
X1575344Y111300D01*
X1575620Y111165D01*
X1575892Y111024D01*
X1576161Y110876D01*
X1576426Y110722D01*
X1576687Y110561D01*
X1576945Y110393D01*
X1577198Y110220D01*
X1577446Y110040D01*
X1577690Y109854D01*
X1577930Y109663D01*
X1578165Y109465D01*
X1578394Y109262D01*
X1578619Y109053D01*
X1578839Y108839D01*
X1579053Y108619D01*
X1579262Y108394D01*
X1579465Y108165D01*
X1579663Y107930D01*
X1579854Y107690D01*
X1580040Y107446D01*
X1580220Y107198D01*
X1580393Y106945D01*
X1580561Y106687D01*
X1580722Y106426D01*
X1580876Y106161D01*
X1581024Y105892D01*
X1581165Y105620D01*
X1581300Y105344D01*
X1581428Y105066D01*
X1581548Y104784D01*
X1581662Y104499D01*
X1581769Y104211D01*
X1581869Y103921D01*
X1581962Y103629D01*
X1582047Y103334D01*
X1582125Y103037D01*
X1582196Y102739D01*
X1582260Y102439D01*
X1582316Y102137D01*
X1582365Y101834D01*
X1582406Y101530D01*
X1582440Y101225D01*
X1582466Y100920D01*
X1582485Y100613D01*
X1582496Y100307D01*
X1582500Y100000D01*
X1582496Y99693D01*
X1582485Y99387D01*
X1582466Y99080D01*
X1582440Y98775D01*
X1582406Y98470D01*
X1582365Y98166D01*
X1582316Y97863D01*
X1582260Y97561D01*
X1582196Y97261D01*
X1582125Y96963D01*
X1582047Y96666D01*
X1581962Y96371D01*
X1581869Y96079D01*
X1581769Y95789D01*
X1581662Y95501D01*
X1581548Y95216D01*
X1581428Y94934D01*
X1581300Y94656D01*
X1581165Y94380D01*
X1581024Y94108D01*
X1580876Y93839D01*
X1580722Y93574D01*
X1580561Y93313D01*
X1580393Y93055D01*
X1580220Y92802D01*
X1580040Y92554D01*
X1579854Y92310D01*
X1579663Y92070D01*
X1579465Y91835D01*
X1579262Y91606D01*
X1579053Y91381D01*
X1578839Y91161D01*
X1578619Y90947D01*
X1578394Y90738D01*
X1578165Y90535D01*
X1577930Y90337D01*
X1577690Y90146D01*
X1577446Y89960D01*
X1577198Y89780D01*
X1576945Y89607D01*
X1576687Y89439D01*
X1576426Y89278D01*
X1576161Y89124D01*
X1575892Y88976D01*
X1575620Y88835D01*
X1575344Y88700D01*
X1575066Y88572D01*
X1574784Y88452D01*
X1574499Y88338D01*
X1574211Y88231D01*
X1573921Y88131D01*
X1573629Y88038D01*
X1573334Y87953D01*
X1573037Y87875D01*
X1572739Y87804D01*
X1572439Y87740D01*
X1572137Y87684D01*
X1571834Y87635D01*
X1571530Y87594D01*
X1571225Y87560D01*
X1570920Y87534D01*
X1570613Y87515D01*
X1570307Y87504D01*
X1570000Y87500D01*
X1569693Y87504D01*
X1569387Y87515D01*
X1569080Y87534D01*
X1568775Y87560D01*
X1568470Y87594D01*
X1568166Y87635D01*
X1567863Y87684D01*
X1567561Y87740D01*
X1567261Y87804D01*
X1566963Y87875D01*
X1566666Y87953D01*
X1566371Y88038D01*
X1566079Y88131D01*
X1565789Y88231D01*
X1565501Y88338D01*
X1565216Y88452D01*
X1564934Y88572D01*
X1564656Y88700D01*
X1564380Y88835D01*
X1564108Y88976D01*
X1563839Y89124D01*
X1563574Y89278D01*
X1563313Y89439D01*
X1563055Y89607D01*
X1562802Y89780D01*
X1562554Y89960D01*
X1562310Y90146D01*
X1562070Y90337D01*
X1561835Y90535D01*
X1561606Y90738D01*
X1561381Y90947D01*
X1561161Y91161D01*
X1560947Y91381D01*
X1560738Y91606D01*
X1560535Y91835D01*
X1560337Y92070D01*
X1560146Y92310D01*
X1559960Y92554D01*
X1559780Y92802D01*
X1559607Y93055D01*
X1559439Y93313D01*
X1559278Y93574D01*
X1559124Y93839D01*
X1558976Y94108D01*
X1558835Y94380D01*
X1558700Y94656D01*
X1558572Y94934D01*
X1558452Y95216D01*
X1558338Y95501D01*
X1558231Y95789D01*
X1558131Y96079D01*
X1558038Y96371D01*
X1557953Y96666D01*
X1557875Y96963D01*
X1557804Y97261D01*
X1557740Y97561D01*
X1557684Y97863D01*
X1557635Y98166D01*
X1557594Y98470D01*
X1557560Y98775D01*
X1557534Y99080D01*
X1557515Y99387D01*
X1557504Y99693D01*
X1557500Y100000D01*
X17500Y100000D02*
X17504Y100307D01*
X17515Y100613D01*
X17534Y100920D01*
X17560Y101225D01*
X17594Y101530D01*
X17635Y101834D01*
X17684Y102137D01*
X17740Y102439D01*
X17804Y102739D01*
X17875Y103037D01*
X17953Y103334D01*
X18038Y103629D01*
X18131Y103921D01*
X18231Y104211D01*
X18338Y104499D01*
X18452Y104784D01*
X18572Y105066D01*
X18700Y105344D01*
X18835Y105620D01*
X18976Y105892D01*
X19124Y106161D01*
X19278Y106426D01*
X19439Y106687D01*
X19607Y106945D01*
X19780Y107198D01*
X19960Y107446D01*
X20146Y107690D01*
X20337Y107930D01*
X20535Y108165D01*
X20738Y108394D01*
X20947Y108619D01*
X21161Y108839D01*
X21381Y109053D01*
X21606Y109262D01*
X21835Y109465D01*
X22070Y109663D01*
X22310Y109854D01*
X22554Y110040D01*
X22802Y110220D01*
X23055Y110393D01*
X23313Y110561D01*
X23574Y110722D01*
X23839Y110876D01*
X24108Y111024D01*
X24380Y111165D01*
X24656Y111300D01*
X24934Y111428D01*
X25216Y111548D01*
X25501Y111662D01*
X25789Y111769D01*
X26079Y111869D01*
X26371Y111962D01*
X26666Y112047D01*
X26963Y112125D01*
X27261Y112196D01*
X27561Y112260D01*
X27863Y112316D01*
X28166Y112365D01*
X28470Y112406D01*
X28775Y112440D01*
X29080Y112466D01*
X29387Y112485D01*
X29693Y112496D01*
X30000Y112500D01*
X30307Y112496D01*
X30613Y112485D01*
X30920Y112466D01*
X31225Y112440D01*
X31530Y112406D01*
X31834Y112365D01*
X32137Y112316D01*
X32439Y112260D01*
X32739Y112196D01*
X33037Y112125D01*
X33334Y112047D01*
X33629Y111962D01*
X33921Y111869D01*
X34211Y111769D01*
X34499Y111662D01*
X34784Y111548D01*
X35066Y111428D01*
X35344Y111300D01*
X35620Y111165D01*
X35892Y111024D01*
X36161Y110876D01*
X36426Y110722D01*
X36687Y110561D01*
X36945Y110393D01*
X37198Y110220D01*
X37446Y110040D01*
X37690Y109854D01*
X37930Y109663D01*
X38165Y109465D01*
X38394Y109262D01*
X38619Y109053D01*
X38839Y108839D01*
X39053Y108619D01*
X39262Y108394D01*
X39465Y108165D01*
X39663Y107930D01*
X39854Y107690D01*
X40040Y107446D01*
X40220Y107198D01*
X40393Y106945D01*
X40561Y106687D01*
X40722Y106426D01*
X40876Y106161D01*
X41024Y105892D01*
X41165Y105620D01*
X41300Y105344D01*
X41428Y105066D01*
X41548Y104784D01*
X41662Y104499D01*
X41769Y104211D01*
X41869Y103921D01*
X41962Y103629D01*
X42047Y103334D01*
X42125Y103037D01*
X42196Y102739D01*
X42260Y102439D01*
X42316Y102137D01*
X42365Y101834D01*
X42406Y101530D01*
X42440Y101225D01*
X42466Y100920D01*
X42485Y100613D01*
X42496Y100307D01*
X42500Y100000D01*
X42496Y99693D01*
X42485Y99387D01*
X42466Y99080D01*
X42440Y98775D01*
X42406Y98470D01*
X42365Y98166D01*
X42316Y97863D01*
X42260Y97561D01*
X42196Y97261D01*
X42125Y96963D01*
X42047Y96666D01*
X41962Y96371D01*
X41869Y96079D01*
X41769Y95789D01*
X41662Y95501D01*
X41548Y95216D01*
X41428Y94934D01*
X41300Y94656D01*
X41165Y94380D01*
X41024Y94108D01*
X40876Y93839D01*
X40722Y93574D01*
X40561Y93313D01*
X40393Y93055D01*
X40220Y92802D01*
X40040Y92554D01*
X39854Y92310D01*
X39663Y92070D01*
X39465Y91835D01*
X39262Y91606D01*
X39053Y91381D01*
X38839Y91161D01*
X38619Y90947D01*
X38394Y90738D01*
X38165Y90535D01*
X37930Y90337D01*
X37690Y90146D01*
X37446Y89960D01*
X37198Y89780D01*
X36945Y89607D01*
X36687Y89439D01*
X36426Y89278D01*
X36161Y89124D01*
X35892Y88976D01*
X35620Y88835D01*
X35344Y88700D01*
X35066Y88572D01*
X34784Y88452D01*
X34499Y88338D01*
X34211Y88231D01*
X33921Y88131D01*
X33629Y88038D01*
X33334Y87953D01*
X33037Y87875D01*
X32739Y87804D01*
X32439Y87740D01*
X32137Y87684D01*
X31834Y87635D01*
X31530Y87594D01*
X31225Y87560D01*
X30920Y87534D01*
X30613Y87515D01*
X30307Y87504D01*
X30000Y87500D01*
X29693Y87504D01*
X29387Y87515D01*
X29080Y87534D01*
X28775Y87560D01*
X28470Y87594D01*
X28166Y87635D01*
X27863Y87684D01*
X27561Y87740D01*
X27261Y87804D01*
X26963Y87875D01*
X26666Y87953D01*
X26371Y88038D01*
X26079Y88131D01*
X25789Y88231D01*
X25501Y88338D01*
X25216Y88452D01*
X24934Y88572D01*
X24656Y88700D01*
X24380Y88835D01*
X24108Y88976D01*
X23839Y89124D01*
X23574Y89278D01*
X23313Y89439D01*
X23055Y89607D01*
X22802Y89780D01*
X22554Y89960D01*
X22310Y90146D01*
X22070Y90337D01*
X21835Y90535D01*
X21606Y90738D01*
X21381Y90947D01*
X21161Y91161D01*
X20947Y91381D01*
X20738Y91606D01*
X20535Y91835D01*
X20337Y92070D01*
X20146Y92310D01*
X19960Y92554D01*
X19780Y92802D01*
X19607Y93055D01*
X19439Y93313D01*
X19278Y93574D01*
X19124Y93839D01*
X18976Y94108D01*
X18835Y94380D01*
X18700Y94656D01*
X18572Y94934D01*
X18452Y95216D01*
X18338Y95501D01*
X18231Y95789D01*
X18131Y96079D01*
X18038Y96371D01*
X17953Y96666D01*
X17875Y96963D01*
X17804Y97261D01*
X17740Y97561D01*
X17684Y97863D01*
X17635Y98166D01*
X17594Y98470D01*
X17560Y98775D01*
X17534Y99080D01*
X17515Y99387D01*
X17504Y99693D01*
X17500Y100000D01*
D11*
X0Y0D02*
X1600000Y0D01*
X1600000Y720000D01*
X1600000Y840000D02*
X1600000Y1680000D01*
X0Y720000D02*
X0Y0D01*
X1480000Y720000D02*
X1600000Y720000D01*
X1480000Y720000D02*
X1480000Y840000D01*
X1600000Y840000D01*
X120000Y720000D02*
X0Y720000D01*
X0Y1680000D02*
X60000Y1680000D01*
X60000Y1330000D01*
X610000Y1330000D01*
X610000Y1680000D01*
X1600000Y1680000D01*
X120000Y840000D02*
X120000Y720000D01*
X120000Y840000D02*
X0Y840000D01*
X0Y1680000D01*
D12*
X0Y0D02*
X1600000Y0D01*
X1600000Y720000D01*
X1480000Y720000D01*
X1480000Y840000D01*
X1600000Y840000D01*
X1600000Y1680000D01*
X610000Y1680000D01*
X610000Y1330000D01*
X60000Y1330000D01*
X60000Y1680000D01*
X0Y1680000D01*
X0Y840000D01*
X120000Y840000D01*
X120000Y720000D01*
X0Y720000D01*
X0Y0D01*
X1582500Y1459509D02*
X1582423Y1458530D01*
X1582269Y1457560D01*
X1582040Y1456604D01*
X1581736Y1455670D01*
X1581361Y1454763D01*
X1580915Y1453888D01*
X1580401Y1453050D01*
X1579824Y1452255D01*
X1579186Y1451508D01*
X1578492Y1450814D01*
X1577745Y1450176D01*
X1576950Y1449599D01*
X1576112Y1449085D01*
X1575237Y1448639D01*
X1574330Y1448264D01*
X1573396Y1447960D01*
X1572441Y1447731D01*
X1571470Y1447577D01*
X1570491Y1447500D01*
X1569509Y1447500D01*
X1568530Y1447577D01*
X1567560Y1447731D01*
X1566604Y1447960D01*
X1565670Y1448264D01*
X1564763Y1448639D01*
X1563888Y1449085D01*
X1563050Y1449599D01*
X1562255Y1450176D01*
X1561508Y1450814D01*
X1560814Y1451508D01*
X1560176Y1452255D01*
X1559599Y1453050D01*
X1559085Y1453888D01*
X1558639Y1454763D01*
X1558264Y1455670D01*
X1557960Y1456604D01*
X1557731Y1457560D01*
X1557577Y1458530D01*
X1557500Y1459509D01*
X1557500Y1460491D01*
X1557577Y1461470D01*
X1557731Y1462441D01*
X1557960Y1463396D01*
X1558264Y1464330D01*
X1558639Y1465237D01*
X1559085Y1466112D01*
X1559599Y1466950D01*
X1560176Y1467745D01*
X1560814Y1468492D01*
X1561508Y1469186D01*
X1562255Y1469824D01*
X1563050Y1470401D01*
X1563888Y1470915D01*
X1564763Y1471361D01*
X1565670Y1471736D01*
X1566604Y1472040D01*
X1567560Y1472269D01*
X1568530Y1472423D01*
X1569509Y1472500D01*
X1570491Y1472500D01*
X1571470Y1472423D01*
X1572441Y1472269D01*
X1573396Y1472040D01*
X1574330Y1471736D01*
X1575237Y1471361D01*
X1576112Y1470915D01*
X1576950Y1470401D01*
X1577745Y1469824D01*
X1578492Y1469186D01*
X1579186Y1468492D01*
X1579824Y1467745D01*
X1580401Y1466950D01*
X1580915Y1466112D01*
X1581361Y1465237D01*
X1581736Y1464330D01*
X1582040Y1463396D01*
X1582269Y1462441D01*
X1582423Y1461470D01*
X1582500Y1460491D01*
X1582500Y1459509D01*
X42500Y1459509D02*
X42423Y1458530D01*
X42269Y1457560D01*
X42040Y1456604D01*
X41736Y1455670D01*
X41361Y1454763D01*
X40915Y1453888D01*
X40401Y1453050D01*
X39824Y1452255D01*
X39186Y1451508D01*
X38492Y1450814D01*
X37745Y1450176D01*
X36950Y1449599D01*
X36112Y1449085D01*
X35237Y1448639D01*
X34330Y1448264D01*
X33396Y1447960D01*
X32441Y1447731D01*
X31470Y1447577D01*
X30491Y1447500D01*
X29509Y1447500D01*
X28530Y1447577D01*
X27560Y1447731D01*
X26604Y1447960D01*
X25670Y1448264D01*
X24763Y1448639D01*
X23888Y1449085D01*
X23050Y1449599D01*
X22255Y1450176D01*
X21508Y1450814D01*
X20814Y1451508D01*
X20176Y1452255D01*
X19599Y1453050D01*
X19085Y1453888D01*
X18639Y1454763D01*
X18264Y1455670D01*
X17960Y1456604D01*
X17731Y1457560D01*
X17577Y1458530D01*
X17500Y1459509D01*
X17500Y1460491D01*
X17577Y1461470D01*
X17731Y1462441D01*
X17960Y1463396D01*
X18264Y1464330D01*
X18639Y1465237D01*
X19085Y1466112D01*
X19599Y1466950D01*
X20176Y1467745D01*
X20814Y1468492D01*
X21508Y1469186D01*
X22255Y1469824D01*
X23050Y1470401D01*
X23888Y1470915D01*
X24763Y1471361D01*
X25670Y1471736D01*
X26604Y1472040D01*
X27560Y1472269D01*
X28530Y1472423D01*
X29509Y1472500D01*
X30491Y1472500D01*
X31470Y1472423D01*
X32441Y1472269D01*
X33396Y1472040D01*
X34330Y1471736D01*
X35237Y1471361D01*
X36112Y1470915D01*
X36950Y1470401D01*
X37745Y1469824D01*
X38492Y1469186D01*
X39186Y1468492D01*
X39824Y1467745D01*
X40401Y1466950D01*
X40915Y1466112D01*
X41361Y1465237D01*
X41736Y1464330D01*
X42040Y1463396D01*
X42269Y1462441D01*
X42423Y1461470D01*
X42500Y1460491D01*
X42500Y1459509D01*
X1582500Y939509D02*
X1582423Y938530D01*
X1582269Y937560D01*
X1582040Y936604D01*
X1581736Y935670D01*
X1581361Y934763D01*
X1580915Y933888D01*
X1580401Y933050D01*
X1579824Y932255D01*
X1579186Y931508D01*
X1578492Y930814D01*
X1577745Y930176D01*
X1576950Y929599D01*
X1576112Y929085D01*
X1575237Y928639D01*
X1574330Y928264D01*
X1573396Y927960D01*
X1572441Y927731D01*
X1571470Y927577D01*
X1570491Y927500D01*
X1569509Y927500D01*
X1568530Y927577D01*
X1567560Y927731D01*
X1566604Y927960D01*
X1565670Y928264D01*
X1564763Y928639D01*
X1563888Y929085D01*
X1563050Y929599D01*
X1562255Y930176D01*
X1561508Y930814D01*
X1560814Y931508D01*
X1560176Y932255D01*
X1559599Y933050D01*
X1559085Y933888D01*
X1558639Y934763D01*
X1558264Y935670D01*
X1557960Y936604D01*
X1557731Y937560D01*
X1557577Y938530D01*
X1557500Y939509D01*
X1557500Y940491D01*
X1557577Y941470D01*
X1557731Y942441D01*
X1557960Y943396D01*
X1558264Y944330D01*
X1558639Y945237D01*
X1559085Y946112D01*
X1559599Y946950D01*
X1560176Y947745D01*
X1560814Y948492D01*
X1561508Y949186D01*
X1562255Y949824D01*
X1563050Y950401D01*
X1563888Y950915D01*
X1564763Y951361D01*
X1565670Y951736D01*
X1566604Y952040D01*
X1567560Y952269D01*
X1568530Y952423D01*
X1569509Y952500D01*
X1570491Y952500D01*
X1571470Y952423D01*
X1572441Y952269D01*
X1573396Y952040D01*
X1574330Y951736D01*
X1575237Y951361D01*
X1576112Y950915D01*
X1576950Y950401D01*
X1577745Y949824D01*
X1578492Y949186D01*
X1579186Y948492D01*
X1579824Y947745D01*
X1580401Y946950D01*
X1580915Y946112D01*
X1581361Y945237D01*
X1581736Y944330D01*
X1582040Y943396D01*
X1582269Y942441D01*
X1582423Y941470D01*
X1582500Y940491D01*
X1582500Y939509D01*
X42500Y939509D02*
X42423Y938530D01*
X42269Y937560D01*
X42040Y936604D01*
X41736Y935670D01*
X41361Y934763D01*
X40915Y933888D01*
X40401Y933050D01*
X39824Y932255D01*
X39186Y931508D01*
X38492Y930814D01*
X37745Y930176D01*
X36950Y929599D01*
X36112Y929085D01*
X35237Y928639D01*
X34330Y928264D01*
X33396Y927960D01*
X32441Y927731D01*
X31470Y927577D01*
X30491Y927500D01*
X29509Y927500D01*
X28530Y927577D01*
X27560Y927731D01*
X26604Y927960D01*
X25670Y928264D01*
X24763Y928639D01*
X23888Y929085D01*
X23050Y929599D01*
X22255Y930176D01*
X21508Y930814D01*
X20814Y931508D01*
X20176Y932255D01*
X19599Y933050D01*
X19085Y933888D01*
X18639Y934763D01*
X18264Y935670D01*
X17960Y936604D01*
X17731Y937560D01*
X17577Y938530D01*
X17500Y939509D01*
X17500Y940491D01*
X17577Y941470D01*
X17731Y942441D01*
X17960Y943396D01*
X18264Y944330D01*
X18639Y945237D01*
X19085Y946112D01*
X19599Y946950D01*
X20176Y947745D01*
X20814Y948492D01*
X21508Y949186D01*
X22255Y949824D01*
X23050Y950401D01*
X23888Y950915D01*
X24763Y951361D01*
X25670Y951736D01*
X26604Y952040D01*
X27560Y952269D01*
X28530Y952423D01*
X29509Y952500D01*
X30491Y952500D01*
X31470Y952423D01*
X32441Y952269D01*
X33396Y952040D01*
X34330Y951736D01*
X35237Y951361D01*
X36112Y950915D01*
X36950Y950401D01*
X37745Y949824D01*
X38492Y949186D01*
X39186Y948492D01*
X39824Y947745D01*
X40401Y946950D01*
X40915Y946112D01*
X41361Y945237D01*
X41736Y944330D01*
X42040Y943396D01*
X42269Y942441D01*
X42423Y941470D01*
X42500Y940491D01*
X42500Y939509D01*
X1582500Y619509D02*
X1582423Y618530D01*
X1582269Y617560D01*
X1582040Y616604D01*
X1581736Y615670D01*
X1581361Y614763D01*
X1580915Y613888D01*
X1580401Y613050D01*
X1579824Y612255D01*
X1579186Y611508D01*
X1578492Y610814D01*
X1577745Y610176D01*
X1576950Y609599D01*
X1576112Y609085D01*
X1575237Y608639D01*
X1574330Y608264D01*
X1573396Y607960D01*
X1572441Y607731D01*
X1571470Y607577D01*
X1570491Y607500D01*
X1569509Y607500D01*
X1568530Y607577D01*
X1567560Y607731D01*
X1566604Y607960D01*
X1565670Y608264D01*
X1564763Y608639D01*
X1563888Y609085D01*
X1563050Y609599D01*
X1562255Y610176D01*
X1561508Y610814D01*
X1560814Y611508D01*
X1560176Y612255D01*
X1559599Y613050D01*
X1559085Y613888D01*
X1558639Y614763D01*
X1558264Y615670D01*
X1557960Y616604D01*
X1557731Y617560D01*
X1557577Y618530D01*
X1557500Y619509D01*
X1557500Y620491D01*
X1557577Y621470D01*
X1557731Y622441D01*
X1557960Y623396D01*
X1558264Y624330D01*
X1558639Y625237D01*
X1559085Y626112D01*
X1559599Y626950D01*
X1560176Y627745D01*
X1560814Y628492D01*
X1561508Y629186D01*
X1562255Y629824D01*
X1563050Y630401D01*
X1563888Y630915D01*
X1564763Y631361D01*
X1565670Y631736D01*
X1566604Y632040D01*
X1567560Y632269D01*
X1568530Y632423D01*
X1569509Y632500D01*
X1570491Y632500D01*
X1571470Y632423D01*
X1572441Y632269D01*
X1573396Y632040D01*
X1574330Y631736D01*
X1575237Y631361D01*
X1576112Y630915D01*
X1576950Y630401D01*
X1577745Y629824D01*
X1578492Y629186D01*
X1579186Y628492D01*
X1579824Y627745D01*
X1580401Y626950D01*
X1580915Y626112D01*
X1581361Y625237D01*
X1581736Y624330D01*
X1582040Y623396D01*
X1582269Y622441D01*
X1582423Y621470D01*
X1582500Y620491D01*
X1582500Y619509D01*
X42500Y619509D02*
X42423Y618530D01*
X42269Y617560D01*
X42040Y616604D01*
X41736Y615670D01*
X41361Y614763D01*
X40915Y613888D01*
X40401Y613050D01*
X39824Y612255D01*
X39186Y611508D01*
X38492Y610814D01*
X37745Y610176D01*
X36950Y609599D01*
X36112Y609085D01*
X35237Y608639D01*
X34330Y608264D01*
X33396Y607960D01*
X32441Y607731D01*
X31470Y607577D01*
X30491Y607500D01*
X29509Y607500D01*
X28530Y607577D01*
X27560Y607731D01*
X26604Y607960D01*
X25670Y608264D01*
X24763Y608639D01*
X23888Y609085D01*
X23050Y609599D01*
X22255Y610176D01*
X21508Y610814D01*
X20814Y611508D01*
X20176Y612255D01*
X19599Y613050D01*
X19085Y613888D01*
X18639Y614763D01*
X18264Y615670D01*
X17960Y616604D01*
X17731Y617560D01*
X17577Y618530D01*
X17500Y619509D01*
X17500Y620491D01*
X17577Y621470D01*
X17731Y622441D01*
X17960Y623396D01*
X18264Y624330D01*
X18639Y625237D01*
X19085Y626112D01*
X19599Y626950D01*
X20176Y627745D01*
X20814Y628492D01*
X21508Y629186D01*
X22255Y629824D01*
X23050Y630401D01*
X23888Y630915D01*
X24763Y631361D01*
X25670Y631736D01*
X26604Y632040D01*
X27560Y632269D01*
X28530Y632423D01*
X29509Y632500D01*
X30491Y632500D01*
X31470Y632423D01*
X32441Y632269D01*
X33396Y632040D01*
X34330Y631736D01*
X35237Y631361D01*
X36112Y630915D01*
X36950Y630401D01*
X37745Y629824D01*
X38492Y629186D01*
X39186Y628492D01*
X39824Y627745D01*
X40401Y626950D01*
X40915Y626112D01*
X41361Y625237D01*
X41736Y624330D01*
X42040Y623396D01*
X42269Y622441D01*
X42423Y621470D01*
X42500Y620491D01*
X42500Y619509D01*
X1582500Y99509D02*
X1582423Y98530D01*
X1582269Y97560D01*
X1582040Y96604D01*
X1581736Y95670D01*
X1581361Y94763D01*
X1580915Y93888D01*
X1580401Y93050D01*
X1579824Y92255D01*
X1579186Y91508D01*
X1578492Y90814D01*
X1577745Y90176D01*
X1576950Y89599D01*
X1576112Y89085D01*
X1575237Y88639D01*
X1574330Y88264D01*
X1573396Y87960D01*
X1572441Y87731D01*
X1571470Y87577D01*
X1570491Y87500D01*
X1569509Y87500D01*
X1568530Y87577D01*
X1567560Y87731D01*
X1566604Y87960D01*
X1565670Y88264D01*
X1564763Y88639D01*
X1563888Y89085D01*
X1563050Y89599D01*
X1562255Y90176D01*
X1561508Y90814D01*
X1560814Y91508D01*
X1560176Y92255D01*
X1559599Y93050D01*
X1559085Y93888D01*
X1558639Y94763D01*
X1558264Y95670D01*
X1557960Y96604D01*
X1557731Y97560D01*
X1557577Y98530D01*
X1557500Y99509D01*
X1557500Y100491D01*
X1557577Y101470D01*
X1557731Y102441D01*
X1557960Y103396D01*
X1558264Y104330D01*
X1558639Y105237D01*
X1559085Y106112D01*
X1559599Y106950D01*
X1560176Y107745D01*
X1560814Y108492D01*
X1561508Y109186D01*
X1562255Y109824D01*
X1563050Y110401D01*
X1563888Y110915D01*
X1564763Y111361D01*
X1565670Y111736D01*
X1566604Y112040D01*
X1567560Y112269D01*
X1568530Y112423D01*
X1569509Y112500D01*
X1570491Y112500D01*
X1571470Y112423D01*
X1572441Y112269D01*
X1573396Y112040D01*
X1574330Y111736D01*
X1575237Y111361D01*
X1576112Y110915D01*
X1576950Y110401D01*
X1577745Y109824D01*
X1578492Y109186D01*
X1579186Y108492D01*
X1579824Y107745D01*
X1580401Y106950D01*
X1580915Y106112D01*
X1581361Y105237D01*
X1581736Y104330D01*
X1582040Y103396D01*
X1582269Y102441D01*
X1582423Y101470D01*
X1582500Y100491D01*
X1582500Y99509D01*
X42500Y99509D02*
X42423Y98530D01*
X42269Y97560D01*
X42040Y96604D01*
X41736Y95670D01*
X41361Y94763D01*
X40915Y93888D01*
X40401Y93050D01*
X39824Y92255D01*
X39186Y91508D01*
X38492Y90814D01*
X37745Y90176D01*
X36950Y89599D01*
X36112Y89085D01*
X35237Y88639D01*
X34330Y88264D01*
X33396Y87960D01*
X32441Y87731D01*
X31470Y87577D01*
X30491Y87500D01*
X29509Y87500D01*
X28530Y87577D01*
X27560Y87731D01*
X26604Y87960D01*
X25670Y88264D01*
X24763Y88639D01*
X23888Y89085D01*
X23050Y89599D01*
X22255Y90176D01*
X21508Y90814D01*
X20814Y91508D01*
X20176Y92255D01*
X19599Y93050D01*
X19085Y93888D01*
X18639Y94763D01*
X18264Y95670D01*
X17960Y96604D01*
X17731Y97560D01*
X17577Y98530D01*
X17500Y99509D01*
X17500Y100491D01*
X17577Y101470D01*
X17731Y102441D01*
X17960Y103396D01*
X18264Y104330D01*
X18639Y105237D01*
X19085Y106112D01*
X19599Y106950D01*
X20176Y107745D01*
X20814Y108492D01*
X21508Y109186D01*
X22255Y109824D01*
X23050Y110401D01*
X23888Y110915D01*
X24763Y111361D01*
X25670Y111736D01*
X26604Y112040D01*
X27560Y112269D01*
X28530Y112423D01*
X29509Y112500D01*
X30491Y112500D01*
X31470Y112423D01*
X32441Y112269D01*
X33396Y112040D01*
X34330Y111736D01*
X35237Y111361D01*
X36112Y110915D01*
X36950Y110401D01*
X37745Y109824D01*
X38492Y109186D01*
X39186Y108492D01*
X39824Y107745D01*
X40401Y106950D01*
X40915Y106112D01*
X41361Y105237D01*
X41736Y104330D01*
X42040Y103396D01*
X42269Y102441D01*
X42423Y101470D01*
X42500Y100491D01*
X42500Y99509D01*
M02*
