M48
;GenerationSoftware,Autodesk,EAGLE,9.6.2*%
;CreationDate,2021-10-29T17:55:13Z*%
FMAT,2
ICI,OFF
METRIC,TZ,000.000
T10C0.350
T9C0.500
T8C0.920
T7C0.990
T6C1.000
T5C1.020
T4C1.300
T3C1.400
T2C2.300
T1C2.500
%
G90
M71
T1
X3000Y94000
X157000Y146000
X3000Y146000
X157000Y94000
X157000Y62000
X3000Y62000
X157000Y10000
X3000Y10000
T2
X150809Y161769
X81769Y161969
X93809Y161969
X138769Y161769
T3
X43460Y100000
X30460Y100000
X22540Y100000
X48540Y100000
X35540Y100000
X17460Y100000
T4
X64860Y67380
X19140Y67380
X19140Y87700
X64860Y77540
X64860Y87700
T5
X145640Y113990
X148180Y103830
X145640Y101290
X148180Y101290
X145640Y98750
X148180Y98750
X145640Y96210
X148180Y108910
X145640Y93670
X145640Y108910
X148180Y111450
X145640Y111450
X148180Y113990
X148180Y96210
X145640Y106370
X148180Y116530
X148180Y106370
X145640Y103830
X145640Y116530
X148180Y93670
T6
X118000Y143000
X124800Y149900
X83200Y107800
X137000Y132000
X147000Y132000
X115200Y88100
X103900Y82700
X111600Y83500
X106200Y70900
X96100Y90600
X94400Y81500
X102800Y89500
X90200Y99200
X85400Y102600
X104100Y48600
X95500Y51400
X96100Y93800
X131000Y77800
X148800Y21700
X53100Y48600
X66270Y35000
X118000Y131000
X118000Y135000
X118000Y139000
X63730Y35000
X16390Y50400
X18930Y50400
X21470Y50400
X24010Y50400
X9000Y50000
X9000Y36000
X49730Y35000
X52270Y35000
T7
X136350Y98700
X131850Y98700
X131850Y92200
X136350Y92200
T8
X89039Y159259
X86539Y157259
X86539Y159259
X143539Y157059
X146039Y159059
X146039Y157059
X143539Y159059
X89039Y157259
T9
X113200Y9460
X116400Y9460
X120800Y9460
X120800Y14540
X118600Y14540
X116400Y14540
X113200Y14540
X100800Y34540
X97600Y34540
X95400Y34540
X93200Y34540
X93200Y29460
X95400Y29460
X97600Y29460
X100800Y29460
X100800Y14540
X118600Y9460
X95400Y14540
X93200Y14540
X93200Y9460
X95400Y9460
X113200Y29460
X100800Y9460
X116400Y29460
X118600Y29460
X120800Y29460
X97600Y9460
X120800Y34540
X118600Y34540
X116400Y34540
X113200Y34540
X97600Y14540
T10
X87000Y151500
X92500Y150500
X104000Y151500
X101000Y151500
X89000Y144500
X89000Y142500
X79500Y142500
X77000Y152000
X77500Y139000
X79000Y136500
X86000Y128500
X89000Y127000
X77000Y124000
X94500Y126500
X124000Y134000
X118000Y127500
X112000Y133000
X112000Y137000
X112000Y142000
X112000Y151500
X137500Y150500
X137500Y154000
X142500Y151500
X142000Y149000
X151000Y141500
X143500Y136500
X119000Y124500
X124500Y124500
X119000Y112500
X124000Y109500
X124000Y108000
X117500Y103500
X114000Y99000
X95000Y103500
X90500Y110000
X102500Y84500
X100800Y84500
X105500Y84500
X109000Y84500
X108000Y93500
X105500Y95500
X103000Y97500
X141000Y32500
X142000Y32500
X142000Y31500
X141000Y31500
X141000Y12500
X142000Y12500
X142000Y11500
X141000Y11500
X141500Y32000
X141500Y12000
X122000Y73000
X115000Y73000
X111000Y73000
X127000Y66000
X127000Y71000
X133000Y74000
X124000Y77000
X141000Y75000
X143000Y63000
X141000Y60000
X120000Y42000
X116000Y40000
X99000Y40000
X104000Y45000
X97000Y43000
X87000Y48000
X79000Y52000
X72000Y52000
X72000Y48000
X79000Y48000
X75000Y41000
X43000Y47000
X88000Y14000
X88000Y10000
X86000Y18000
X86000Y10000
X86000Y14000
X90000Y14000
X90000Y10000
X86000Y6000
X142000Y17000
X139000Y7000
X142000Y7000
X145000Y7000
X148000Y7000
X142000Y37000
X142000Y27000
X145000Y27000
X148000Y27000
X148000Y37000
X148000Y17000
X149000Y56000
X149000Y48000
X113000Y67000
X110000Y66000
X114000Y53000
X118000Y48000
X125000Y48000
X130000Y61000
X116000Y65000
X128000Y53000
X98000Y63000
X111000Y60000
X150000Y63000
X111000Y55000
X139000Y92000
X139000Y102000
X133000Y102000
X124000Y116000
X124000Y113000
X109000Y133000
X105000Y135000
X96000Y134000
X93000Y140000
X101000Y139000
X138000Y147000
X138000Y139000
X150000Y148000
X95000Y156000
X80000Y155000
X110000Y145000
X56000Y105000
X56000Y99000
X56000Y95000
X128000Y32000
X125000Y32000
X125000Y22000
X128000Y22000
X125000Y12000
X128000Y12000
X116000Y24000
X116000Y20000
X116000Y4000
X131000Y53500
X118000Y78000
X107000Y73000
X104000Y74000
X101000Y77000
X98000Y80000
X90000Y92000
X86000Y96000
X85000Y92000
X80000Y97000
X80000Y92000
X80000Y87000
X80000Y81000
X80000Y76000
X80000Y70000
X80000Y64000
X83000Y61000
X86000Y58000
X71000Y100000
X71000Y96000
X71000Y92000
X71000Y87000
X71000Y81000
X71000Y76000
X71000Y70000
X71000Y64000
X71000Y58000
X79000Y41000
X73000Y31000
X58000Y31000
X79000Y31000
X132000Y34000
X133000Y33000
X134000Y32000
X135000Y32000
X136000Y32000
X133000Y31000
X132000Y30000
X131000Y30000
X131000Y34000
X132000Y37000
X133000Y36000
X135000Y34000
X135000Y30000
X132000Y26000
X133000Y27000
X133000Y16000
X132000Y17000
X131000Y14000
X132000Y14000
X133000Y13000
X134000Y12000
X135000Y12000
X136000Y12000
X133000Y11000
X132000Y6000
X133000Y7000
X135000Y10000
X130000Y10000
X130000Y30000
X130000Y34000
X130000Y14000
X91500Y7500
X92500Y7500
X93500Y7500
X94500Y7500
X96500Y7500
X90500Y7500
X90500Y5500
X91500Y5500
X92500Y5500
X93500Y5500
X94500Y5500
X96500Y5500
X95500Y5500
X89500Y5500
X97500Y7500
X98500Y7500
X99500Y7500
X100500Y7500
X101500Y7500
X97500Y5500
X98500Y5500
X99500Y5500
X100500Y5500
X101500Y5500
X102500Y7500
X103500Y7500
X104500Y7500
X105500Y7500
X106500Y7500
X107500Y7500
X107500Y5500
X106500Y5500
X105500Y5500
X104500Y5500
X103500Y5500
X102500Y5500
X108500Y7500
X108500Y5500
X110000Y7500
X111000Y7500
X111000Y5500
X112000Y5500
X112000Y7500
X113000Y7500
X113000Y5500
X114000Y5500
X114000Y7500
X120500Y7500
X121500Y7500
X122500Y7500
X122500Y5500
X121500Y5500
X120500Y5500
X122500Y17000
X121500Y17000
X120500Y17000
X112000Y17000
X111000Y17000
X111000Y18500
X112000Y18500
X110000Y18500
X109000Y18500
X108000Y18500
X107000Y18500
X106000Y18500
X106000Y17000
X107000Y17000
X108000Y17000
X109000Y17000
X110000Y17000
X105000Y17000
X102500Y17000
X101500Y17000
X100500Y17000
X100500Y18500
X101500Y18500
X102500Y18500
X103500Y18500
X98500Y17000
X97500Y17000
X96500Y17000
X95500Y17000
X94500Y17000
X93500Y17000
X92500Y17000
X91500Y17000
X90500Y17000
X90500Y18500
X89500Y18500
X91500Y18500
X92500Y18500
X93500Y18500
X94500Y18500
X95500Y18500
X96500Y18500
X97500Y18500
X122500Y25500
X121500Y25500
X120500Y25500
X120500Y15500
X121500Y15500
X122500Y15500
X114500Y25500
X113500Y25500
X112500Y25500
X111500Y25500
X114500Y27500
X113500Y27500
X110500Y27500
X108500Y27500
X107500Y27500
X106500Y27500
X104500Y27500
X103500Y27500
X102500Y27500
X101500Y27500
X100500Y27500
X98500Y27500
X97500Y27500
X89500Y25500
X90500Y25500
X91500Y25500
X116000Y127500
X93500Y25500
X94500Y25500
X90500Y27500
X91500Y27500
X92500Y27500
X93500Y27500
X94500Y27500
X86000Y26000
X86000Y30000
X88000Y30000
X90000Y30000
X90000Y34000
X88000Y34000
X86000Y34000
X86000Y38500
X90500Y37000
X91500Y37000
X92500Y37000
X93500Y37000
X94500Y37000
X95500Y37000
X95500Y38500
X94500Y38500
X93500Y38500
X92500Y38500
X91500Y38500
X90500Y38500
X89500Y38500
X97500Y38500
X98500Y38500
X97500Y37000
X98500Y37000
X100500Y37000
X100500Y38500
X101500Y38500
X102500Y38500
X101500Y37000
X102500Y37000
X103500Y38500
X104500Y38500
X103500Y37000
X104500Y37000
X105500Y38500
X106500Y38500
X107500Y38500
X108500Y38500
X109500Y38500
X110500Y38500
X105500Y37000
X106500Y37000
X107500Y37000
X108500Y37000
X112500Y38500
X113500Y38500
X114500Y38500
X114500Y37000
X113500Y37000
X112500Y37000
X111500Y37000
X120500Y27000
X121500Y27000
X122500Y27000
X120500Y35500
X120500Y37000
X122500Y37000
X122500Y35500
X124000Y40500
X123000Y30500
X123000Y20500
X123000Y10500
X130000Y3500
X130000Y20500
X130000Y40500
X130000Y23500
X145000Y37000
X145000Y17000
X149500Y12000
X149500Y14000
X149500Y10000
X147000Y12000
X147000Y32000
X149500Y32000
X149500Y34000
X149500Y30000
X151000Y32000
X151000Y30000
X151000Y34000
X151000Y35500
X151000Y37000
X150000Y38000
X149000Y39000
X147500Y39000
X146000Y39000
X146000Y41500
X147500Y41500
X149000Y41500
X150500Y41500
X151500Y40500
X152500Y39500
X153500Y38500
X153500Y37000
X153500Y35500
X153500Y34000
X153500Y32500
X153500Y31000
X153500Y29500
X153500Y28000
X153500Y26500
X153500Y25000
X153500Y23500
X153500Y22000
X153500Y20500
X153500Y19000
X153500Y17500
X153500Y16000
X152500Y15000
X151500Y14000
X150500Y14000
X150500Y12000
X150500Y10000
X151500Y10000
X152500Y11000
X153500Y12000
X154500Y13000
X155500Y14000
X156500Y15000
X156500Y16000
X156500Y17500
X156500Y19000
X156500Y20500
X156500Y22000
X156500Y23500
X156500Y25000
X156500Y26500
X156500Y28000
X156500Y29500
X156500Y31000
X156500Y32500
X156500Y34000
X156500Y35500
X156500Y37000
X156500Y38500
X156500Y40000
X155500Y41000
X154500Y42000
X153500Y43000
X152500Y44000
X151000Y44500
X149000Y44500
X147500Y44500
X146000Y44500
X144500Y44500
X143000Y44500
X141500Y44500
X141500Y41500
X143000Y41500
X144500Y41500
X139000Y44500
X139000Y41500
X137500Y42000
X136500Y43000
X134500Y41000
X135000Y44500
X134000Y45500
X133000Y46500
X131000Y44500
X132000Y43500
X133000Y42500
X135000Y48500
X136000Y47500
X137000Y46500
X135500Y40000
X144500Y39000
X143000Y39000
X141500Y39000
X139000Y39000
X137500Y39000
X129000Y46500
X128000Y47500
X127000Y48500
X126000Y49500
X125000Y50500
X131000Y48500
X130000Y49500
X129000Y50500
X128000Y51500
X133000Y50000
X132000Y51000
X131000Y52000
X128000Y54500
X118000Y50500
X116500Y52500
X115500Y46000
X119000Y44500
X117500Y44500
X98033Y125800
X94200Y106000
X118400Y107300
X94300Y111600
X114600Y101500
X111300Y94200
X98033Y101200
X96900Y100100
X97500Y101800
X110100Y94200
X112000Y101200
X112200Y127300
X114100Y126800
X91500Y122500
X110500Y104800
X89178Y146928
X127100Y122000
X90900Y147000
X125300Y122000
X90061Y146939
X126300Y122000
X88400Y146900
X112600Y154000
X93400Y142900
X100300Y146500
X97400Y117100
X100600Y141500
X93400Y143967
X102800Y142300
X100300Y145700
X119100Y117033
X99100Y25800
X106200Y45200
X106200Y47800
X106200Y54300
X114000Y74900
X117800Y74600
X96800Y117700
X106500Y101500
X115000Y77700
X113000Y78600
X140800Y29400
X139800Y35200
X139800Y15200
X134400Y56900
X140800Y9400
X109500Y36500
X116000Y42000
X129000Y30500
X129000Y11000
X128500Y40500
X128500Y20500
X109100Y8300
X111400Y71600
X127800Y67800
X105700Y75500
X125000Y75100
X110900Y51900
X122600Y61400
X96400Y22000
X100900Y45400
X108500Y51000
X105100Y76200
X122000Y76100
X99300Y82000
X121200Y76900
X110900Y77500
X109900Y52000
X122600Y62200
X97100Y22300
X101700Y45100
X100066Y93700
X141100Y141600
X142700Y141700
X140700Y34300
X142300Y34300
X137900Y29800
X114100Y43600
X112500Y46000
X140700Y14300
X142300Y14300
X137900Y9800
X115400Y43000
X87716Y96100
X111800Y47600
X87200Y95400
X109300Y45100
X116600Y85900
X96200Y85900
X95200Y154900
X83500Y151500
X128000Y45000
X137000Y53000
X104700Y18300
X99600Y18300
X106300Y21100
X106600Y23000
X106800Y22300
X108300Y24900
X106800Y24300
X106300Y20300
X76600Y106800
X94900Y23600
X77200Y106300
X93000Y24200
X124000Y33000
X124000Y23500
X124000Y13500
X124000Y4000
X137700Y45800
X133700Y41900
X121800Y37400
X102600Y127600
X102600Y128500
X102600Y129500
X102500Y130500
X93500Y118516
X73000Y99000
X94000Y118000
X73600Y99400
X75200Y43500
X89600Y114983
X74400Y43500
X90100Y115500
X97533Y122800
X102500Y123000
X107500Y123000
X114000Y123000
X115500Y119500
X115500Y113000
X97100Y105100
X103600Y104900
X108600Y104800
X93700Y117000
X92500Y25500
X90200Y117000
X116400Y101500
X115100Y104700
X124700Y128500
X128200Y128500
X72400Y43800
X72400Y41800
X118400Y121200
X118400Y120400
X101000Y23000
X102000Y23000
X103000Y23000
X103000Y22000
X102000Y22000
X101000Y22000
X101000Y21000
X102000Y21000
X103000Y21000
X100000Y122000
X100000Y120000
X104000Y120000
X104000Y122000
X106000Y122000
X106000Y120000
X110000Y120000
X110000Y122000
X108000Y118000
X110000Y118000
X110000Y116000
X114000Y118000
X114000Y116000
X114000Y114000
X114000Y112000
X114000Y110000
X114000Y108000
X108000Y110000
X108000Y112000
X108000Y114000
X106000Y116000
X104000Y116000
X102000Y116000
X100000Y116000
X100000Y114000
X102000Y114000
X104000Y114000
X106000Y114000
X106000Y112000
X104000Y112000
X102000Y112000
X106000Y110000
X100000Y110000
X100000Y108000
X102000Y108000
X102000Y106000
X100000Y106000
X118000Y63000
X119000Y63000
X120000Y63000
X121000Y63000
X122000Y63000
X123000Y63000
X125000Y61000
X125000Y60000
X125000Y59000
X124000Y58000
X125000Y58000
X122500Y56500
X123500Y56500
X122500Y55500
X120500Y56000
X120000Y56500
X123000Y58000
X121000Y56500
X122000Y58000
X121000Y58000
X120000Y58000
X120000Y59000
X120000Y60000
X121000Y59000
X122000Y59000
X123000Y59000
X124000Y59000
X124000Y60000
X123000Y60000
X122000Y60000
X121000Y60000
X119000Y62000
X118000Y61000
X118000Y58000
X119000Y55500
X117500Y56000
X124500Y55500
X125500Y55500
X125000Y56000
X103000Y126500
X108000Y126500
X106000Y129500
X112000Y129500
X124000Y139500
X95500Y146500
X98000Y146500
X98000Y144000
X95500Y144000
X96750Y145250
X95500Y145250
X96750Y146500
X98000Y145250
X96750Y144000
X96300Y150600
M30